<?xml version="1.0" encoding="UTF-8"?>
<svg xmlns="http://www.w3.org/2000/svg" width="141" height="142" viewBox="0 0 141 142" fill="none">
  <g filter="url(#filter0_d_632_5989)">
    <path d="M121.569 70.0025L138 58.1907L118.492 52.6725L129.862 35.9988L109.623 37.4305L114.559 17.9082L96.0383 26.1208L93.9437 6.10133L79.3669 20.1055L70.5025 2L61.6331 20.1055L47.0563 6.10133L44.9667 26.1208L26.4412 17.9082L31.377 37.4305L11.1428 35.9988L22.5126 52.6725L3 58.1907L19.4309 70.0025L3 81.8093L22.5126 87.3275L11.1428 104.001L31.377 102.57L26.4412 122.092L44.9667 113.879L47.0563 133.899L61.6331 119.895L70.5025 138L79.3669 119.895L93.9437 133.899L96.0383 113.879L114.559 122.092L109.623 102.57L129.862 104.001L118.492 87.3275L138 81.8093L121.569 70.0025Z" fill="#1ABCFE"></path>
  </g>
  <path d="M101.615 68.7746C101.31 75.0533 99.7563 80.0048 96.9452 83.6338C94.1341 87.2629 90.3257 89.0774 85.5152 89.0774C80.7047 89.0774 77.8685 87.1436 76.3251 83.2759C75.0323 85.1849 73.534 86.6166 71.8253 87.5711C70.1166 88.5256 68.3277 89.0028 66.4536 89.0028C62.7555 89.0028 59.9544 87.4965 58.0452 84.4839C56.131 81.4713 55.4044 77.4396 55.8604 72.3937C56.2663 68.3023 57.2735 64.6086 58.877 61.3176C60.4855 58.0266 62.52 55.4863 64.9904 53.6916C67.4608 51.897 70.0865 50.9972 72.8676 50.9972C74.9922 50.9972 76.8713 51.2607 78.5049 51.7876C80.1385 52.3146 82.0577 53.4083 84.2575 55.0637L82.2832 76.2713C81.8021 81.2426 83.2453 83.7283 86.6126 83.7283C89.1933 83.7283 91.3129 82.3512 92.9715 79.6021C94.6301 76.853 95.5371 73.2935 95.6875 68.9237C96.1184 59.6572 94.3144 52.5632 90.2756 47.6416C86.2368 42.72 80.1685 40.2592 72.0708 40.2592C67.11 40.2592 62.7104 41.4921 58.877 43.9529C55.0436 46.4136 51.997 49.9731 49.7471 54.6312C47.4921 59.2893 46.2544 64.5937 46.0239 70.5444C45.7183 76.5994 46.4499 81.8143 48.2087 86.194C49.9675 90.5787 52.6634 93.9095 56.2964 96.1963C59.9293 98.4831 64.364 99.6265 69.6055 99.6265C71.7301 99.6265 73.955 99.373 76.27 98.8709C78.5851 98.3688 80.5544 97.6927 82.1729 96.8376L83.6161 101.998C82.0727 103.002 79.9881 103.812 77.3674 104.429C74.7467 105.045 72.1109 105.353 69.4501 105.353C63.0211 105.353 57.504 104.001 52.8939 101.302C48.2839 98.6024 44.8313 94.69 42.5263 89.5695C40.1461 84.2701 39.0938 77.9317 39.3744 70.5444C39.6801 63.6641 41.2335 57.4798 44.0446 51.9915C46.8557 46.5031 50.6941 42.2427 55.5698 39.2003C60.4404 36.1628 65.9926 34.6416 72.2212 34.6416C78.4498 34.6416 83.9468 36.0187 88.4917 38.7678C93.0367 41.5169 96.4341 45.4741 98.689 50.6343C100.939 55.7945 101.916 61.8396 101.61 68.7746H101.615ZM63.3017 72.3887C62.971 75.804 63.2766 78.399 64.2137 80.1688C65.1507 81.9386 66.644 82.8235 68.6935 82.8235C70.0615 82.8235 71.3493 82.2269 72.5669 81.0338C73.7796 79.8407 74.7667 78.2002 75.5284 76.1172L77.2371 57.5444C75.9694 57.0672 74.7467 56.8285 73.5541 56.8285C70.7429 56.8285 68.4529 58.141 66.6791 60.7658C64.9052 63.3907 63.7777 67.2633 63.3017 72.3887Z" fill="#2C2C2C"></path>
  <defs>
    <filter id="filter0_d_632_5989" x="0" y="0" width="141" height="142" color-interpolation-filters="sRGB">
      <feFlood flood-opacity="0" result="BackgroundImageFix"></feFlood>
      <feColorMatrix in="SourceAlpha" type="matrix" values="0 0 0 0 0 0 0 0 0 0 0 0 0 0 0 0 0 0 127 0" result="hardAlpha"></feColorMatrix>
      <feOffset dy="1"></feOffset>
      <feGaussianBlur stdDeviation="1.5"></feGaussianBlur>
      <feComposite in2="hardAlpha" operator="out"></feComposite>
      <feColorMatrix type="matrix" values="0 0 0 0 0 0 0 0 0 0 0 0 0 0 0 0 0 0 0.22 0"></feColorMatrix>
      <feBlend mode="normal" in2="BackgroundImageFix" result="effect1_dropShadow_632_5989"></feBlend>
      <feBlend mode="normal" in="SourceGraphic" in2="effect1_dropShadow_632_5989" result="shape"></feBlend>
    </filter>
  </defs>
</svg>
