<?xml version="1.0" encoding="UTF-8"?>
<svg xmlns="http://www.w3.org/2000/svg" width="96" height="96" viewBox="0 0 96 96" fill="none">
  <g clip-path="url(#clip0_1719_11944)">
    <path opacity="0.2" d="M48 84C67.8823 84 84 67.8823 84 48C84 28.1177 67.8823 12 48 12C28.1177 12 12 28.1177 12 48C12 67.8823 28.1177 84 48 84Z" fill="#ADFA6E"></path>
    <path d="M48 84C67.8823 84 84 67.8823 84 48C84 28.1177 67.8823 12 48 12C28.1177 12 12 28.1177 12 48C12 67.8823 28.1177 84 48 84Z" stroke="#ADFA6E" stroke-width="4" stroke-linecap="round" stroke-linejoin="round"></path>
    <path d="M60 36L36 60" stroke="#ADFA6E" stroke-width="4" stroke-linecap="round" stroke-linejoin="round"></path>
    <path d="M42 36H60V54" stroke="#ADFA6E" stroke-width="4" stroke-linecap="round" stroke-linejoin="round"></path>
  </g>
  <defs>
    <clipPath id="clip0_1719_11944">
      <rect width="96" height="96" fill="white"></rect>
    </clipPath>
  </defs>
</svg>
