<?xml version="1.0" encoding="UTF-8"?>
<svg xmlns="http://www.w3.org/2000/svg" width="40" height="40" viewBox="0 0 40 40" fill="none">
  <g clip-path="url(#clip0_2992_12494)">
    <path d="M0.651215 36.2044L32.4141 4.44431L8.88985 4.44431C8.3005 4.44431 7.73529 4.21019 7.31855 3.79346C6.90182 3.37672 6.6677 2.81151 6.6677 2.22215C6.6677 1.6328 6.90182 1.06759 7.31855 0.650853C7.73529 0.23412 8.3005 1.04344e-06 8.88985 1.09496e-06L37.7778 3.62043e-06C38.3672 3.67195e-06 38.9324 0.234123 39.3491 0.650856C39.7659 1.06759 40 1.6328 40 2.22216L40 31.1102C40 31.6995 39.7659 32.2647 39.3491 32.6815C38.9324 33.0982 38.3672 33.3323 37.7778 33.3323C37.1885 33.3323 36.6233 33.0982 36.2065 32.6815C35.7898 32.2647 35.5557 31.6995 35.5557 31.1102L35.5557 7.58588L3.79556 39.3488C3.5891 39.5552 3.344 39.719 3.07424 39.8308C2.80449 39.9425 2.51537 40 2.22339 40C1.93141 40 1.64229 39.9425 1.37253 39.8308C1.10278 39.719 0.857674 39.5552 0.651215 39.3488C0.444752 39.1423 0.280979 38.8972 0.169247 38.6275C0.0575105 38.3577 -3.64585e-06 38.0686 -3.62032e-06 37.7766C-3.5948e-06 37.4846 0.0575106 37.1955 0.169247 36.9258C0.280979 36.656 0.444752 36.4109 0.651215 36.2044Z" fill="#ADFA6E"></path>
  </g>
  <defs>
    <clipPath id="clip0_2992_12494">
      <rect width="40" height="40" fill="white" transform="translate(40 40) rotate(-180)"></rect>
    </clipPath>
  </defs>
</svg>
