<?xml version="1.0" encoding="UTF-8"?>
<svg xmlns="http://www.w3.org/2000/svg" width="56" height="56" viewBox="0 0 56 56" fill="none">
  <path d="M46.6243 39.1759C46.4453 39.4744 46.1551 39.6895 45.8175 39.774C45.4799 39.8585 45.1225 39.8055 44.824 39.6266L29.3124 30.3188V47.25C29.3124 47.5981 29.1742 47.9319 28.928 48.1781C28.6819 48.4242 28.348 48.5625 27.9999 48.5625C27.6519 48.5625 27.318 48.4242 27.0719 48.1781C26.8257 47.9319 26.6874 47.5981 26.6874 47.25V30.3188L11.1759 39.6266C10.9713 39.748 10.7378 39.8122 10.4999 39.8125C10.2123 39.8135 9.93232 39.7201 9.70301 39.5464C9.47369 39.3728 9.30775 39.1287 9.2307 38.8516C9.15366 38.5745 9.16977 38.2797 9.27657 38.0127C9.38337 37.7456 9.57494 37.521 9.82182 37.3734L25.4493 28L9.82401 18.6266C9.52522 18.4473 9.30989 18.1567 9.22538 17.8186C9.14088 17.4806 9.19411 17.1228 9.37338 16.8241C9.55265 16.5253 9.84327 16.3099 10.1813 16.2254C10.5193 16.1409 10.8771 16.1942 11.1759 16.3734L26.6874 25.6812V8.75C26.6874 8.4019 26.8257 8.06806 27.0719 7.82192C27.318 7.57578 27.6519 7.4375 27.9999 7.4375C28.348 7.4375 28.6819 7.57578 28.928 7.82192C29.1742 8.06806 29.3124 8.4019 29.3124 8.75V25.6812L44.824 16.3734C45.1228 16.1942 45.4806 16.1409 45.8186 16.2254C46.1566 16.3099 46.4472 16.5253 46.6265 16.8241C46.8058 17.1228 46.859 17.4806 46.7745 17.8186C46.69 18.1567 46.4747 18.4473 46.1759 18.6266L30.5506 28L46.1759 37.3734C46.3238 37.4623 46.4527 37.5794 46.5553 37.7181C46.6579 37.8568 46.7321 38.0143 46.7738 38.1817C46.8154 38.3491 46.8237 38.5231 46.798 38.6937C46.7724 38.8643 46.7134 39.0282 46.6243 39.1759Z" fill="#D4B8FF"></path>
</svg>
