<svg width="186" height="305" viewBox="0 0 186 305" fill="none" xmlns="http://www.w3.org/2000/svg">
<g clip-path="url(#clip0_1699_9786)">
<path d="M63.8742 155.308L63.874 155.308C56.5065 151.056 53.9824 141.636 58.2365 134.269L58.2366 134.268L79.4521 97.5212L77.7201 96.5212L79.4521 97.5212C83.7051 90.1543 93.126 87.63 100.493 91.8834L101.493 90.1514L100.493 91.8835L137.241 113.099C144.607 117.353 147.131 126.773 142.878 134.139L121.662 170.887C117.409 178.254 107.988 180.778 100.621 176.525L63.8742 155.308ZM-70.7568 191.383L-70.7568 191.383C-78.1237 187.13 -80.6478 177.71 -76.3944 170.343L-55.1784 133.595L-56.9104 132.595L-55.1784 133.595C-50.9251 126.228 -41.5049 123.704 -34.1379 127.958L-33.1379 126.226L-34.1379 127.958L2.60938 149.174C9.97639 153.427 12.5004 162.847 8.24706 170.214L8.24703 170.214L-12.9688 206.962C-17.2222 214.328 -26.6425 216.852 -34.0094 212.599L-70.7568 191.383ZM51.343 261.877L51.3428 261.877L14.5957 240.661C7.22886 236.408 4.70453 226.987 8.95789 219.621L30.1741 182.874L30.1742 182.874C34.4273 175.506 43.8472 172.982 51.2152 177.236L87.9619 198.452C95.3284 202.705 97.8527 212.126 93.5997 219.492L72.384 256.239C68.13 263.607 58.7102 266.131 51.343 261.877ZM36.31 121.609C32.0558 128.976 22.6359 131.5 15.2688 127.247L-21.4785 106.031C-28.8454 101.777 -31.3695 92.3572 -27.1162 84.9901L-5.90017 48.2429C-1.64679 40.876 7.77315 38.3518 15.141 42.605L51.8877 63.8211C59.2544 68.0746 61.7785 77.4948 57.5255 84.8617L36.31 121.609Z" stroke="url(#paint0_linear_1699_9786)" stroke-width="4"/>
</g>
<defs>
<linearGradient id="paint0_linear_1699_9786" x1="77.6699" y1="57.9022" x2="-15.7024" y2="222.938" gradientUnits="userSpaceOnUse">
<stop offset="0.0509862" stop-color="#D4B8FF"/>
<stop offset="1" stop-color="#EDE3FB"/>
</linearGradient>
<clipPath id="clip0_1699_9786">
<rect width="248.61" height="248.61" fill="white" transform="translate(-119 64.3438) rotate(-15)"/>
</clipPath>
</defs>
</svg>
