<svg width="217" height="304" viewBox="0 0 217 304" fill="none" xmlns="http://www.w3.org/2000/svg">
<path fill-rule="evenodd" clip-rule="evenodd" d="M-40.6133 42.0618L-5.22147 54.1522L-4.57798 54.3721L-4.57548 54.3647C10.5258 59.1417 26.754 51.0014 31.901 35.9348L43.9915 0.542982L51.7133 3.1809L39.4031 39.2162C34.304 54.1425 42.2705 70.3763 57.1968 75.4754C72.1232 80.5745 88.3569 72.608 93.456 57.6816L105.766 21.6463L113.488 24.2842L101.178 60.3195C96.0788 75.2459 104.045 91.4796 118.972 96.5787C133.898 101.678 150.132 93.7113 155.231 78.785L167.541 42.7496L176.55 45.8272L164.24 81.8625C159.141 96.7889 167.107 113.023 182.033 118.122L216.782 129.992L214.144 137.714L178.109 125.404C163.182 120.305 146.948 128.271 141.849 143.198C136.75 158.124 144.717 174.358 159.643 179.457L195.678 191.767L193.041 199.489L157.005 187.179C142.079 182.08 125.845 190.046 120.746 204.972C115.647 219.899 123.613 236.133 138.54 241.232L174.575 253.542L171.937 261.264L137.189 249.393C122.263 244.294 106.029 252.261 100.93 267.187L100.49 268.474L88.6194 303.222L79.6106 300.145L91.9208 264.109C97.0199 249.183 89.0534 232.949 74.1271 227.85C59.2007 222.751 42.967 230.718 37.8679 245.644L25.5576 281.679L17.8358 279.041L30.146 243.006C35.2451 228.08 27.2786 211.846 12.3523 206.747C-2.57408 201.648 -18.8078 209.614 -23.9069 224.541L-36.2172 260.576L-43.9391 257.938L-31.8486 222.546C-26.7016 207.48 -34.5572 191.111 -49.4252 185.651L-49.4226 185.644L-50.066 185.424L-85.4579 173.333L-82.82 165.611L-46.7846 177.922C-31.8583 183.021 -15.6246 175.054 -10.5255 160.128C-5.42636 145.202 -13.3929 128.968 -28.3192 123.869L-64.3545 111.558L-61.7166 103.837L-25.6813 116.147C-10.755 121.246 5.47878 113.279 10.5779 98.3531C15.677 83.4268 7.71044 67.193 -7.2159 62.0939L-43.2512 49.7836L-40.6133 42.0618ZM36.0935 137.25C51.0198 142.349 67.2536 134.383 72.3527 119.456C77.4518 104.53 69.4853 88.2963 54.5589 83.1973C39.6326 78.0982 23.3988 86.0647 18.2997 100.991C13.2006 115.917 21.1672 132.151 36.0935 137.25ZM97.8683 158.354C112.795 163.453 129.028 155.486 134.128 140.56C139.227 125.633 131.26 109.4 116.334 104.301C101.407 99.2015 85.1736 107.168 80.0745 122.094C74.9755 137.021 82.942 153.254 97.8683 158.354ZM51.2494 181.231C46.1503 196.158 29.9165 204.124 14.9902 199.025C0.0638353 193.926 -7.90269 177.692 -2.8036 162.766C2.29549 147.839 18.5292 139.873 33.4556 144.972C48.3819 150.071 56.3485 166.305 51.2494 181.231ZM76.765 220.128C91.6913 225.227 107.925 217.261 113.024 202.335C118.123 187.408 110.157 171.174 95.2304 166.075C80.3041 160.976 64.0703 168.943 58.9712 183.869C53.8721 198.796 61.8386 215.029 76.765 220.128Z" fill="url(#paint0_linear_1699_9793)"/>
<defs>
<linearGradient id="paint0_linear_1699_9793" x1="109.627" y1="22.9653" x2="21.6967" y2="280.36" gradientUnits="userSpaceOnUse">
<stop stop-color="#DF99F7"/>
<stop offset="1" stop-color="#F5F6FF"/>
</linearGradient>
</defs>
</svg>
