<svg width="120" height="160" viewBox="0 0 120 160" fill="none" xmlns="http://www.w3.org/2000/svg">
<g clip-path="url(#clip0_370_2200)">
<path d="M7.62076 106.886H0.888672L3.38419 115.665L0.888672 124.445H7.56275L7.62076 114.839V106.886Z" fill="#00539F"/>
<path d="M112.823 106.886H119.497L117.001 115.665L119.497 124.445H112.823V114.839V106.886Z" fill="#00539F"/>
<g filter="url(#filter0_d_370_2200)">
<path d="M7.47314 31.2424L60.0105 5.9259L112.823 31.2424V128.445L60.2856 154.074L7.47314 128.445V31.2424Z" fill="white"/>
</g>
<path d="M10.7651 34.1317L60.0538 10.3156L109.6 34.1317V125.575L60.3122 149.685L10.7651 125.575V34.1317Z" fill="url(#paint0_linear_370_2200)"/>
<path d="M24.9144 97.0098V92.3283H28.2723C31.1168 92.3283 32.697 90.3728 32.697 88.0812C32.697 85.7701 31.1366 83.8341 28.2723 83.8341H22.1094V97.0098H24.9144ZM27.897 89.859H24.9144V86.3034H27.897C29.0032 86.3034 29.8329 86.9748 29.8329 88.0812C29.8329 89.1674 29.0032 89.859 27.897 89.859Z" fill="white"/>
<path d="M45.1022 97.0098L42.1393 91.9923C43.5615 91.6563 45.0232 90.4119 45.0232 88.0812C45.0232 85.632 43.3442 83.8341 40.5985 83.8341H34.4355V97.0098H37.2405V92.3283H39.2948L41.8825 97.0098H45.1022ZM40.1837 89.859H37.2405V86.3034H40.1837C41.3096 86.3034 42.159 86.9748 42.159 88.0812C42.159 89.1876 41.3096 89.859 40.1837 89.859Z" fill="white"/>
<path d="M53.3707 97.2468C57.3608 97.2468 60.2643 94.4024 60.2643 90.432C60.2643 86.4616 57.3608 83.6172 53.3707 83.6172C49.4003 83.6172 46.4966 86.4616 46.4966 90.432C46.4966 94.4024 49.4003 97.2468 53.3707 97.2468ZM53.3707 94.7579C50.941 94.7579 49.3806 92.8812 49.3806 90.432C49.3806 87.9627 50.941 86.1061 53.3707 86.1061C55.8003 86.1061 57.3806 87.9627 57.3806 90.432C57.3806 92.8812 55.8003 94.7579 53.3707 94.7579Z" fill="white"/>
<path d="M65.0377 97.0098V91.558H71.4181V89.0886H65.0377V86.3034H71.5562V83.8341H62.2329V97.0098H65.0377Z" fill="white"/>
<path d="M76.3223 97.0098V83.8341H73.5176V97.0098H76.3223Z" fill="white"/>
<path d="M87.3131 97.0098V94.5405H81.7427V83.8341H78.938V97.0098H87.3131Z" fill="white"/>
<path d="M98.6006 97.0098V94.5405H92.0821V91.558H98.4625V89.0886H92.0821V86.3034H98.6006V83.8341H89.2773V97.0098H98.6006Z" fill="white"/>
<path d="M53.9342 136.296H49.7695V135.367C52.0344 133.691 52.6981 133.127 52.6981 132.447C52.6981 131.957 52.2584 131.725 51.8021 131.725C51.1715 131.725 50.6904 131.974 50.317 132.364L49.645 131.584C50.1843 130.962 51.0056 130.68 51.7772 130.68C52.9635 130.68 53.8927 131.344 53.8927 132.447C53.8927 133.393 53.1129 134.214 51.6776 135.259H53.9342V136.296ZM57.4237 136.396C55.8391 136.396 55.1339 134.961 55.1339 133.534C55.1339 132.107 55.8391 130.68 57.4237 130.68C59.0083 130.68 59.7135 132.107 59.7135 133.534C59.7135 134.961 59.0083 136.396 57.4237 136.396ZM57.4237 135.351C58.2118 135.351 58.5105 134.554 58.5105 133.534C58.5105 132.513 58.2201 131.725 57.4237 131.725C56.6355 131.725 56.3369 132.513 56.3369 133.534C56.3369 134.554 56.6355 135.351 57.4237 135.351ZM65.0489 136.296H60.8842V135.367C63.1491 133.691 63.8128 133.127 63.8128 132.447C63.8128 131.957 63.3731 131.725 62.9168 131.725C62.2863 131.725 61.8051 131.974 61.4318 132.364L60.7597 131.584C61.299 130.962 62.1203 130.68 62.8919 130.68C64.0783 130.68 65.0075 131.344 65.0075 132.447C65.0075 133.393 64.2276 134.214 62.7923 135.259H65.0489V136.296ZM69.9989 136.296H68.8208V135.152H66.1743V134.222L68.3728 130.763H69.9989V134.114H70.7124V135.152H69.9989V136.296ZM68.8208 134.114V131.808L67.3275 134.114H68.8208Z" fill="#3DDCFF"/>
<path d="M112.877 104.692H7.47266V122.249H112.877V104.692Z" fill="#0460B5"/>
<path d="M22.3287 116.214C24.2782 116.214 25.6308 114.983 25.6308 113.108C25.6308 111.233 24.2782 109.992 22.3287 109.992H19.8755V116.214H22.3287ZM22.3287 115.048H21.2V111.159H22.3287C23.6066 111.159 24.2782 112.007 24.2782 113.108C24.2782 114.162 23.56 115.048 22.3287 115.048Z" fill="white"/>
<path d="M31.1601 116.214V115.048H28.0818V113.64H31.0947V112.473H28.0818V111.159H31.1601V109.992H26.7573V116.214H31.1601Z" fill="white"/>
<path d="M34.5929 116.326C36.2719 116.326 37.0834 115.468 37.0834 114.33C37.0834 112.007 33.5108 112.67 33.5108 111.681C33.5108 111.307 33.828 111.055 34.397 111.055C35.0313 111.055 35.7029 111.271 36.2066 111.737L36.9435 110.767C36.3279 110.197 35.507 109.899 34.5183 109.899C33.0538 109.899 32.1583 110.757 32.1583 111.793C32.1583 114.134 35.7402 113.378 35.7402 114.479C35.7402 114.833 35.3858 115.169 34.6582 115.169C33.8 115.169 33.1191 114.787 32.6807 114.33L31.9624 115.337C32.5407 115.925 33.3989 116.326 34.5929 116.326Z" fill="white"/>
<path d="M39.4861 116.214V109.992H38.1616V116.214H39.4861Z" fill="white"/>
<path d="M43.9207 116.335C45.0494 116.335 45.9355 115.869 46.5698 115.16V112.772H43.6036V113.929H45.2453V114.675C44.9934 114.908 44.4711 115.151 43.9207 115.151C42.7921 115.151 41.9712 114.283 41.9712 113.108C41.9712 111.932 42.7921 111.065 43.9207 111.065C44.583 111.065 45.1147 111.438 45.3946 111.877L46.4952 111.279C46.0288 110.543 45.2173 109.89 43.9207 109.89C42.1018 109.89 40.6094 111.14 40.6094 113.108C40.6094 115.067 42.1018 116.335 43.9207 116.335Z" fill="white"/>
<path d="M53.3768 116.214V109.992H52.0523V113.9L49.17 109.992H47.8081V116.214H49.1327V112.156L52.0989 116.214H53.3768Z" fill="white"/>
<path d="M59.8271 116.214L58.4279 113.845C59.0995 113.686 59.7897 113.099 59.7897 111.998C59.7897 110.841 58.9969 109.992 57.7003 109.992H54.79V116.214H56.1146V114.004H57.0847L58.3066 116.214H59.8271ZM57.5044 112.837H56.1146V111.159H57.5044C58.0361 111.159 58.4372 111.476 58.4372 111.998C58.4372 112.52 58.0361 112.837 57.5044 112.837Z" fill="white"/>
<path d="M63.7779 116.326C65.6713 116.326 66.5856 115.272 66.5856 113.723V109.992H65.2327V113.686C65.2327 114.553 64.7385 115.151 63.7779 115.151C62.8173 115.151 62.3136 114.553 62.3136 113.686V109.992H60.9702V113.733C60.9702 115.263 61.8846 116.326 63.7779 116.326Z" fill="white"/>
<path d="M70.2091 116.326C71.8879 116.326 72.6992 115.468 72.6992 114.33C72.6992 112.007 69.1271 112.67 69.1271 111.681C69.1271 111.307 69.4441 111.055 70.013 111.055C70.6471 111.055 71.3191 111.271 71.8228 111.737L72.5594 110.767C71.9436 110.197 71.1229 109.899 70.1345 109.899C68.6696 109.899 67.7742 110.757 67.7742 111.793C67.7742 114.134 71.3564 113.378 71.3564 114.479C71.3564 114.833 71.002 115.169 70.2743 115.169C69.4162 115.169 68.7354 114.787 68.2968 114.33L67.5786 115.337C68.157 115.925 69.0151 116.326 70.2091 116.326Z" fill="white"/>
<path d="M79.3749 116.214V109.992H78.0409V112.436H75.1023V109.992H73.7778V116.214H75.1023V113.602H78.0409V116.214H79.3749Z" fill="white"/>
<path d="M81.3649 116.316C81.7756 116.316 82.1205 115.972 82.1205 115.561C82.1205 115.151 81.7756 114.805 81.3649 114.805C80.9549 114.805 80.6094 115.151 80.6094 115.561C80.6094 115.972 80.9549 116.316 81.3649 116.316Z" fill="white"/>
<path d="M85.395 116.326C86.3182 116.326 86.8777 115.925 87.1763 115.505L86.4024 114.787C86.1879 115.085 85.8614 115.272 85.4507 115.272C84.7325 115.272 84.2288 114.74 84.2288 113.957C84.2288 113.173 84.7325 112.651 85.4507 112.651C85.8614 112.651 86.1879 112.818 86.4024 113.136L87.1763 112.408C86.8777 111.998 86.3182 111.596 85.395 111.596C84.0048 111.596 83.0068 112.576 83.0068 113.957C83.0068 115.346 84.0048 116.326 85.395 116.326Z" fill="white"/>
<path d="M90.2268 116.326C91.719 116.326 92.6144 115.244 92.6144 113.957C92.6144 112.679 91.719 111.596 90.2268 111.596C88.7435 111.596 87.8481 112.679 87.8481 113.957C87.8481 115.244 88.7435 116.326 90.2268 116.326ZM90.2268 115.272C89.4896 115.272 89.0796 114.665 89.0796 113.957C89.0796 113.257 89.4896 112.651 90.2268 112.651C90.9634 112.651 91.3836 113.257 91.3836 113.957C91.3836 114.665 90.9634 115.272 90.2268 115.272Z" fill="white"/>
<path d="M100.461 116.214V112.959C100.461 112.035 99.9665 111.596 99.1369 111.596C98.4465 111.596 97.8492 112.007 97.5884 112.418C97.4201 111.905 97.0006 111.596 96.3381 111.596C95.6477 111.596 95.0509 112.026 94.8643 112.296V111.708H93.6797V116.214H94.8643V113.182C95.0415 112.93 95.3869 112.651 95.797 112.651C96.2824 112.651 96.469 112.949 96.469 113.369V116.214H97.6625V113.173C97.8308 112.93 98.1757 112.651 98.5958 112.651C99.0806 112.651 99.2672 112.949 99.2672 113.369V116.214H100.461Z" fill="white"/>
<path opacity="0.2" fill-rule="evenodd" clip-rule="evenodd" d="M33.8107 76.1595H28.3237V75.6107H33.8107V76.1595Z" fill="white"/>
<path opacity="0.2" fill-rule="evenodd" clip-rule="evenodd" d="M93.0699 76.1595H87.5825V75.6107H93.0699V76.1595Z" fill="white"/>
<path d="M43.2018 78.3538L45.176 73.2302H43.9315L42.5181 77.171L41.097 73.2302H39.8525L41.8344 78.3538H43.2018Z" fill="#3DDCFF"/>
<path d="M47.2778 78.3538V73.2302H46.187V78.3538H47.2778Z" fill="#3DDCFF"/>
<path d="M52.4583 78.3538V77.3938H49.9233V76.2335H52.4045V75.2735H49.9233V74.1902H52.4583V73.2302H48.8325V78.3538H52.4583Z" fill="#3DDCFF"/>
<path d="M58.9266 78.3538L60.3862 73.2302H59.157L58.2659 76.9327L57.2981 73.2302H56.4454L55.4698 76.9327L54.571 73.2302H53.3496L54.8168 78.3538H55.9768L56.8679 74.8356L57.7666 78.3538H58.9266Z" fill="#3DDCFF"/>
<path d="M66.369 78.4463C67.9204 78.4463 69.0499 77.3399 69.0499 75.7962C69.0499 74.2519 67.9204 73.1455 66.369 73.1455C64.8247 73.1455 63.6958 74.2519 63.6958 75.7962C63.6958 77.3399 64.8247 78.4463 66.369 78.4463ZM66.369 77.478C65.4238 77.478 64.817 76.7485 64.817 75.7962C64.817 74.8356 65.4238 74.1138 66.369 74.1138C67.3136 74.1138 67.9281 74.8356 67.9281 75.7962C67.9281 76.7485 67.3136 77.478 66.369 77.478Z" fill="#3DDCFF"/>
<path d="M72.6653 78.4462C74.2244 78.4462 74.9776 77.5781 74.9776 76.3028V73.2302H73.8635V76.272C73.8635 76.9867 73.4564 77.4779 72.6653 77.4779C71.8742 77.4779 71.4594 76.9867 71.4594 76.272V73.2302H70.353V76.3105C70.353 77.5704 71.1056 78.4462 72.6653 78.4462Z" fill="#3DDCFF"/>
<path d="M80.6726 78.3538L79.5206 76.403C80.0734 76.272 80.6423 75.7884 80.6423 74.8818C80.6423 73.9295 79.9893 73.2302 78.9214 73.2302H76.5244V78.3538H77.6154V76.5333H78.4142L79.4204 78.3538H80.6726ZM78.7603 75.5733H77.6154V74.1902H78.7603C79.1976 74.1902 79.5283 74.4516 79.5283 74.8818C79.5283 75.312 79.1976 75.5733 78.7603 75.5733Z" fill="#3DDCFF"/>
<path d="M60.3603 48.1677C60.2939 48.1013 60.2939 48.1677 60.3603 48.1677L60.0286 47.9687L59.9622 47.9023L52.1348 42.3303C52.1348 42.3303 52.0685 42.3303 52.0685 42.264L51.9358 42.1313L51.8695 42.065H51.7368L49.4814 40.4729L53.9258 41.1362C54.1248 41.1362 54.1911 41.2026 54.3902 41.2689C54.4565 41.2689 54.5892 41.3352 54.5892 41.3352C54.7882 41.4016 54.8545 41.4679 54.9872 41.5343C55.1198 41.6006 55.1862 41.6669 55.3188 41.7333C55.3851 41.7996 55.5178 41.866 55.5178 41.9323C55.5842 41.9986 55.6505 41.9986 55.7168 42.065C55.8495 42.1313 55.9159 42.1976 55.9159 42.264C56.1149 42.4629 56.2475 42.6619 56.4465 42.7946L59.9622 47.7697L60.0286 47.836L60.3603 48.1677Z" fill="#2AD2FF"/>
<path d="M60.3599 55.8624L60.0282 55.3317L59.9618 55.2654L49.5474 40.4729L51.8028 42.065L52.2008 42.3303L60.0282 47.9023H60.0945L60.3599 48.1013C60.3599 48.1013 60.4262 48.1013 60.4262 48.1677L60.7581 47.9023L71.3051 40.4729L60.6917 55.3317L60.6254 55.398L60.3599 55.8624Z" fill="url(#paint1_linear_370_2200)"/>
<path d="M60.3601 45.647L60.0283 45.1163L59.962 45.05L57.375 41.468L59.962 41.9986H60.0283L60.3601 42.065L60.6914 41.9986L63.2123 41.4016L60.6914 45.1163V45.1826L60.3601 45.647Z" fill="#2AD2FF"/>
<path d="M71.3709 40.4066L68.0542 40.871L66.7943 41.07C65.7988 41.2026 64.8702 41.7333 64.2734 42.5957L60.7576 47.6371L60.6912 47.7034L60.3594 48.1677L60.7576 47.7697L60.824 47.7034L60.3594 48.1677L69.3146 41.7996L71.3709 40.4066Z" fill="#2AD2FF"/>
<path d="M62.0186 29.9258C62.0186 32.8445 56.977 34.3702 56.977 37.4879C56.9106 38.2176 57.1096 38.9473 57.4413 39.6106C57.4413 39.6106 55.5176 37.7533 55.5176 35.7632C55.5176 33.7732 57.3749 30.7882 57.3749 30.7882C57.3749 32.1149 57.9056 32.5129 58.4363 32.5792H58.5026C59.0996 32.5792 59.4313 32.1149 59.4313 31.4515C59.4313 30.7882 58.7016 30.1248 58.7016 28.7981C58.7016 27.5378 60.2936 25.4814 60.2936 25.4814C61.4213 26.8081 62.0186 28.3338 62.0186 29.9258Z" fill="#2AF4FF"/>
<path d="M60.6255 40.5394C59.0334 40.5394 57.8394 39.2791 57.8394 37.7534V37.687C57.8394 34.304 62.5491 33.9723 62.5491 29.3953C62.6818 29.5943 63.9423 31.3189 63.9423 33.1763C63.9423 35.498 61.7533 36.095 61.7533 37.2227C61.7533 37.687 61.9524 38.0187 62.6155 38.0187C62.6818 38.0187 62.7482 38.0187 62.8146 37.9524C64.075 37.4217 64.9373 36.2277 65.0036 34.8347C65.0036 34.901 65.6667 40.5394 60.6255 40.5394Z" fill="#2AF4FF"/>
<path d="M62.6814 38.0187C62.7478 38.0187 62.8141 38.0187 62.8805 37.9524C62.2168 38.1514 59.7627 38.7483 59.7627 37.0236C59.7627 34.901 63.4109 34.4366 63.4109 32.6456C63.4109 31.5179 63.146 30.3903 62.5487 29.3953C62.6814 29.5943 63.9418 31.3189 63.9418 33.1763C63.9418 35.498 61.7528 36.095 61.7528 37.2227C61.8192 37.687 62.0847 38.0187 62.6814 38.0187Z" fill="#2AD2FF"/>
<path d="M60.6912 31.1198C60.6912 32.7782 58.5687 32.6455 58.436 32.5792H58.635C59.2321 32.5792 59.5637 32.1149 59.5637 31.4515C59.5637 30.7882 58.834 30.1248 58.834 28.7981C58.834 27.5378 60.4263 25.4814 60.4263 25.4814C59.8954 26.3438 59.6301 27.2724 59.5637 28.2011C59.5637 29.7268 60.6912 29.8595 60.6912 31.1198Z" fill="#2AD2FF"/>
<path d="M59.3651 60.1079L57.9058 59.1129H59.6968L60.2939 57.3219L60.8242 59.1129H62.6156L61.1561 60.1079L61.687 61.8324L60.2275 60.771L58.7017 61.8324L59.3651 60.1079Z" fill="#2AD2FF"/>
<path d="M66.9931 60.1079L65.5342 59.1129H67.325L67.9217 57.3219L68.4527 59.1129H70.2435L68.7846 60.1079L69.3149 61.8324L67.8554 60.771L66.33 61.8324L66.9931 60.1079Z" fill="#2AD2FF"/>
<path d="M51.8026 60.1079L50.3433 59.1129H52.1343L52.7313 57.3219L53.262 59.1129H55.0529L53.5936 60.1079L54.1243 61.8324L52.6649 60.771L51.2056 61.8324L51.8026 60.1079Z" fill="#2AD2FF"/>
</g>
<defs>
<filter id="filter0_d_370_2200" x="-2.52686" y="-4.0741" width="125.35" height="168.148" filterUnits="userSpaceOnUse" color-interpolation-filters="sRGB">
<feFlood flood-opacity="0" result="BackgroundImageFix"/>
<feColorMatrix in="SourceAlpha" type="matrix" values="0 0 0 0 0 0 0 0 0 0 0 0 0 0 0 0 0 0 127 0" result="hardAlpha"/>
<feOffset/>
<feGaussianBlur stdDeviation="5"/>
<feComposite in2="hardAlpha" operator="out"/>
<feColorMatrix type="matrix" values="0 0 0 0 0 0 0 0 0 0 0 0 0 0 0 0 0 0 0.1 0"/>
<feBlend mode="normal" in2="BackgroundImageFix" result="effect1_dropShadow_370_2200"/>
<feBlend mode="normal" in="SourceGraphic" in2="effect1_dropShadow_370_2200" result="shape"/>
</filter>
<linearGradient id="paint0_linear_370_2200" x1="60.183" y1="13.7024" x2="60.183" y2="136.137" gradientUnits="userSpaceOnUse">
<stop stop-color="#0460B5"/>
<stop offset="1" stop-color="#001D51"/>
</linearGradient>
<linearGradient id="paint1_linear_370_2200" x1="49.4811" y1="55.8903" x2="49.4811" y2="47.7485" gradientUnits="userSpaceOnUse">
<stop offset="0.73" stop-color="#2AF4FF"/>
<stop offset="0.884" stop-color="#2AF4FF"/>
</linearGradient>
<clipPath id="clip0_370_2200">
<rect width="119.111" height="160" fill="white" transform="translate(0.888672)"/>
</clipPath>
</defs>
</svg>
