<svg width="300" height="120" viewBox="0 0 300 120" fill="none" xmlns="http://www.w3.org/2000/svg">
<g clip-path="url(#clip0_1692_9395)">
<path d="M84.6524 79.1719C85.1459 79.1719 85.5846 79.2845 85.9685 79.5118C86.3505 79.739 86.6484 80.0601 86.8586 80.4751C87.0688 80.8901 87.173 81.367 87.173 81.9041V82.1932C87.173 82.7378 87.067 83.2166 86.8568 83.6298C86.6466 84.0429 86.345 84.3621 85.9538 84.5856C85.5627 84.809 85.1148 84.9217 84.6104 84.9217H83V79.1738H84.6524V79.1719ZM83.9724 79.9774V84.1217H84.6067C85.1167 84.1217 85.5078 83.9584 85.7802 83.6298C86.0525 83.303 86.1915 82.8317 86.1969 82.2177V81.8984C86.1969 81.275 86.0653 80.798 85.8003 80.4694C85.5371 80.1408 85.1532 79.9756 84.6506 79.9756H83.9706L83.9724 79.9774Z" fill="white"/>
<path d="M95.0773 79.1719V79.9774H92.4177V81.5642H94.7154V82.3529H92.4177V84.1217H95.1029V84.9198H91.4453V79.1719H95.0773Z" fill="white"/>
<path d="M101.121 79.1738C101.753 79.1738 102.236 79.3033 102.565 79.5643C102.895 79.8253 103.06 80.2141 103.06 80.7286C103.06 80.9915 102.99 81.2281 102.852 81.4384C102.713 81.6487 102.512 81.8121 102.245 81.9285C102.546 82.013 102.78 82.1707 102.947 82.4036C103.113 82.6364 103.195 82.9162 103.195 83.2429C103.195 83.7819 103.027 84.1969 102.691 84.486C102.354 84.7752 101.872 84.9198 101.243 84.9198H99.2031V79.1719H101.121V79.1738ZM100.176 81.5942H101.128C101.429 81.5942 101.667 81.5247 101.837 81.3839C102.007 81.2431 102.093 81.044 102.093 80.7849C102.093 80.5014 102.014 80.2948 101.857 80.169C101.7 80.0432 101.455 79.9793 101.121 79.9793H100.176V81.5942ZM100.176 84.1255H101.256C101.561 84.1255 101.799 84.0485 101.971 83.8926C102.142 83.7368 102.228 83.5208 102.228 83.2448C102.228 82.6477 101.93 82.3416 101.336 82.3284H100.176V84.1236V84.1255Z" fill="white"/>
<path d="M107.077 79.9774V79.1719H111.515V79.9774H109.771V84.9198H108.806V79.9774H107.077Z" fill="white"/>
<path d="M120.842 83.1837H121.814C121.814 83.5104 121.918 83.762 122.128 83.9423C122.339 84.1226 122.64 84.2108 123.031 84.2108C123.37 84.2108 123.624 84.1395 123.794 84.0005C123.964 83.8597 124.05 83.6738 124.05 83.4428C124.05 83.1912 123.964 82.9959 123.79 82.8588C123.616 82.7217 123.306 82.5846 122.854 82.4438C122.403 82.3049 122.044 82.149 121.778 81.9781C121.268 81.6495 121.013 81.2195 121.013 80.6918C121.013 80.228 121.198 79.8468 121.566 79.5464C121.933 79.2459 122.41 79.0957 122.997 79.0957C123.386 79.0957 123.733 79.1689 124.039 79.3173C124.344 79.4656 124.583 79.6741 124.757 79.9463C124.931 80.2186 125.018 80.5209 125.018 80.8514H124.05C124.05 80.551 123.958 80.3163 123.775 80.1473C123.593 79.9783 123.329 79.8919 122.989 79.8919C122.671 79.8919 122.425 79.9614 122.249 80.1003C122.074 80.2393 121.986 80.4346 121.986 80.6843C121.986 80.8946 122.081 81.0711 122.271 81.212C122.461 81.3528 122.774 81.4899 123.209 81.6232C123.644 81.7565 123.995 81.9068 124.258 82.0776C124.521 82.2466 124.715 82.4419 124.837 82.6616C124.96 82.8813 125.022 83.1386 125.022 83.4334C125.022 83.9122 124.843 84.2934 124.486 84.577C124.128 84.8605 123.644 85.0014 123.031 85.0014C122.627 85.0014 122.255 84.9244 121.915 84.7704C121.575 84.6164 121.311 84.4042 121.123 84.1338C120.935 83.8634 120.84 83.5461 120.84 83.1855L120.842 83.1837Z" fill="white"/>
<path d="M130.206 84.9198H129.237V79.1719H130.206V84.9198Z" fill="white"/>
<path d="M135.968 79.1719L137.582 83.5772L139.193 79.1719H140.448V84.9198H139.48V83.0251L139.576 80.4901L137.924 84.9198H137.228L135.579 80.4938L135.676 83.0251V84.9198H134.707V79.1719H135.968Z" fill="white"/>
<path d="M144.903 79.1738H147.044C147.669 79.1738 148.164 79.3409 148.533 79.6751C148.901 80.0094 149.085 80.4507 149.085 81.0008C149.085 81.551 148.906 82.0017 148.546 82.3153C148.186 82.6289 147.682 82.7848 147.035 82.7848H145.878V84.9198H144.905V79.1719L144.903 79.1738ZM147.044 81.9848C147.389 81.9848 147.652 81.9003 147.835 81.7351C148.016 81.5679 148.108 81.3257 148.108 81.0102C148.108 80.6948 148.016 80.4525 147.832 80.2666C147.647 80.0807 147.393 79.985 147.071 79.9812H145.876V81.9867H147.044V81.9848Z" fill="white"/>
<path d="M154.209 84.1237H156.75V84.9218H153.238V79.1738H154.211V84.1237H154.209Z" fill="white"/>
<path d="M161.826 84.9198H160.857V79.1719H161.826V84.9198Z" fill="white"/>
<path d="M166.327 84.9198V79.1719H169.882V79.9774H167.3V81.6862H169.552V82.4843H167.3V84.9198H166.327Z" fill="white"/>
<path d="M174.982 84.9198H174.014V79.1719H174.982V84.9198Z" fill="white"/>
<path d="M183.115 79.1719V79.9774H180.455V81.5642H182.753V82.3529H180.455V84.1217H183.142V84.9198H179.484V79.1719H183.116H183.115Z" fill="white"/>
<path d="M188.891 79.1719C189.384 79.1719 189.823 79.2845 190.207 79.5118C190.589 79.739 190.887 80.0601 191.097 80.4751C191.307 80.8901 191.411 81.367 191.411 81.9041V82.1932C191.411 82.7378 191.305 83.2166 191.095 83.6298C190.885 84.0429 190.583 84.3621 190.192 84.5856C189.801 84.809 189.353 84.9217 188.849 84.9217H187.238V79.1738H188.891V79.1719ZM188.211 79.9774V84.1217H188.845C189.355 84.1217 189.746 83.9584 190.018 83.6298C190.291 83.303 190.43 82.8317 190.435 82.2177V81.8984C190.435 81.275 190.304 80.798 190.039 80.4694C189.774 80.1408 189.392 79.9756 188.889 79.9756H188.209L188.211 79.9774Z" fill="white"/>
<path d="M186.64 63.4831H186.127C185.715 67.1279 183.622 68.9513 179.848 68.9513C177.759 68.9513 176.176 68.3785 175.103 67.2293C174.028 66.082 173.492 64.4201 173.492 62.2419V41.0078H168.007V62.1987C168.007 65.7308 169.072 68.4931 171.206 70.4835C173.339 72.474 176.219 73.4692 179.846 73.4692C182.504 73.4692 184.767 72.9134 186.638 71.8017V63.485L186.64 63.4831Z" fill="white"/>
<path d="M193.666 43.2961L191.8 40.9376V55.6557C191.794 57.6199 191.791 59.5822 191.785 61.5464C191.803 62.4308 191.747 63.5575 191.476 64.8325C191.27 65.7996 190.988 66.6277 190.71 67.2999C190.716 58.0593 190.721 48.8187 190.727 39.5781L189.606 38.1528C189.61 48.4882 189.615 58.8254 189.619 69.1608C189.478 69.3655 189.307 69.589 189.1 69.8199C188.877 70.0678 188.658 70.2706 188.458 70.4377C188.48 59.5747 188.504 48.7116 188.526 37.8486L187.323 39.3771C187.34 50.028 187.356 60.6769 187.373 71.3278C187.137 71.4949 186.876 71.6658 186.589 71.8348C186.247 72.0357 185.92 72.201 185.614 72.338C185.441 70.4321 185.267 68.5261 185.093 66.6202C185.713 65.5386 185.954 64.6034 186.06 63.9875C186.179 63.3077 186.196 62.643 186.216 61.9069C186.234 61.2553 186.221 60.7126 186.207 60.3314C186.219 53.8023 186.23 47.2714 186.243 40.7423L186.21 40.7892V40.7949L184.232 43.2961L186.243 39.7715L186.905 38.6223L186.945 38.5584L188.972 35L189.067 35.1765L189.608 36.1154L190.729 38.1002L191.803 40.0006L193.67 43.2961H193.666Z" fill="white"/>
<path d="M188.968 35L184.229 43.2961C184.229 43.2961 188.308 36.3727 193.664 43.2961L188.968 35Z" fill="white"/>
<path d="M215.228 52.2212C213.595 50.0223 211.342 48.9238 208.47 48.9238C205.799 48.9238 203.688 49.8928 202.136 51.8307L201.919 49.3707H197.044V84.9211H202.334V71.3954C203.886 73.1399 205.955 74.0112 208.538 74.0112C211.323 74.0112 213.544 72.8976 215.198 70.6687C216.853 68.4397 217.679 65.4559 217.679 61.7135V61.3774C217.679 57.4715 216.862 54.4201 215.229 52.2212H215.228ZM210.983 67.5835C210.033 68.9768 208.717 69.6734 207.033 69.6734C204.856 69.6734 203.29 68.7345 202.332 66.8568V56.1233C203.275 54.2906 204.827 53.3723 206.989 53.3723C208.731 53.3723 210.069 54.0802 211.005 55.4961C211.941 56.912 212.409 58.8273 212.409 61.2422C212.409 64.0739 211.934 66.1883 210.983 67.5816V67.5835Z" fill="white"/>
<path d="M83.0518 73.563V41.0059H103.186V45.567H88.5573V55.2489H101.314V59.765H88.5573V73.5612H83.0518V73.563Z" fill="white"/>
<path d="M112.653 49.3711H107.363V73.5665H112.653V49.3711Z" fill="white"/>
<path d="M118.336 49.3707H123.32L123.472 52.1668C125.214 50.0054 127.499 48.9238 130.328 48.9238C135.233 48.9238 137.729 51.8081 137.815 57.5767V73.5642H132.525V57.8903C132.525 56.3543 132.202 55.2182 131.557 54.4802C130.911 53.7422 129.855 53.3742 128.389 53.3742C126.256 53.3742 124.667 54.3657 123.622 56.3486V73.5661H118.332V49.3707H118.336Z" fill="white"/>
<path d="M143.127 49.3707H148.111L148.263 52.1668C150.005 50.0054 152.29 48.9238 155.119 48.9238C160.024 48.9238 162.52 51.8081 162.606 57.5767V73.5642H157.316V57.8903C157.316 56.3543 156.993 55.2182 156.348 54.4802C155.702 53.7422 154.646 53.3742 153.18 53.3742C151.047 53.3742 149.458 54.3657 148.413 56.3486V73.5661H143.123V49.3707H143.127Z" fill="white"/>
<path d="M106.264 46.9063C106.42 46.9063 106.547 46.776 106.547 46.6153C106.547 46.4545 106.42 46.3242 106.264 46.3242C106.107 46.3242 105.98 46.4545 105.98 46.6153C105.98 46.776 106.107 46.9063 106.264 46.9063Z" fill="white"/>
<path d="M113.749 46.9063C113.906 46.9063 114.032 46.776 114.032 46.6153C114.032 46.4545 113.906 46.3242 113.749 46.3242C113.593 46.3242 113.466 46.4545 113.466 46.6153C113.466 46.776 113.593 46.9063 113.749 46.9063Z" fill="white"/>
<path d="M112.644 44.0623C112.273 44.2839 110.142 45.418 107.38 44.0566L105.625 47.1794C107.087 46.6048 108.55 46.0283 110.01 45.4537C111.472 46.0283 112.935 46.6048 114.395 47.1794C113.812 46.141 113.227 45.1026 112.644 44.0623Z" fill="white"/>
<path d="M110.262 44.0507C111.193 44.0056 111.906 43.7033 112.311 43.4911C112.315 43.4911 112.319 43.4911 112.322 43.493C111.551 42.1203 110.78 40.7477 110.008 39.375L107.707 43.4686C108.179 43.7202 109.087 44.107 110.262 44.0507Z" fill="white"/>
</g>
<defs>
<clipPath id="clip0_1692_9395">
<rect width="134.677" height="50" fill="white" transform="translate(83 35)"/>
</clipPath>
</defs>
</svg>
