<?xml version="1.0" encoding="UTF-8"?>
<svg xmlns="http://www.w3.org/2000/svg" width="80" height="93" viewBox="0 0 80 93" fill="none">
  <path d="M19.5 49L1 49L1.00001 1" stroke="#272727" stroke-linecap="round" stroke-linejoin="round"></path>
  <rect x="10.5" y="11.5" width="69" height="81" rx="8.5" fill="#D9D9D9" stroke="black"></rect>
  <path d="M11 20C11 15.5817 14.5817 12 19 12H71C75.4183 12 79 15.5817 79 20V30H11V20Z" fill="#919191"></path>
  <rect x="17" y="36" width="20" height="24" rx="1" fill="#919191"></rect>
  <rect x="40" y="41" width="20" height="2" rx="1" fill="#919191"></rect>
  <rect x="40" y="45" width="33" height="1" rx="0.5" fill="#919191"></rect>
  <rect x="40" y="48" width="26" height="1" rx="0.5" fill="#919191"></rect>
  <rect x="53" y="63" width="20" height="24" rx="1" fill="#919191"></rect>
  <rect x="30" y="68" width="20" height="2" rx="1" fill="#919191"></rect>
  <rect x="17" y="72" width="33" height="1" rx="0.5" fill="#919191"></rect>
  <rect x="24" y="75" width="26" height="1" rx="0.5" fill="#919191"></rect>
  <path d="M29.5195 25H28.3164L25.9648 20.9102V25H24.8438V19.2422H26.1055L28.3984 23.2617V19.2422H29.5195V25ZM34.1992 23.75C34.1706 24.0026 34.0391 24.2591 33.8047 24.5195C33.4401 24.9336 32.9297 25.1406 32.2734 25.1406C31.7318 25.1406 31.2539 24.9661 30.8398 24.6172C30.4258 24.2682 30.2188 23.7005 30.2188 22.9141C30.2188 22.1771 30.4049 21.612 30.7773 21.2188C31.1523 20.8255 31.638 20.6289 32.2344 20.6289C32.5885 20.6289 32.9076 20.6953 33.1914 20.8281C33.4753 20.9609 33.7096 21.1706 33.8945 21.457C34.0612 21.7096 34.1693 22.0026 34.2188 22.3359C34.2474 22.5312 34.2591 22.8125 34.2539 23.1797H31.3398C31.3555 23.6068 31.4896 23.9062 31.7422 24.0781C31.8958 24.1849 32.0807 24.2383 32.2969 24.2383C32.526 24.2383 32.7122 24.1732 32.8555 24.043C32.9336 23.9727 33.0026 23.875 33.0625 23.75H34.1992ZM33.0977 22.4453C33.0794 22.151 32.9896 21.9284 32.8281 21.7773C32.6693 21.6237 32.4714 21.5469 32.2344 21.5469C31.9766 21.5469 31.776 21.6276 31.6328 21.7891C31.4922 21.9505 31.4036 22.1693 31.3672 22.4453H33.0977ZM38.2383 25L37.5703 21.8984L36.8945 25H35.7383L34.543 20.7422H35.7383L36.4023 23.7969L37.0156 20.7422H38.1445L38.793 23.8086L39.457 20.7422H40.6172L39.3828 25H38.2383ZM44.168 20.9375C44.5013 21.151 44.6927 21.5182 44.7422 22.0391H43.6289C43.6133 21.8958 43.5729 21.7826 43.5078 21.6992C43.3854 21.5482 43.1771 21.4727 42.8828 21.4727C42.6406 21.4727 42.4674 21.5104 42.3633 21.5859C42.2617 21.6615 42.2109 21.75 42.2109 21.8516C42.2109 21.9792 42.2656 22.0716 42.375 22.1289C42.4844 22.1888 42.8711 22.2917 43.5352 22.4375C43.9779 22.5417 44.3099 22.6992 44.5312 22.9102C44.75 23.1237 44.8594 23.3906 44.8594 23.7109C44.8594 24.1328 44.7018 24.4779 44.3867 24.7461C44.0742 25.0117 43.5898 25.1445 42.9336 25.1445C42.2643 25.1445 41.7695 25.0039 41.4492 24.7227C41.1315 24.4388 40.9727 24.0781 40.9727 23.6406H42.1016C42.125 23.8385 42.1758 23.9792 42.2539 24.0625C42.3919 24.2109 42.6471 24.2852 43.0195 24.2852C43.2383 24.2852 43.4115 24.2526 43.5391 24.1875C43.6693 24.1224 43.7344 24.0247 43.7344 23.8945C43.7344 23.7695 43.6823 23.6745 43.5781 23.6094C43.474 23.5443 43.0872 23.4323 42.418 23.2734C41.9362 23.1536 41.5964 23.0039 41.3984 22.8242C41.2005 22.6471 41.1016 22.3919 41.1016 22.0586C41.1016 21.6654 41.2552 21.3281 41.5625 21.0469C41.8724 20.763 42.3073 20.6211 42.8672 20.6211C43.3984 20.6211 43.832 20.7266 44.168 20.9375ZM45.7109 19.2422H46.8242V25H45.7109V19.2422ZM51.5586 23.75C51.5299 24.0026 51.3984 24.2591 51.1641 24.5195C50.7995 24.9336 50.2891 25.1406 49.6328 25.1406C49.0911 25.1406 48.6133 24.9661 48.1992 24.6172C47.7852 24.2682 47.5781 23.7005 47.5781 22.9141C47.5781 22.1771 47.7643 21.612 48.1367 21.2188C48.5117 20.8255 48.9974 20.6289 49.5938 20.6289C49.9479 20.6289 50.2669 20.6953 50.5508 20.8281C50.8346 20.9609 51.069 21.1706 51.2539 21.457C51.4206 21.7096 51.5286 22.0026 51.5781 22.3359C51.6068 22.5312 51.6185 22.8125 51.6133 23.1797H48.6992C48.7148 23.6068 48.849 23.9062 49.1016 24.0781C49.2552 24.1849 49.4401 24.2383 49.6562 24.2383C49.8854 24.2383 50.0716 24.1732 50.2148 24.043C50.293 23.9727 50.362 23.875 50.4219 23.75H51.5586ZM50.457 22.4453C50.4388 22.151 50.349 21.9284 50.1875 21.7773C50.0286 21.6237 49.8307 21.5469 49.5938 21.5469C49.3359 21.5469 49.1354 21.6276 48.9922 21.7891C48.8516 21.9505 48.763 22.1693 48.7266 22.4453H50.457ZM54.3164 24.207V25.0391L53.7891 25.0586C53.263 25.0768 52.9036 24.9857 52.7109 24.7852C52.5859 24.6576 52.5234 24.4609 52.5234 24.1953V21.5742H51.9297V20.7812H52.5234V19.5938H53.625V20.7812H54.3164V21.5742H53.625V23.8242C53.625 23.9987 53.6471 24.1081 53.6914 24.1523C53.7357 24.194 53.8711 24.2148 54.0977 24.2148C54.1315 24.2148 54.1667 24.2148 54.2031 24.2148C54.2422 24.2122 54.2799 24.2096 54.3164 24.207ZM56.9805 24.207V25.0391L56.4531 25.0586C55.9271 25.0768 55.5677 24.9857 55.375 24.7852C55.25 24.6576 55.1875 24.4609 55.1875 24.1953V21.5742H54.5938V20.7812H55.1875V19.5938H56.2891V20.7812H56.9805V21.5742H56.2891V23.8242C56.2891 23.9987 56.3112 24.1081 56.3555 24.1523C56.3997 24.194 56.5352 24.2148 56.7617 24.2148C56.7956 24.2148 56.8307 24.2148 56.8672 24.2148C56.9062 24.2122 56.944 24.2096 56.9805 24.207ZM61.3398 23.75C61.3112 24.0026 61.1797 24.2591 60.9453 24.5195C60.5807 24.9336 60.0703 25.1406 59.4141 25.1406C58.8724 25.1406 58.3945 24.9661 57.9805 24.6172C57.5664 24.2682 57.3594 23.7005 57.3594 22.9141C57.3594 22.1771 57.5456 21.612 57.918 21.2188C58.293 20.8255 58.7786 20.6289 59.375 20.6289C59.7292 20.6289 60.0482 20.6953 60.332 20.8281C60.6159 20.9609 60.8503 21.1706 61.0352 21.457C61.2018 21.7096 61.3099 22.0026 61.3594 22.3359C61.388 22.5312 61.3997 22.8125 61.3945 23.1797H58.4805C58.4961 23.6068 58.6302 23.9062 58.8828 24.0781C59.0365 24.1849 59.2214 24.2383 59.4375 24.2383C59.6667 24.2383 59.8529 24.1732 59.9961 24.043C60.0742 23.9727 60.1432 23.875 60.2031 23.75H61.3398ZM60.2383 22.4453C60.2201 22.151 60.1302 21.9284 59.9688 21.7773C59.8099 21.6237 59.612 21.5469 59.375 21.5469C59.1172 21.5469 58.9167 21.6276 58.7734 21.7891C58.6328 21.9505 58.5443 22.1693 58.5078 22.4453H60.2383ZM64.2891 21.7695C63.8411 21.7695 63.5404 21.9154 63.3867 22.207C63.3008 22.3711 63.2578 22.6237 63.2578 22.9648V25H62.1367V20.7422H63.1992V21.4844C63.3711 21.2005 63.5208 21.0065 63.6484 20.9023C63.8568 20.7279 64.1276 20.6406 64.4609 20.6406C64.4818 20.6406 64.4987 20.6419 64.5117 20.6445C64.5273 20.6445 64.5599 20.6458 64.6094 20.6484V21.7891C64.5391 21.7812 64.4766 21.776 64.4219 21.7734C64.3672 21.7708 64.3229 21.7695 64.2891 21.7695Z" fill="#D9D9D9"></path>
</svg>
