<?xml version="1.0" encoding="UTF-8"?>
<svg xmlns="http://www.w3.org/2000/svg" width="199" height="170" viewBox="0 0 199 170" fill="none">
  <g filter="url(#filter0_d_626_5745)">
    <path d="M80.7447 166V153.034H67.7837V140.061H54.8298V127.095H41.8688V114.122H28.9149V101.156H15.9538V88.1906H3V24.692H15.9538V13.346H28.9149V2H92.3476V13.346H106.652V2H170.092V13.346H183.046V26.3191H196V88.1906H183.046V101.156H170.092V114.122H157.131V127.095H144.177V140.061H131.216V153.034H118.262V166H80.7447Z" fill="#F2F2F2"></path>
  </g>
  <path d="M41.1973 14.2935H80.066V25.6395H41.1973V14.2935Z" fill="#2C2C2C"></path>
  <path d="M118.935 14.2935H157.803V25.6395H118.935V14.2935Z" fill="#2C2C2C"></path>
  <path d="M28.2363 25.6396H41.1902V36.9857H28.2363V25.6396Z" fill="#2C2C2C"></path>
  <path d="M15.2822 36.9854H28.2361V75.8901H15.2822V36.9854Z" fill="#2C2C2C"></path>
  <path d="M170.765 38.6123H183.718V75.8972H170.765V38.6123Z" fill="#2C2C2C"></path>
  <path d="M28.2363 75.8975H41.1902V88.8633H28.2363V75.8975Z" fill="#2C2C2C"></path>
  <path d="M41.1973 88.8633H54.1511V101.829H41.1973V88.8633Z" fill="#2C2C2C"></path>
  <path d="M54.1514 101.836H67.1052V114.802H54.1514V101.836Z" fill="#2C2C2C"></path>
  <path d="M67.1123 114.802H80.0661V127.768H67.1123V114.802Z" fill="#2C2C2C"></path>
  <path d="M80.0654 127.768H93.0193V140.734H80.0654V127.768Z" fill="#2C2C2C"></path>
  <path d="M93.0273 140.741H105.981V153.707H93.0273V140.741Z" fill="#2C2C2C"></path>
  <path d="M105.98 127.768H118.934V140.734H105.98V127.768Z" fill="#2C2C2C"></path>
  <path d="M118.935 114.802H131.888V127.768H118.935V114.802Z" fill="#2C2C2C"></path>
  <path d="M131.896 101.836H144.849V114.802H131.896V101.836Z" fill="#2C2C2C"></path>
  <path d="M144.85 88.8633H157.803V101.829H144.85V88.8633Z" fill="#2C2C2C"></path>
  <path d="M157.811 75.8975H170.764V88.8633H157.811V75.8975Z" fill="#2C2C2C"></path>
  <path d="M157.811 25.6396H170.764V38.6055H157.811V25.6396Z" fill="#2C2C2C"></path>
  <path d="M105.98 25.6396H118.934V38.6055H105.98V25.6396Z" fill="#2C2C2C"></path>
  <path d="M80.0654 25.6396H93.0193V38.6055H80.0654V25.6396Z" fill="#2C2C2C"></path>
  <path d="M93.0273 38.6123H105.981V51.5781H93.0273V38.6123Z" fill="#2C2C2C"></path>
  <path d="M41.1973 14.2935H80.066V25.6395H41.1973V14.2935Z" fill="#2C2C2C"></path>
  <path d="M118.935 14.2935H157.803V25.6395H118.935V14.2935Z" fill="#2C2C2C"></path>
  <path d="M28.2363 25.6396H41.1902V36.9857H28.2363V25.6396Z" fill="#2C2C2C"></path>
  <path d="M15.2822 36.9854H28.2361V75.8901H15.2822V36.9854Z" fill="#2C2C2C"></path>
  <path d="M170.765 38.6123H183.718V75.8972H170.765V38.6123Z" fill="#2C2C2C"></path>
  <path d="M28.2363 75.8975H41.1902V88.8633H28.2363V75.8975Z" fill="#2C2C2C"></path>
  <path d="M41.1973 88.8633H54.1511V101.829H41.1973V88.8633Z" fill="#2C2C2C"></path>
  <path d="M54.1514 101.836H67.1052V114.802H54.1514V101.836Z" fill="#2C2C2C"></path>
  <path d="M67.1123 114.802H80.0661V127.768H67.1123V114.802Z" fill="#2C2C2C"></path>
  <path d="M80.0654 127.768H93.0193V140.734H80.0654V127.768Z" fill="#2C2C2C"></path>
  <path d="M93.0273 140.741H105.981V153.707H93.0273V140.741Z" fill="#2C2C2C"></path>
  <path d="M105.98 127.768H118.934V140.734H105.98V127.768Z" fill="#2C2C2C"></path>
  <path d="M118.935 114.802H131.888V127.768H118.935V114.802Z" fill="#2C2C2C"></path>
  <path d="M131.896 101.836H144.849V114.802H131.896V101.836Z" fill="#2C2C2C"></path>
  <path d="M144.85 88.8633H157.803V101.829H144.85V88.8633Z" fill="#2C2C2C"></path>
  <path d="M157.811 75.8975H170.764V88.8633H157.811V75.8975Z" fill="#2C2C2C"></path>
  <path d="M157.811 25.6396H170.764V38.6055H157.811V25.6396Z" fill="#2C2C2C"></path>
  <path d="M105.98 25.6396H118.934V38.6055H105.98V25.6396Z" fill="#2C2C2C"></path>
  <path d="M80.0654 25.6396H93.0193V38.6055H80.0654V25.6396Z" fill="#2C2C2C"></path>
  <path d="M93.0273 38.6123H105.981V51.5781H93.0273V38.6123Z" fill="#2C2C2C"></path>
  <path fill-rule="evenodd" clip-rule="evenodd" d="M80.0513 26H41.197V36.9853V37.346H28.2432V75.8901H41.197V76.2507V88.8559H54.1509V89.2165V101.822H67.1047V102.182V114.788H80.0585V115.148V127.753H93.0124V128.114V140.719H105.966V128.114V127.753H118.92V115.148V114.788H131.874V102.182V101.822H144.828V89.2165V88.8559H157.782V76.2507V75.8901H170.735V38.9658H157.782V38.6052V26H118.913V38.6052V38.9658H105.959V51.571V51.9317H93.0052V51.571V38.9658H80.0513V38.6052V26Z" fill="#FF7262"></path>
  <path d="M41.1973 38.6127H67.1122V51.5785H54.1583V63.7344H41.2045V38.6055L41.1973 38.6127Z" fill="#F2F2F2"></path>
  <defs>
    <filter id="filter0_d_626_5745" x="0" y="0" width="199" height="170" color-interpolation-filters="sRGB">
      <feFlood flood-opacity="0" result="BackgroundImageFix"></feFlood>
      <feColorMatrix in="SourceAlpha" type="matrix" values="0 0 0 0 0 0 0 0 0 0 0 0 0 0 0 0 0 0 127 0" result="hardAlpha"></feColorMatrix>
      <feOffset dy="1"></feOffset>
      <feGaussianBlur stdDeviation="1.5"></feGaussianBlur>
      <feComposite in2="hardAlpha" operator="out"></feComposite>
      <feColorMatrix type="matrix" values="0 0 0 0 0 0 0 0 0 0 0 0 0 0 0 0 0 0 0.22 0"></feColorMatrix>
      <feBlend mode="normal" in2="BackgroundImageFix" result="effect1_dropShadow_626_5745"></feBlend>
      <feBlend mode="normal" in="SourceGraphic" in2="effect1_dropShadow_626_5745" result="shape"></feBlend>
    </filter>
  </defs>
</svg>
