<svg width="300" height="120" viewBox="0 0 300 120" fill="none" xmlns="http://www.w3.org/2000/svg">
<path d="M208.087 56.02C208.004 57.0553 208.024 58.1031 208.082 59.1434C208.129 60.0153 207.794 60.3294 206.935 60.3093C205.197 60.2666 203.458 60.2968 201.611 60.2968C201.576 60.837 201.531 61.2365 201.531 61.6336C201.526 66.0108 201.616 70.3881 201.501 74.7603C201.408 78.228 203.145 79.1853 206.525 78.3662C207 78.2531 207.455 78.0672 208.059 77.8661C208.059 79.7608 208.102 81.5448 208.022 83.3239C208.009 83.633 207.544 84.0702 207.2 84.1858C206.19 84.5275 205.137 84.7386 204.1 84.9999H202.356C201.711 84.8667 201.066 84.7411 200.426 84.5979C196.489 83.7234 194.237 80.9719 194.2 76.8409C194.155 71.8807 194.187 66.9205 194.185 61.9627V60.2968C192.967 60.2968 191.895 60.2616 190.828 60.3068C189.953 60.347 189.656 59.9977 189.701 59.1333C189.763 58.0101 189.763 56.8794 189.701 55.7587C189.656 54.9069 190.013 54.6531 190.793 54.6958C191.498 54.736 192.21 54.6631 192.913 54.7134C193.852 54.7787 194.242 54.4747 194.207 53.4469C194.132 51.2055 194.185 48.9591 194.185 46.6172H201.493V54.7033C203.355 54.7033 205.05 54.7536 206.74 54.6857C207.759 54.643 208.169 54.9596 208.087 56.02Z" fill="white"/>
<path d="M124.491 83.471C124.491 83.5515 124.441 83.6294 124.381 83.8153H117.1V82.3529C117.102 76.7695 117.117 71.1835 117.09 65.6002C117.085 64.6503 116.995 63.6779 116.772 62.7582C116.078 59.9012 113.631 58.2955 110.311 58.4689C109.569 58.5091 108.834 58.6649 108.097 58.7729C106.132 59.0644 105.125 60.0494 104.66 62.1526C103.163 68.9246 101.373 75.6312 99.7484 82.373C99.4735 83.5213 99.0386 84.044 97.7588 83.9535C95.9067 83.8228 94.0371 83.9183 92 83.9183C92.6099 81.3955 93.1773 79.0234 93.7596 76.6564C97.054 63.306 100.363 49.9631 103.623 36.6052C103.9 35.4719 104.28 34.9191 105.57 35.0096C107.424 35.1402 109.294 35.0422 111.399 35.0422C109.874 41.2186 108.404 47.1689 106.864 53.4056C107.542 53.1996 107.984 53.0589 108.429 52.9332C112.123 51.8904 115.805 51.7045 119.364 53.3855C122.844 55.0289 124.268 58.1874 124.381 61.7229C124.611 68.9673 124.478 76.2217 124.491 83.471Z" fill="white"/>
<path d="M186.043 55.7027C185.968 62.0776 186.07 68.4601 185.815 74.8275C185.615 79.8732 182.553 83.2503 177.602 84.3183C174.358 85.0193 171.078 84.9942 167.871 84.0167C163.202 82.5945 160.478 79.1872 160.333 74.0008C160.153 67.6711 160.29 61.3313 160.29 54.7252C162.507 54.7252 164.615 54.6876 166.714 54.7805C166.937 54.7906 167.299 55.5695 167.302 55.9942C167.341 61.3288 167.314 66.666 167.344 72.0006C167.349 72.9932 167.424 74.0083 167.656 74.9682C168.066 76.6618 169.114 77.9685 170.856 78.2775C172.335 78.5389 173.933 78.6595 175.395 78.3881C177.819 77.9408 179.169 76.0763 179.209 73.3651C179.287 67.6962 179.259 62.0249 179.274 56.356C179.277 54.7026 179.277 54.6976 180.899 54.6926C182.268 54.6901 183.641 54.7202 185.013 54.6901C185.748 54.675 186.053 54.9338 186.043 55.7027Z" fill="white"/>
<path d="M155.189 65.364C155.189 68.1155 155.241 70.867 155.176 73.6159C155.029 80.0637 151.382 84.0339 144.964 84.6244C142.279 84.8732 139.575 84.8556 136.95 83.9862C132.511 82.5187 129.702 79.0059 129.614 74.3371C129.499 68.1305 129.589 61.9189 129.559 55.7099C129.554 54.9209 129.872 54.7022 130.591 54.7148C132.169 54.7424 133.751 54.7651 135.328 54.7048C136.29 54.6671 136.52 55.0741 136.515 55.9637C136.488 61.0043 136.493 66.0474 136.513 71.0906C136.515 72.0882 136.573 73.0908 136.698 74.0783C137.083 77.1162 139.49 78.8903 142.891 78.6842C146.701 78.4556 148.515 76.5685 148.538 72.6963C148.57 67.236 148.55 61.7782 148.555 56.318C148.555 55.2509 149.106 54.7156 150.207 54.7123C151.495 54.7123 152.784 54.75 154.069 54.6997C154.944 54.6646 155.224 55.0038 155.214 55.8631C155.179 59.0293 155.201 62.1979 155.201 65.364H155.189Z" fill="white"/>
</svg>
