<?xml version="1.0" encoding="UTF-8"?>
<svg xmlns="http://www.w3.org/2000/svg" width="300" height="120" viewBox="0 0 300 120" fill="none">
  <path d="M234.985 53.7822C234.864 55.2982 234.894 56.8325 234.978 58.3558C235.047 59.6326 234.557 60.0925 233.298 60.0631C230.754 60.0005 228.207 60.0447 225.502 60.0447C225.451 60.8358 225.385 61.4208 225.385 62.0021C225.378 68.4118 225.509 74.8214 225.341 81.2237C225.206 86.3013 227.749 87.7032 232.698 86.5037C233.393 86.3381 234.059 86.0658 234.945 85.7715C234.945 88.5458 235.007 91.1582 234.89 93.7633C234.872 94.2158 234.191 94.8561 233.686 95.0253C232.207 95.5257 230.666 95.8348 229.147 96.2175H226.593C225.648 96.0225 224.704 95.8385 223.767 95.6288C218.003 94.3483 214.705 90.3193 214.65 84.2703C214.584 77.007 214.632 69.7437 214.628 62.4841V60.0447C212.846 60.0447 211.276 59.9932 209.713 60.0594C208.432 60.1183 207.996 59.6068 208.062 58.3411C208.154 56.6964 208.154 55.0406 208.062 53.3996C207.996 52.1522 208.52 51.7806 209.662 51.8431C210.694 51.902 211.737 51.7953 212.765 51.8689C214.141 51.9646 214.712 51.5194 214.661 50.0145C214.551 46.7324 214.628 43.4429 214.628 40.0137H225.33V51.8542C228.057 51.8542 230.538 51.9278 233.012 51.8284C234.506 51.7659 235.106 52.2295 234.985 53.7822Z" fill="#C6C6C6"></path>
  <path d="M112.576 93.9761C112.576 94.0939 112.503 94.2079 112.415 94.4802H101.754V92.3388C101.757 84.163 101.779 75.9835 101.739 67.8078C101.732 66.4169 101.6 64.993 101.274 63.6463C100.257 59.4628 96.6736 57.1116 91.8131 57.3655C90.7261 57.4243 89.6501 57.6525 88.5704 57.8107C85.6936 58.2375 84.2186 59.6798 83.5379 62.7596C81.3455 72.6757 78.725 82.4962 76.346 92.3682C75.9434 94.0497 75.3066 94.815 73.4326 94.6826C70.7206 94.4912 67.9829 94.6311 65 94.6311C65.893 90.9369 66.7239 87.4635 67.5766 83.9974C72.4005 64.4484 77.2464 44.9105 82.019 25.3505C82.4252 23.691 82.9816 22.8815 84.8701 23.014C87.5858 23.2053 90.3235 23.0618 93.4052 23.0618C91.1726 32.106 89.0206 40.8189 86.766 49.9513C87.7579 49.6496 88.4057 49.4436 89.0572 49.2596C94.4666 47.7326 99.8578 47.4604 105.07 49.9219C110.164 52.3283 112.251 56.9534 112.415 62.1304C112.752 72.7383 112.558 83.3609 112.576 93.9761Z" fill="#C6C6C6"></path>
  <path d="M202.707 53.3148C202.597 62.6496 202.747 71.9954 202.374 81.3192C202.081 88.7075 197.598 93.6527 190.347 95.2165C185.597 96.2431 180.795 96.2063 176.099 94.775C169.262 92.6924 165.273 87.703 165.06 80.1086C164.797 70.8401 164.998 61.5568 164.998 51.8835C168.245 51.8835 171.33 51.8283 174.404 51.9644C174.73 51.9791 175.261 53.1198 175.265 53.7416C175.323 61.5531 175.283 69.3683 175.327 77.1798C175.334 78.6332 175.444 80.1197 175.784 81.5252C176.384 84.0052 177.918 85.9185 180.469 86.3711C182.636 86.7537 184.974 86.9304 187.116 86.533C190.666 85.878 192.642 83.1479 192.701 79.1777C192.814 70.8769 192.774 62.5723 192.796 54.2714C192.8 51.8504 192.8 51.843 195.175 51.8356C197.181 51.832 199.19 51.8761 201.199 51.832C202.275 51.8099 202.722 52.1889 202.707 53.3148Z" fill="#C6C6C6"></path>
  <path d="M157.528 67.462C157.528 71.491 157.605 75.52 157.51 79.5454C157.294 88.9869 151.954 94.8004 142.555 95.6651C138.625 96.0294 134.664 96.0036 130.821 94.7305C124.321 92.5817 120.208 87.4378 120.079 80.6014C119.911 71.5131 120.043 62.4175 119.999 53.3255C119.992 52.1702 120.456 51.8501 121.51 51.8685C123.82 51.9089 126.137 51.942 128.446 51.8537C129.855 51.7985 130.192 52.3946 130.185 53.6972C130.144 61.0782 130.152 68.4628 130.181 75.8475C130.185 77.3083 130.269 78.7764 130.452 80.2224C131.015 84.6709 134.54 87.2686 139.521 86.9669C145.099 86.632 147.756 83.8687 147.789 78.1987C147.837 70.2032 147.808 62.2114 147.815 54.216C147.815 52.6534 148.621 51.8697 150.234 51.8648C152.119 51.8648 154.008 51.92 155.889 51.8464C157.17 51.7949 157.58 52.2916 157.565 53.55C157.514 58.1861 157.547 62.8259 157.547 67.462H157.528Z" fill="#C6C6C6"></path>
</svg>
