<?xml version="1.0" encoding="UTF-8"?>
<svg xmlns="http://www.w3.org/2000/svg" width="249" height="136" viewBox="0 0 249 136" fill="none">
  <path d="M106 103L124 103L124 55" stroke="#272727" stroke-linecap="round" stroke-linejoin="round"></path>
  <path d="M142.5 103L124 103L124 55" stroke="#272727" stroke-linecap="round" stroke-linejoin="round"></path>
  <rect x="61.5" y="0.5" width="125" height="56" rx="7.5" fill="#FADC4B" stroke="black"></rect>
  <rect x="77" y="20" width="94" height="1" rx="0.5" fill="#272727"></rect>
  <rect x="77" y="28" width="50" height="1" rx="0.5" fill="#272727"></rect>
  <rect x="77" y="36" width="86" height="1" rx="0.5" fill="#272727"></rect>
  <rect x="135.5" y="79.5" width="113" height="56" rx="7.5" fill="#5185F7" stroke="black"></rect>
  <rect x="147" y="96" width="94" height="1" rx="0.5" fill="#272727"></rect>
  <rect x="147" y="104" width="50" height="1" rx="0.5" fill="#272727"></rect>
  <rect x="147" y="112" width="86" height="1" rx="0.5" fill="#272727"></rect>
  <rect x="0.5" y="79.5" width="114" height="56" rx="7.5" fill="#FF6622" stroke="black"></rect>
  <rect x="12" y="113" width="94" height="1" rx="0.5" fill="#272727"></rect>
  <rect x="12" y="93" width="50" height="15" rx="1" fill="#272727"></rect>
  <rect x="104" y="87" width="2" height="2" rx="1" fill="#272727"></rect>
  <rect x="101" y="87" width="2" height="2" rx="1" fill="#272727"></rect>
  <rect x="98" y="87" width="2" height="2" rx="1" fill="#272727"></rect>
  <rect x="12" y="117" width="49" height="1" rx="0.5" fill="#272727"></rect>
  <rect x="12" y="121" width="70" height="1" rx="0.5" fill="#272727"></rect>
</svg>
