<svg width="300" height="120" viewBox="0 0 300 120" fill="none" xmlns="http://www.w3.org/2000/svg">
<path d="M111.811 37.5728C111.626 37.6664 111.319 37.7757 110.888 37.9005C110.458 38.0253 109.996 38.1345 109.504 38.2282C109.012 38.3218 108.536 38.3842 108.074 38.4154C107.613 38.4466 107.26 38.4154 107.014 38.3218C106.768 38.2282 106.675 38.0565 106.737 37.8069C106.829 37.5572 107.152 37.1983 107.705 36.7302C108.966 35.8564 110.181 35.0451 111.35 34.2961C112.549 33.5472 113.794 32.9542 115.086 32.5173C115.639 32.3301 116.162 32.3457 116.654 32.5641C117.146 32.7826 117.561 33.1259 117.9 33.594C118.269 34.0309 118.545 34.5614 118.73 35.1855C118.914 35.7784 118.961 36.3558 118.868 36.9175C118.838 37.0423 118.776 37.1515 118.684 37.2451C118.622 37.3076 118.561 37.4012 118.499 37.526C117.515 39.2736 116.454 41.1928 115.316 43.2836C114.179 45.3745 113.056 47.5589 111.949 49.837C110.842 52.0839 109.781 54.362 108.766 56.6713C107.782 58.9806 106.952 61.2275 106.275 63.4119L106.137 64.1609C107.921 63.8176 109.858 63.4587 111.949 63.0843C114.04 62.7098 116.131 62.4757 118.223 62.3821C120.344 62.2885 122.374 62.4289 124.311 62.8034C126.279 63.1467 128.017 63.88 129.524 65.0035C129.647 65.0971 129.77 65.2375 129.893 65.4248C130.016 65.5808 130.108 65.768 130.17 65.9865C130.231 66.1737 130.231 66.3454 130.17 66.5014C130.139 66.6574 130.016 66.751 129.801 66.7822C127.34 66.2829 124.85 66.0177 122.328 65.9865C119.837 65.9241 117.346 66.0177 114.855 66.2673C112.364 66.5482 109.904 66.9695 107.475 67.5312C105.076 68.0929 102.77 68.7327 100.556 69.4504C100.279 69.544 99.956 69.6064 99.587 69.6377C99.2487 69.6689 98.9105 69.6377 98.5722 69.544C98.2339 69.4816 97.9264 69.3568 97.6496 69.1696C97.3729 68.9823 97.1884 68.7327 97.0961 68.4206C96.9423 67.9837 96.9731 67.5468 97.1884 67.1099C97.4036 66.7042 97.7265 66.4234 98.157 66.2673C98.8336 66.0177 99.5101 65.7836 100.187 65.5652C100.863 65.3467 101.524 65.1439 102.17 64.9567C102.508 64.863 102.693 64.6602 102.724 64.3481C103.154 61.7268 103.831 59.0742 104.753 56.3904C105.707 53.7067 106.737 51.1321 107.844 48.6668C108.982 46.1702 110.119 43.861 111.257 41.7389C112.395 39.6169 113.41 37.8225 114.302 36.3558C113.871 36.543 113.456 36.7458 113.056 36.9643C112.656 37.1827 112.241 37.3856 111.811 37.5728Z" fill="white"/>
<path d="M142.531 56.2032L143.084 55.6415H143.13V55.7351C143.192 56.4528 143.13 56.999 142.946 57.3734C142.761 57.7167 142.669 57.904 142.669 57.9352C142.362 58.4033 141.946 59.0118 141.424 59.7607C140.901 60.4785 140.347 61.2275 139.763 62.0076C139.21 62.7566 138.671 63.4587 138.149 64.1141C137.626 64.7382 137.211 65.1907 136.903 65.4716C136.534 65.9085 136.134 66.3141 135.704 66.6886C135.55 66.8135 135.335 66.9227 135.058 67.0163C134.812 67.1099 134.551 67.1723 134.274 67.2035C133.997 67.2659 133.72 67.2816 133.444 67.2503C133.198 67.2191 132.998 67.1411 132.844 67.0163C132.321 66.673 131.921 66.2673 131.645 65.7992C131.337 65.2999 131.183 64.7694 131.183 64.2077C131.091 62.4913 131.245 60.7438 131.645 58.965C132.014 57.155 132.46 55.5166 132.982 54.0499C133.136 53.613 133.351 53.1605 133.628 52.6924C133.905 52.4116 134.228 52.3336 134.597 52.4584C134.966 52.5832 135.289 52.8485 135.565 53.2542C135.873 53.6286 136.088 54.0967 136.211 54.6585C136.365 55.2202 136.35 55.7819 136.165 56.3436C136.011 56.8741 135.873 57.389 135.75 57.8883C135.627 58.3564 135.489 58.8558 135.335 59.3863C135.273 59.6359 135.166 59.9948 135.012 60.4629C134.889 60.931 134.751 61.4303 134.597 61.9608C134.443 62.4601 134.305 62.9438 134.182 63.4119C134.059 63.88 133.982 64.2389 133.951 64.4886C133.889 64.9567 134.012 65.0815 134.32 64.863C134.628 64.6446 135.043 64.2701 135.565 63.7396C136.826 62.4289 138.026 61.165 139.163 59.948C140.301 58.6997 141.424 57.4515 142.531 56.2032ZM136.073 50.586C135.858 50.8044 135.704 50.8044 135.612 50.586C135.212 49.9619 134.95 49.3065 134.827 48.62C134.704 47.9334 134.766 47.2469 135.012 46.5603C135.135 46.1546 135.396 45.827 135.796 45.5773C136.227 45.2965 136.611 45.2028 136.949 45.2965C137.134 45.3589 137.334 45.4681 137.549 45.6241C137.764 45.749 137.903 45.905 137.964 46.0922C138.179 46.9348 138.056 47.7462 137.595 48.5264C137.165 49.3065 136.657 49.9931 136.073 50.586Z" fill="white"/>
<path d="M145.153 62.1949C145.43 62.4133 145.706 62.3665 145.983 62.0544C146.26 61.7112 146.537 61.2119 146.813 60.5565C147.121 59.87 147.413 59.0742 147.69 58.1692C147.967 57.233 148.259 56.3124 148.566 55.4074C148.904 54.4712 149.243 53.5818 149.581 52.7393C149.95 51.8655 150.35 51.1477 150.78 50.586C150.934 50.3051 151.18 50.0711 151.518 49.8838C151.887 49.6966 152.21 49.6654 152.487 49.7902C152.733 49.8526 152.933 50.0087 153.087 50.2583C153.24 50.508 153.287 50.7732 153.225 51.0541C153.225 51.2413 153.225 51.4442 153.225 51.6626C153.225 51.8499 153.256 52.0683 153.317 52.318C153.502 53.0357 153.855 53.5818 154.378 53.9563C154.901 54.3308 155.485 54.596 156.131 54.7521C156.808 54.9081 157.484 54.9705 158.161 54.9393C158.868 54.8769 159.498 54.7677 160.052 54.6117C160.144 54.6117 160.252 54.596 160.375 54.5648C160.529 54.5336 160.652 54.5336 160.744 54.5648C160.867 54.5648 160.944 54.596 160.975 54.6585C161.005 54.7209 160.944 54.8301 160.79 54.9861C160.206 55.6103 159.545 56.0628 158.807 56.3436C158.099 56.5933 157.377 56.7025 156.639 56.6713C155.9 56.6089 155.178 56.406 154.471 56.0628C153.763 55.7195 153.133 55.267 152.579 54.7053C152.303 55.2982 151.934 56.1252 151.472 57.1862C151.011 58.216 150.488 59.277 149.904 60.3693C149.35 61.4615 148.751 62.4601 148.105 63.3651C147.459 64.2389 146.798 64.8006 146.121 65.0503C145.291 65.3311 144.599 65.3155 144.046 65.0035C143.492 64.6602 143.046 64.1765 142.708 63.5524C142.37 62.9282 142.139 62.2261 142.016 61.4459C141.862 60.6657 141.785 59.9948 141.785 59.4331V57.2798C141.785 56.8117 141.801 56.3748 141.832 55.9691C141.862 55.5322 141.908 55.0798 141.97 54.6117C141.97 54.2684 141.985 53.9251 142.016 53.5818C142.047 53.2386 142.093 52.8797 142.154 52.5052C142.154 52.3492 142.185 52.2399 142.247 52.1775C142.339 52.0839 142.447 52.0683 142.57 52.1307C143.461 52.2868 144.123 52.6924 144.553 53.3478C144.984 54.0031 145.199 54.7365 145.199 55.5478C145.199 56.0159 145.168 56.5465 145.107 57.1394C145.045 57.7323 144.984 58.3408 144.922 58.965C144.891 59.5891 144.876 60.182 144.876 60.7438C144.876 61.2743 144.938 61.7268 145.061 62.1012C145.061 62.1637 145.076 62.1949 145.107 62.1949H145.153Z" fill="white"/>
<path d="M157.708 61.914C157.647 60.7282 157.77 59.4955 158.077 58.216C158.385 56.9365 158.846 55.7663 159.461 54.7053C160.076 53.613 160.845 52.7236 161.767 52.0371C162.721 51.3506 163.828 50.9917 165.089 50.9605C165.734 51.1165 166.226 51.4442 166.565 51.9435C166.934 52.4428 167.041 53.0513 166.888 53.7691C166.764 54.4556 166.58 55.0485 166.334 55.5478C166.119 56.0159 165.734 56.5153 165.181 57.0458C164.904 57.2954 164.52 57.6231 164.028 58.0288C163.536 58.4345 163.059 58.8558 162.598 59.2926C162.136 59.7295 161.737 60.182 161.398 60.6501C161.06 61.087 160.891 61.4615 160.891 61.7736C160.799 62.585 160.922 63.1155 161.26 63.3651C161.598 63.5836 162.029 63.6772 162.552 63.646C163.105 63.5836 163.659 63.4275 164.212 63.1779C164.766 62.9282 165.212 62.7098 165.55 62.5225C165.95 62.2417 166.395 61.8984 166.888 61.4927C167.38 61.0558 167.872 60.6033 168.364 60.1352C168.856 59.6671 169.332 59.2146 169.794 58.7777C170.255 58.3408 170.639 57.982 170.947 57.7011C171.193 57.4515 171.408 57.2174 171.593 56.999C171.808 56.7805 172.054 56.5933 172.331 56.4372C172.577 56.3748 172.761 56.3592 172.884 56.3904C173.038 56.4216 173.022 56.6557 172.838 57.0926C172.592 57.6231 172.284 58.1224 171.915 58.5905C171.577 59.0586 171.208 59.5267 170.808 59.9948C170.255 60.6189 169.655 61.2743 169.009 61.9608C168.394 62.6474 167.733 63.2871 167.026 63.88C166.349 64.4417 165.627 64.9411 164.858 65.3779C164.12 65.7836 163.351 66.0489 162.552 66.1737C161.137 66.2673 159.968 65.9709 159.046 65.2843C158.154 64.5978 157.708 63.4743 157.708 61.914ZM165.089 53.1137C164.258 53.4258 163.597 53.8315 163.105 54.3308C162.644 54.8301 162.305 55.5635 162.09 56.5309C162.767 56.0316 163.366 55.5322 163.889 55.0329C164.443 54.5024 164.843 53.8627 165.089 53.1137Z" fill="white"/>
<path d="M173.144 67.2035C173.297 67.5156 173.497 67.6716 173.743 67.6716C174.02 67.7028 174.281 67.6404 174.527 67.4844C175.45 66.673 176.326 65.7992 177.157 64.863C177.987 63.9268 178.771 62.9906 179.509 62.0544C180.278 61.1182 181.016 60.2132 181.723 59.3395C182.461 58.4345 183.169 57.6231 183.845 56.9053C184.091 56.6557 184.276 56.6089 184.399 56.7649C184.552 56.8897 184.583 57.0926 184.491 57.3734C184.06 58.0912 183.63 58.7933 183.199 59.4799C182.769 60.1352 182.323 60.8062 181.862 61.4927C180.908 62.8658 179.924 64.3325 178.91 65.8929C177.925 67.4532 176.834 68.7795 175.634 69.8717C174.896 70.5583 174.097 70.9483 173.236 71.042C172.436 71.0107 171.683 70.7455 170.976 70.2462C170.268 69.7781 169.853 69.1384 169.73 68.327C169.546 66.4234 169.576 64.5042 169.822 62.5694C170.099 60.3225 170.545 57.9976 171.16 55.5947C171.775 53.1917 172.513 50.8044 173.374 48.4327C174.266 46.061 175.235 43.7517 176.28 41.5049C177.326 39.258 178.417 37.1671 179.555 35.2323C180.078 34.3897 180.601 33.594 181.124 32.845C181.646 32.0648 182.2 31.3471 182.784 30.6917C182.999 30.4109 183.261 30.208 183.568 30.0832C183.907 29.9584 184.245 29.974 184.583 30.13C185.26 30.4421 185.552 31.0194 185.46 31.862C185.244 33.7032 184.86 35.4976 184.306 37.2451C183.784 38.9927 183.138 40.6779 182.369 42.3006C181.6 43.9234 180.739 45.4837 179.786 46.9816C178.833 48.4795 177.818 49.8994 176.742 51.2413C176.649 51.335 176.572 51.4442 176.511 51.569C176.48 51.6938 176.434 51.8187 176.372 51.9435C175.911 53.1917 175.45 54.5648 174.989 56.0628C174.558 57.5607 174.174 59.0274 173.835 60.4629C173.528 61.8672 173.297 63.1779 173.144 64.3949C173.021 65.612 173.021 66.5482 173.144 67.2035ZM184.491 34.0621C183.169 36.3089 181.985 38.6182 180.939 40.9899C179.894 43.3617 178.848 45.7334 177.802 48.1051C178.079 47.8242 178.417 47.3561 178.817 46.7008C179.248 46.0142 179.694 45.2497 180.155 44.4071C180.616 43.5333 181.078 42.5971 181.539 41.5985C182 40.5999 182.431 39.6325 182.83 38.6963C183.23 37.7601 183.584 36.8863 183.891 36.0749C184.199 35.2323 184.399 34.5614 184.491 34.0621Z" fill="white"/>
<path d="M186.416 64.8162C185.617 64.9723 184.863 64.8474 184.156 64.4417C183.48 64.0361 183.064 63.4275 182.911 62.6162C182.788 61.9296 182.726 61.1494 182.726 60.2757C182.726 59.4019 182.772 58.5281 182.865 57.6543C182.957 56.7493 183.08 55.8755 183.234 55.0329C183.418 54.1904 183.603 53.4414 183.787 52.7861C183.941 52.5052 184.172 52.3648 184.479 52.3648C184.817 52.3648 185.156 52.4428 185.494 52.5988C185.863 52.7236 186.17 52.8953 186.416 53.1137C186.693 53.3322 186.862 53.5506 186.924 53.7691C187.016 54.1748 186.924 54.8301 186.647 55.7351C186.401 56.6089 186.124 57.5295 185.817 58.4969C185.509 59.4643 185.263 60.3693 185.079 61.2119C184.894 62.0232 184.925 62.5381 185.171 62.7566C185.386 62.975 185.663 62.9282 186.001 62.6162C186.37 62.2729 186.755 61.7892 187.154 61.165C187.554 60.5097 187.969 59.7607 188.4 58.9182C188.83 58.0444 189.246 57.1862 189.645 56.3436C190.076 55.501 190.46 54.7209 190.799 54.0031C191.137 53.2854 191.414 52.7393 191.629 52.3648C191.69 52.2399 191.829 52.1931 192.044 52.2243C192.29 52.2243 192.536 52.2868 192.782 52.4116C193.028 52.5364 193.259 52.708 193.474 52.9265C193.689 53.1137 193.828 53.3322 193.889 53.5818C194.166 54.6741 194.258 55.8599 194.166 57.1394C194.074 58.3877 193.904 59.5735 193.658 60.6969C194.796 59.792 195.903 58.9806 196.98 58.2628C198.087 57.5451 199.271 56.9053 200.531 56.3436C200.654 56.25 200.885 56.1876 201.223 56.1564C201.592 56.094 201.9 56.0784 202.146 56.1096C202.392 56.1408 202.515 56.25 202.515 56.4372C202.546 56.5933 202.269 56.8585 201.685 57.233C200.27 58.138 198.84 59.1678 197.395 60.3225C195.949 61.4771 194.596 62.5693 193.336 63.5992C193.12 63.7552 192.982 64.0049 192.92 64.3481C192.674 66.0957 192.244 68.0305 191.629 70.1526C191.014 72.2746 190.26 74.4123 189.369 76.5655C188.508 78.7188 187.523 80.7628 186.416 82.6976C185.34 84.6637 184.202 86.3488 183.003 87.7531C182.234 88.6581 181.419 89.2822 180.558 89.6255C179.697 90 178.913 90.0936 178.206 89.9064C177.468 89.7191 176.868 89.251 176.407 88.5021C175.915 87.7843 175.653 86.7857 175.623 85.5062C176.022 83.5714 176.668 81.6834 177.56 79.8422C178.452 78.0322 179.528 76.2379 180.789 74.4591C182.019 72.7115 183.387 70.9483 184.894 69.1696C186.401 67.422 187.985 65.6432 189.645 63.8332C189.861 63.6772 190.061 63.3183 190.245 62.7566C190.43 62.1637 190.583 61.5395 190.706 60.8842C190.829 60.2288 190.906 59.6203 190.937 59.0586C190.998 58.4657 190.998 58.1068 190.937 57.982C190.629 58.5437 190.291 59.2146 189.922 59.9948C189.553 60.7438 189.169 61.4771 188.769 62.1949C188.369 62.8814 187.969 63.4899 187.57 64.0205C187.17 64.5198 186.785 64.785 186.416 64.8162ZM177.791 87.4254C178.129 87.5503 178.621 87.207 179.267 86.3956C179.912 85.6155 180.635 84.5544 181.435 83.2126C182.234 81.9019 183.049 80.4196 183.879 78.7656C184.71 77.1429 185.463 75.5513 186.14 73.991C186.847 72.4619 187.431 71.0732 187.893 69.8249C188.354 68.5766 188.6 67.6872 188.631 67.1567C187.831 68.0305 186.955 69.0759 186.001 70.293C185.048 71.5413 184.11 72.8363 183.187 74.1782C182.265 75.5513 181.404 76.94 180.604 78.3443C179.774 79.7486 179.098 81.0593 178.575 82.2764C178.021 83.4934 177.668 84.5544 177.514 85.4594C177.329 86.3956 177.422 87.051 177.791 87.4254Z" fill="white"/>
</svg>
