<svg width="160" height="160" viewBox="0 0 160 160" fill="none" xmlns="http://www.w3.org/2000/svg">
<path d="M104.213 88.6479C109.232 91.2038 111.711 96.3953 111.711 96.3953C111.711 96.3953 106.054 97.443 101.035 94.8871C96.0164 92.3312 93.5364 87.1397 93.5364 87.1397C93.5364 87.1397 99.1937 86.092 104.213 88.6479Z" fill="#FADC4B"/>
<path d="M117.792 83.5005C123.109 85.3566 126.266 90.1666 126.266 90.1666C126.266 90.1666 120.802 91.9671 115.484 90.111C110.167 88.2548 107.01 83.4449 107.01 83.4449C107.01 83.4449 112.474 81.6443 117.792 83.5005Z" fill="#FADC4B"/>
<path d="M129.213 75.4689C134.164 76.587 137.483 80.571 137.483 80.571C137.483 80.571 132.774 82.7422 127.823 81.6241C122.871 80.506 119.552 76.522 119.552 76.522C119.552 76.522 124.261 74.3508 129.213 75.4689Z" fill="#FADC4B"/>
<path d="M139.784 63.9156C144.859 63.8426 149.019 66.9383 149.019 66.9383C149.019 66.9383 144.95 70.1522 139.875 70.2251C134.799 70.2981 130.639 67.2024 130.639 67.2024C130.639 67.2024 134.708 63.9885 139.784 63.9156Z" fill="#FADC4B"/>
<path d="M147.802 50.1773C152.779 49.1809 157.433 51.4669 157.433 51.4669C157.433 51.4669 154.018 55.3684 149.04 56.3648C144.063 57.3612 139.409 55.0752 139.409 55.0752C139.409 55.0752 142.824 51.1738 147.802 50.1773Z" fill="#FADC4B"/>
<path d="M149.47 34.7232C152.435 32.654 156.125 32.8197 156.125 32.8197C156.125 32.8197 155.008 36.3402 152.042 38.4094C149.077 40.4786 145.387 40.3129 145.387 40.3129C145.387 40.3129 146.505 36.7924 149.47 34.7232Z" fill="#FADC4B"/>
<path d="M101.362 79.8847C98.806 84.9036 93.6145 87.3836 93.6145 87.3836C93.6145 87.3836 92.5668 81.7263 95.1227 76.7074C97.6785 71.6885 102.87 69.2085 102.87 69.2085C102.87 69.2085 103.918 74.8658 101.362 79.8847Z" fill="#FADC4B"/>
<path d="M113.695 75.1589C111.839 80.4765 107.029 83.6335 107.029 83.6335C107.029 83.6335 105.229 78.1691 107.085 72.8515C108.941 67.5339 113.751 64.3769 113.751 64.3769C113.751 64.3769 115.552 69.8413 113.695 75.1589Z" fill="#FADC4B"/>
<path d="M124.692 68.4181C123.574 73.3695 119.59 76.6884 119.59 76.6884C119.59 76.6884 117.418 71.9795 118.537 67.0282C119.655 62.0768 123.639 58.758 123.639 58.758C123.639 58.758 125.81 63.4668 124.692 68.4181Z" fill="#FADC4B"/>
<path d="M133.735 58.1219C133.808 63.1974 130.712 67.3572 130.712 67.3572C130.712 67.3572 127.498 63.2881 127.425 58.2126C127.352 53.1371 130.448 48.9772 130.448 48.9772C130.448 48.9772 133.662 53.0464 133.735 58.1219Z" fill="#FADC4B"/>
<path d="M140.799 45.5817C141.795 50.5589 139.509 55.2131 139.509 55.2131C139.509 55.2131 135.608 51.7976 134.611 46.8204C133.615 41.8431 135.901 37.1889 135.901 37.1889C135.901 37.1889 139.802 40.6044 140.799 45.5817Z" fill="#FADC4B"/>
<path d="M143.59 33.7188C145.659 36.684 145.493 40.374 145.493 40.374C145.493 40.374 141.973 39.2563 139.903 36.2911C137.834 33.3258 138 29.6358 138 29.6358C138 29.6358 141.52 30.7535 143.59 33.7188Z" fill="#FADC4B"/>
<path d="M149.175 24.5471C149.175 28.1629 146.927 31.0941 146.927 31.0941C146.927 31.0941 144.68 28.1629 144.68 24.5471C144.68 20.9312 146.927 18 146.927 18C146.927 18 149.175 20.9312 149.175 24.5471Z" fill="#FADC4B"/>
<path d="M54.8396 88.6501C49.8207 91.206 47.3408 96.3975 47.3408 96.3975C47.3408 96.3975 52.998 97.4452 58.017 94.8893C63.0359 92.3334 65.5158 87.1419 65.5158 87.1419C65.5158 87.1419 59.8586 86.0942 54.8396 88.6501Z" fill="#FADC4B"/>
<path d="M41.261 83.5027C35.9434 85.3588 32.7864 90.1688 32.7864 90.1688C32.7864 90.1688 38.2509 91.9693 43.5684 90.1132C48.886 88.257 52.0431 83.4471 52.0431 83.4471C52.0431 83.4471 46.5786 81.6465 41.261 83.5027Z" fill="#FADC4B"/>
<path d="M29.8397 75.4701C24.8883 76.5882 21.5694 80.5722 21.5694 80.5722C21.5694 80.5722 26.2783 82.7434 31.2296 81.6253C36.181 80.5072 39.4998 76.5232 39.4998 76.5232C39.4998 76.5232 34.791 74.352 29.8397 75.4701Z" fill="#FADC4B"/>
<path d="M19.2708 63.9178C14.1953 63.8448 10.0355 66.9405 10.0355 66.9405C10.0355 66.9405 14.1046 70.1544 19.1801 70.2273C24.2556 70.3002 28.4155 67.2046 28.4155 67.2046C28.4155 67.2046 24.3463 63.9907 19.2708 63.9178Z" fill="#FADC4B"/>
<path d="M11.2505 50.1795C6.27323 49.1831 1.61902 51.4691 1.61902 51.4691C1.61902 51.4691 5.03454 55.3705 10.0118 56.367C14.9891 57.3634 19.6433 55.0774 19.6433 55.0774C19.6433 55.0774 16.2277 51.176 11.2505 50.1795Z" fill="#FADC4B"/>
<path d="M9.58262 34.7254C6.61736 32.6562 2.92739 32.8219 2.92739 32.8219C2.92739 32.8219 4.04506 36.3424 7.01032 38.4116C9.97558 40.4808 13.6655 40.3151 13.6655 40.3151C13.6655 40.3151 12.5479 36.7946 9.58262 34.7254Z" fill="#FADC4B"/>
<path d="M57.6928 79.8869C60.2487 84.9058 65.4402 87.3858 65.4402 87.3858C65.4402 87.3858 66.4879 81.7285 63.932 76.7096C61.3761 71.6907 56.1846 69.2107 56.1846 69.2107C56.1846 69.2107 55.1369 74.868 57.6928 79.8869Z" fill="#FADC4B"/>
<path d="M45.3568 75.1611C47.2129 80.4787 52.0229 83.6357 52.0229 83.6357C52.0229 83.6357 53.8234 78.1713 51.9673 72.8537C50.1111 67.5361 45.3012 64.3791 45.3012 64.3791C45.3012 64.3791 43.5007 69.8435 45.3568 75.1611Z" fill="#FADC4B"/>
<path d="M34.361 68.4203C35.4791 73.3717 39.4631 76.6906 39.4631 76.6906C39.4631 76.6906 41.6343 71.9817 40.5162 67.0304C39.3981 62.079 35.4141 58.7602 35.4141 58.7602C35.4141 58.7602 33.2429 63.469 34.361 68.4203Z" fill="#FADC4B"/>
<path d="M25.3177 58.123C25.2447 63.1985 28.3404 67.3583 28.3404 67.3583C28.3404 67.3583 31.5543 63.2892 31.6272 58.2137C31.7002 53.1382 28.6045 48.9783 28.6045 48.9783C28.6045 48.9783 25.3906 53.0475 25.3177 58.123Z" fill="#FADC4B"/>
<path d="M18.254 45.5839C17.2576 50.5611 19.5435 55.2153 19.5435 55.2153C19.5435 55.2153 23.445 51.7998 24.4414 46.8225C25.4378 41.8453 23.1519 37.1911 23.1519 37.1911C23.1519 37.1911 19.2504 40.6066 18.254 45.5839Z" fill="#FADC4B"/>
<path d="M15.4631 33.721C13.3939 36.6862 13.5596 40.3762 13.5596 40.3762C13.5596 40.3762 17.0802 39.2585 19.1494 36.2933C21.2186 33.328 21.0529 29.638 21.0529 29.638C21.0529 29.638 17.5323 30.7557 15.4631 33.721Z" fill="#FADC4B"/>
<path d="M9.87804 24.5493C9.87804 28.1651 12.1255 31.0963 12.1255 31.0963C12.1255 31.0963 14.373 28.1651 14.373 24.5493C14.373 20.9334 12.1255 18.0022 12.1255 18.0022C12.1255 18.0022 9.87804 20.9334 9.87804 24.5493Z" fill="#FADC4B"/>
<path d="M22.1064 127V118.243H18.9277V117.136H26.5156V118.243H23.3369V127H22.1064ZM29.9268 127.13C29.2295 127.13 28.6257 126.977 28.1152 126.672C27.6094 126.362 27.2174 125.922 26.9395 125.353C26.666 124.783 26.5293 124.106 26.5293 123.322V123.309C26.5293 122.52 26.666 121.841 26.9395 121.271C27.2174 120.702 27.6094 120.264 28.1152 119.959C28.6257 119.654 29.2295 119.501 29.9268 119.501C30.6286 119.501 31.2324 119.654 31.7383 119.959C32.2441 120.264 32.6338 120.702 32.9072 121.271C33.1852 121.841 33.3242 122.52 33.3242 123.309V123.322C33.3242 124.106 33.1852 124.783 32.9072 125.353C32.6338 125.922 32.2441 126.362 31.7383 126.672C31.2324 126.977 30.6286 127.13 29.9268 127.13ZM29.9268 126.077C30.3916 126.077 30.7858 125.968 31.1094 125.749C31.4329 125.53 31.679 125.216 31.8477 124.806C32.0208 124.396 32.1074 123.901 32.1074 123.322V123.309C32.1074 122.725 32.0208 122.229 31.8477 121.818C31.679 121.408 31.4329 121.096 31.1094 120.882C30.7858 120.663 30.3916 120.554 29.9268 120.554C29.4619 120.554 29.0677 120.663 28.7441 120.882C28.4206 121.096 28.1722 121.408 27.999 121.818C27.8304 122.229 27.7461 122.725 27.7461 123.309V123.322C27.7461 123.901 27.8304 124.396 27.999 124.806C28.1722 125.216 28.4206 125.53 28.7441 125.749C29.0677 125.968 29.4619 126.077 29.9268 126.077ZM35.1699 129.461V119.631H36.3594V120.807H36.4688C36.6191 120.533 36.8083 120.301 37.0361 120.109C37.264 119.913 37.5238 119.763 37.8154 119.658C38.1071 119.553 38.4238 119.501 38.7656 119.501C39.39 119.501 39.9323 119.66 40.3926 119.979C40.8574 120.294 41.2174 120.736 41.4727 121.306C41.7279 121.875 41.8555 122.543 41.8555 123.309V123.322C41.8555 124.092 41.7279 124.762 41.4727 125.332C41.2174 125.902 40.8574 126.344 40.3926 126.658C39.9323 126.973 39.39 127.13 38.7656 127.13C38.4284 127.13 38.1094 127.077 37.8086 126.973C37.5124 126.863 37.248 126.713 37.0156 126.521C36.7878 126.33 36.6055 126.102 36.4688 125.838H36.3594V129.461H35.1699ZM38.4922 126.077C38.9434 126.077 39.3285 125.968 39.6475 125.749C39.9665 125.526 40.2103 125.209 40.3789 124.799C40.5521 124.384 40.6387 123.892 40.6387 123.322V123.309C40.6387 122.734 40.5521 122.242 40.3789 121.832C40.2103 121.422 39.9665 121.107 39.6475 120.889C39.3285 120.665 38.9434 120.554 38.4922 120.554C38.0456 120.554 37.6605 120.665 37.3369 120.889C37.0133 121.112 36.765 121.429 36.5918 121.839C36.4186 122.249 36.332 122.739 36.332 123.309V123.322C36.332 123.887 36.4186 124.377 36.5918 124.792C36.765 125.202 37.0133 125.519 37.3369 125.742C37.6605 125.965 38.0456 126.077 38.4922 126.077ZM50.0586 127V118.503H49.9492L47.4404 120.321V119.022L50.0654 117.136H51.2891V127H50.0586ZM57.4414 127.232C56.7122 127.232 56.0879 127.023 55.5684 126.604C55.0534 126.184 54.6569 125.59 54.3789 124.819C54.1009 124.045 53.9619 123.129 53.9619 122.071V122.058C53.9619 121 54.1009 120.087 54.3789 119.316C54.6569 118.546 55.0534 117.951 55.5684 117.532C56.0879 117.113 56.7122 116.903 57.4414 116.903C58.1706 116.903 58.7949 117.113 59.3145 117.532C59.834 117.951 60.2327 118.546 60.5107 119.316C60.7933 120.087 60.9346 121 60.9346 122.058V122.071C60.9346 123.129 60.7933 124.045 60.5107 124.819C60.2327 125.59 59.834 126.184 59.3145 126.604C58.7949 127.023 58.1706 127.232 57.4414 127.232ZM57.4414 126.159C57.9154 126.159 58.3187 125.993 58.6514 125.66C58.9886 125.327 59.2461 124.856 59.4238 124.245C59.6061 123.634 59.6973 122.91 59.6973 122.071V122.058C59.6973 121.219 59.6061 120.497 59.4238 119.891C59.2461 119.28 58.9886 118.811 58.6514 118.482C58.3187 118.15 57.9154 117.983 57.4414 117.983C56.972 117.983 56.5687 118.15 56.2314 118.482C55.8988 118.811 55.6436 119.28 55.4658 119.891C55.2881 120.497 55.1992 121.219 55.1992 122.058V122.071C55.1992 122.91 55.2881 123.634 55.4658 124.245C55.6436 124.856 55.8988 125.327 56.2314 125.66C56.5687 125.993 56.972 126.159 57.4414 126.159ZM65.3711 127V118.503H65.2617L62.7529 120.321V119.022L65.3779 117.136H66.6016V127H65.3711ZM77.457 127.232C76.6413 127.232 75.9395 127.08 75.3516 126.774C74.7682 126.469 74.3193 126.045 74.0049 125.503C73.6904 124.956 73.5332 124.325 73.5332 123.609V117.136H74.7637V123.527C74.7637 124.033 74.8685 124.48 75.0781 124.867C75.2923 125.25 75.5999 125.551 76.001 125.77C76.402 125.988 76.8874 126.098 77.457 126.098C78.0267 126.098 78.5098 125.988 78.9062 125.77C79.3073 125.551 79.6126 125.25 79.8223 124.867C80.0319 124.48 80.1367 124.033 80.1367 123.527V117.136H81.3672V123.609C81.3672 124.325 81.21 124.956 80.8955 125.503C80.5856 126.045 80.139 126.469 79.5557 126.774C78.9723 127.08 78.2728 127.232 77.457 127.232ZM83.2197 127L86.877 121.613L86.583 122.563V122.017L83.2607 117.136H84.7441L87.3828 121.107H87.9434L87.1299 121.545L90.0898 117.136H91.4912L88.0801 122.078V122.625L87.7861 121.675L91.416 127H89.9395L87.3145 123.062H86.7539L87.5674 122.632L84.6143 127H83.2197ZM97.3086 127V117.136H100.692C101.668 117.136 102.502 117.332 103.194 117.724C103.892 118.111 104.425 118.672 104.794 119.405C105.163 120.139 105.348 121.023 105.348 122.058V122.071C105.348 123.106 105.163 123.992 104.794 124.73C104.425 125.464 103.894 126.027 103.201 126.419C102.508 126.806 101.672 127 100.692 127H97.3086ZM98.5391 125.893H100.61C101.344 125.893 101.971 125.742 102.49 125.441C103.01 125.141 103.406 124.705 103.68 124.136C103.953 123.566 104.09 122.882 104.09 122.085V122.071C104.09 121.269 103.951 120.583 103.673 120.014C103.399 119.439 103.003 119.002 102.483 118.701C101.964 118.396 101.34 118.243 100.61 118.243H98.5391V125.893ZM110.338 127.13C109.636 127.13 109.032 126.975 108.526 126.665C108.025 126.355 107.638 125.918 107.364 125.353C107.095 124.783 106.961 124.113 106.961 123.343V123.336C106.961 122.575 107.095 121.907 107.364 121.333C107.638 120.759 108.023 120.31 108.52 119.986C109.016 119.663 109.597 119.501 110.263 119.501C110.933 119.501 111.507 119.656 111.985 119.966C112.468 120.276 112.838 120.709 113.093 121.265C113.353 121.816 113.482 122.459 113.482 123.192V123.657H107.576V122.707H112.874L112.286 123.575V123.104C112.286 122.525 112.2 122.049 112.026 121.675C111.853 121.301 111.614 121.023 111.309 120.841C111.003 120.654 110.652 120.561 110.256 120.561C109.859 120.561 109.504 120.659 109.189 120.854C108.88 121.046 108.633 121.331 108.451 121.709C108.269 122.087 108.178 122.552 108.178 123.104V123.575C108.178 124.099 108.267 124.548 108.444 124.922C108.622 125.291 108.875 125.576 109.203 125.776C109.531 125.972 109.919 126.07 110.365 126.07C110.698 126.07 110.987 126.025 111.233 125.934C111.479 125.842 111.682 125.726 111.842 125.585C112.001 125.444 112.113 125.3 112.177 125.154L112.204 125.093H113.394L113.38 125.147C113.316 125.398 113.202 125.642 113.038 125.879C112.879 126.111 112.671 126.323 112.416 126.515C112.161 126.701 111.858 126.852 111.507 126.966C111.16 127.075 110.771 127.13 110.338 127.13ZM117.857 127.13C117.311 127.13 116.827 127.048 116.408 126.884C115.989 126.715 115.652 126.48 115.396 126.18C115.146 125.879 114.998 125.526 114.952 125.12H116.169C116.269 125.425 116.465 125.672 116.757 125.858C117.049 126.045 117.429 126.139 117.898 126.139C118.231 126.139 118.523 126.091 118.773 125.995C119.029 125.895 119.229 125.76 119.375 125.592C119.521 125.419 119.594 125.22 119.594 124.997V124.983C119.594 124.733 119.493 124.521 119.293 124.348C119.092 124.17 118.764 124.026 118.309 123.917L117.167 123.644C116.707 123.534 116.328 123.393 116.032 123.22C115.736 123.042 115.517 122.826 115.376 122.57C115.235 122.311 115.164 122.005 115.164 121.654V121.647C115.164 121.237 115.283 120.87 115.52 120.547C115.761 120.223 116.089 119.968 116.504 119.781C116.919 119.594 117.386 119.501 117.905 119.501C118.42 119.501 118.876 119.583 119.272 119.747C119.674 119.907 119.995 120.134 120.236 120.431C120.482 120.727 120.633 121.076 120.688 121.477H119.519C119.441 121.185 119.263 120.948 118.985 120.766C118.707 120.583 118.345 120.492 117.898 120.492C117.607 120.492 117.347 120.54 117.119 120.636C116.891 120.727 116.711 120.854 116.579 121.019C116.447 121.183 116.381 121.374 116.381 121.593V121.606C116.381 121.771 116.424 121.916 116.511 122.044C116.597 122.172 116.732 122.283 116.914 122.379C117.096 122.475 117.331 122.559 117.618 122.632L118.753 122.905C119.446 123.074 119.961 123.315 120.298 123.63C120.64 123.944 120.811 124.366 120.811 124.895V124.908C120.811 125.346 120.681 125.733 120.421 126.07C120.161 126.403 119.808 126.663 119.361 126.85C118.919 127.036 118.418 127.13 117.857 127.13ZM122.684 127V119.631H123.873V127H122.684ZM123.285 118.209C123.062 118.209 122.868 118.129 122.704 117.97C122.545 117.806 122.465 117.612 122.465 117.389C122.465 117.161 122.545 116.967 122.704 116.808C122.868 116.648 123.062 116.568 123.285 116.568C123.513 116.568 123.707 116.648 123.866 116.808C124.026 116.967 124.105 117.161 124.105 117.389C124.105 117.612 124.026 117.806 123.866 117.97C123.707 118.129 123.513 118.209 123.285 118.209ZM129.15 129.598C128.558 129.598 128.041 129.513 127.599 129.345C127.157 129.181 126.803 128.946 126.539 128.641C126.279 128.34 126.118 127.989 126.054 127.588L126.067 127.581H127.298L127.305 127.588C127.368 127.866 127.56 128.094 127.879 128.271C128.198 128.454 128.622 128.545 129.15 128.545C129.811 128.545 130.326 128.395 130.695 128.094C131.069 127.798 131.256 127.378 131.256 126.836V125.346H131.146C130.992 125.615 130.798 125.845 130.565 126.036C130.333 126.228 130.071 126.373 129.779 126.474C129.488 126.569 129.173 126.617 128.836 126.617C128.202 126.617 127.653 126.467 127.188 126.166C126.728 125.861 126.373 125.441 126.122 124.908C125.871 124.375 125.746 123.764 125.746 123.076V123.062C125.746 122.374 125.871 121.764 126.122 121.23C126.377 120.693 126.737 120.271 127.202 119.966C127.667 119.656 128.221 119.501 128.863 119.501C129.21 119.501 129.529 119.556 129.82 119.665C130.112 119.774 130.369 119.929 130.593 120.13C130.821 120.33 131.01 120.57 131.16 120.848H131.242V119.631H132.432V126.897C132.432 127.444 132.297 127.921 132.028 128.326C131.764 128.732 131.386 129.044 130.894 129.263C130.401 129.486 129.82 129.598 129.15 129.598ZM129.096 125.564C129.551 125.564 129.941 125.46 130.265 125.25C130.593 125.036 130.843 124.742 131.017 124.368C131.194 123.994 131.283 123.564 131.283 123.076V123.062C131.283 122.575 131.194 122.142 131.017 121.764C130.843 121.385 130.593 121.089 130.265 120.875C129.941 120.661 129.551 120.554 129.096 120.554C128.64 120.554 128.253 120.661 127.934 120.875C127.619 121.089 127.378 121.385 127.209 121.764C127.045 122.142 126.963 122.575 126.963 123.062V123.076C126.963 123.564 127.045 123.994 127.209 124.368C127.378 124.742 127.619 125.036 127.934 125.25C128.253 125.46 128.64 125.564 129.096 125.564ZM134.646 127V119.631H135.836V120.738H135.945C136.132 120.346 136.401 120.043 136.752 119.829C137.103 119.61 137.549 119.501 138.092 119.501C138.921 119.501 139.557 119.738 139.999 120.212C140.446 120.681 140.669 121.354 140.669 122.229V127H139.479V122.516C139.479 121.85 139.338 121.358 139.056 121.039C138.778 120.715 138.345 120.554 137.757 120.554C137.365 120.554 137.025 120.638 136.738 120.807C136.451 120.975 136.228 121.215 136.068 121.524C135.913 121.834 135.836 122.206 135.836 122.639V127H134.646ZM18.3057 144.232C17.5856 144.232 16.9567 144.116 16.4189 143.884C15.8857 143.647 15.4619 143.323 15.1475 142.913C14.8376 142.498 14.6576 142.024 14.6074 141.491L14.6006 141.416H15.8311L15.8379 141.491C15.8698 141.819 15.9951 142.104 16.2139 142.346C16.4372 142.583 16.7334 142.767 17.1025 142.899C17.4762 143.032 17.9001 143.098 18.374 143.098C18.8206 143.098 19.2171 143.027 19.5635 142.886C19.9144 142.74 20.1901 142.539 20.3906 142.284C20.5911 142.029 20.6914 141.735 20.6914 141.402V141.396C20.6914 140.985 20.541 140.641 20.2402 140.363C19.9395 140.081 19.4495 139.864 18.7705 139.714L17.6768 139.475C16.6878 139.256 15.9678 138.919 15.5166 138.463C15.07 138.003 14.8467 137.415 14.8467 136.699V136.692C14.8512 136.146 14.9993 135.662 15.291 135.243C15.5872 134.824 15.9951 134.496 16.5146 134.259C17.0387 134.022 17.6403 133.903 18.3193 133.903C18.9756 133.903 19.5566 134.022 20.0625 134.259C20.5684 134.491 20.9694 134.806 21.2656 135.202C21.5664 135.599 21.7327 136.043 21.7646 136.535L21.7715 136.631H20.541L20.5273 136.542C20.4818 136.25 20.3633 135.993 20.1719 135.77C19.9805 135.542 19.7253 135.362 19.4062 135.229C19.0872 135.097 18.7135 135.034 18.2852 135.038C17.875 135.038 17.5059 135.102 17.1777 135.229C16.8496 135.357 16.5876 135.542 16.3916 135.783C16.2002 136.02 16.1045 136.312 16.1045 136.658V136.665C16.1045 137.057 16.2503 137.387 16.542 137.656C16.8337 137.925 17.3145 138.132 17.9844 138.278L19.0781 138.524C19.7663 138.675 20.32 138.871 20.7393 139.112C21.1585 139.354 21.4639 139.65 21.6553 140.001C21.8512 140.347 21.9492 140.757 21.9492 141.231V141.238C21.9492 141.854 21.7988 142.384 21.498 142.831C21.1973 143.278 20.7734 143.624 20.2266 143.87C19.6797 144.112 19.0394 144.232 18.3057 144.232ZM26.4678 144.055C25.7113 144.055 25.1621 143.902 24.8203 143.597C24.4831 143.291 24.3145 142.788 24.3145 142.086V137.615H23.1523V136.631H24.3145V134.724H25.5449V136.631H27.1582V137.615H25.5449V141.785C25.5449 142.218 25.627 142.53 25.791 142.722C25.9551 142.909 26.2285 143.002 26.6113 143.002C26.7161 143.002 26.805 143 26.8779 142.995C26.9554 142.991 27.0488 142.984 27.1582 142.975V143.986C27.0443 144.005 26.9303 144.021 26.8164 144.034C26.7025 144.048 26.5863 144.055 26.4678 144.055ZM30.959 144.13C30.4941 144.13 30.0749 144.041 29.7012 143.863C29.332 143.686 29.0381 143.433 28.8193 143.104C28.6051 142.776 28.498 142.389 28.498 141.942V141.929C28.498 141.491 28.6029 141.118 28.8125 140.808C29.0221 140.493 29.3275 140.247 29.7285 140.069C30.1296 139.892 30.6149 139.787 31.1846 139.755L33.8916 139.591V140.541L31.3281 140.705C30.7676 140.737 30.3574 140.853 30.0977 141.054C29.8424 141.254 29.7148 141.537 29.7148 141.901V141.915C29.7148 142.289 29.8561 142.58 30.1387 142.79C30.4212 142.995 30.7767 143.098 31.2051 143.098C31.6107 143.098 31.9707 143.018 32.2852 142.858C32.5996 142.694 32.8457 142.473 33.0234 142.195C33.2057 141.917 33.2969 141.603 33.2969 141.252V138.955C33.2969 138.499 33.1579 138.153 32.8799 137.916C32.6064 137.674 32.194 137.554 31.6426 137.554C31.2005 137.554 30.8382 137.633 30.5557 137.793C30.2731 137.948 30.084 138.169 29.9883 138.456L29.9814 138.477H28.792L28.7988 138.436C28.8626 138.048 29.0221 137.711 29.2773 137.424C29.5371 137.132 29.8721 136.907 30.2822 136.747C30.6924 136.583 31.1595 136.501 31.6836 136.501C32.2852 136.501 32.7933 136.599 33.208 136.795C33.6273 136.991 33.944 137.273 34.1582 137.643C34.377 138.007 34.4863 138.445 34.4863 138.955V144H33.2969V142.913H33.1875C33.0326 143.173 32.8434 143.394 32.6201 143.576C32.4014 143.758 32.153 143.897 31.875 143.993C31.597 144.084 31.2917 144.13 30.959 144.13ZM36.6602 144V136.631H37.8496V137.725H37.959C38.1003 137.337 38.3395 137.036 38.6768 136.822C39.014 136.608 39.431 136.501 39.9277 136.501C40.0417 136.501 40.1533 136.508 40.2627 136.521C40.3766 136.531 40.4632 136.54 40.5225 136.549V137.704C40.3994 137.681 40.2786 137.665 40.1602 137.656C40.0462 137.643 39.9232 137.636 39.791 137.636C39.4128 137.636 39.0778 137.711 38.7861 137.861C38.4945 138.012 38.2643 138.221 38.0957 138.49C37.9316 138.759 37.8496 139.074 37.8496 139.434V144H36.6602ZM44.7471 144.055C43.9906 144.055 43.4414 143.902 43.0996 143.597C42.7624 143.291 42.5938 142.788 42.5938 142.086V137.615H41.4316V136.631H42.5938V134.724H43.8242V136.631H45.4375V137.615H43.8242V141.785C43.8242 142.218 43.9062 142.53 44.0703 142.722C44.2344 142.909 44.5078 143.002 44.8906 143.002C44.9954 143.002 45.0843 143 45.1572 142.995C45.2347 142.991 45.3281 142.984 45.4375 142.975V143.986C45.3236 144.005 45.2096 144.021 45.0957 144.034C44.9818 144.048 44.8656 144.055 44.7471 144.055ZM49.6826 144.13C49.1266 144.13 48.6595 144.025 48.2812 143.815C47.903 143.601 47.6182 143.291 47.4268 142.886C47.2399 142.476 47.1465 141.981 47.1465 141.402V136.631H48.3359V141.115C48.3359 141.776 48.4635 142.268 48.7188 142.592C48.9785 142.915 49.4023 143.077 49.9902 143.077C50.3138 143.077 50.5986 143.029 50.8447 142.934C51.0954 142.838 51.305 142.701 51.4736 142.523C51.6423 142.341 51.7676 142.122 51.8496 141.867C51.9362 141.607 51.9795 141.316 51.9795 140.992V136.631H53.1689V144H51.9795V142.899H51.8701C51.7516 143.159 51.5898 143.382 51.3848 143.569C51.1797 143.752 50.9336 143.891 50.6465 143.986C50.3639 144.082 50.0426 144.13 49.6826 144.13ZM55.3906 146.461V136.631H56.5801V137.807H56.6895C56.8398 137.533 57.029 137.301 57.2568 137.109C57.4847 136.913 57.7445 136.763 58.0361 136.658C58.3278 136.553 58.6445 136.501 58.9863 136.501C59.6107 136.501 60.153 136.66 60.6133 136.979C61.0781 137.294 61.4382 137.736 61.6934 138.306C61.9486 138.875 62.0762 139.543 62.0762 140.309V140.322C62.0762 141.092 61.9486 141.762 61.6934 142.332C61.4382 142.902 61.0781 143.344 60.6133 143.658C60.153 143.973 59.6107 144.13 58.9863 144.13C58.6491 144.13 58.3301 144.077 58.0293 143.973C57.7331 143.863 57.4688 143.713 57.2363 143.521C57.0085 143.33 56.8262 143.102 56.6895 142.838H56.5801V146.461H55.3906ZM58.7129 143.077C59.1641 143.077 59.5492 142.968 59.8682 142.749C60.1872 142.526 60.431 142.209 60.5996 141.799C60.7728 141.384 60.8594 140.892 60.8594 140.322V140.309C60.8594 139.734 60.7728 139.242 60.5996 138.832C60.431 138.422 60.1872 138.107 59.8682 137.889C59.5492 137.665 59.1641 137.554 58.7129 137.554C58.2663 137.554 57.8812 137.665 57.5576 137.889C57.234 138.112 56.9857 138.429 56.8125 138.839C56.6393 139.249 56.5527 139.739 56.5527 140.309V140.322C56.5527 140.887 56.6393 141.377 56.8125 141.792C56.9857 142.202 57.234 142.519 57.5576 142.742C57.8812 142.965 58.2663 143.077 58.7129 143.077ZM71.5371 144.13C71.1953 144.13 70.8786 144.077 70.5869 143.973C70.2952 143.868 70.0355 143.72 69.8076 143.528C69.5798 143.332 69.3906 143.098 69.2402 142.824H69.1309V144H67.9414V133.705H69.1309V137.793H69.2402C69.377 137.529 69.5592 137.301 69.7871 137.109C70.0195 136.918 70.2839 136.77 70.5801 136.665C70.8809 136.556 71.1999 136.501 71.5371 136.501C72.1615 136.501 72.7038 136.658 73.1641 136.973C73.6289 137.287 73.9889 137.729 74.2441 138.299C74.4993 138.868 74.627 139.538 74.627 140.309V140.322C74.627 141.088 74.4993 141.758 74.2441 142.332C73.9889 142.902 73.6289 143.344 73.1641 143.658C72.7038 143.973 72.1615 144.13 71.5371 144.13ZM71.2637 143.077C71.7148 143.077 72.0999 142.968 72.4189 142.749C72.738 142.526 72.9818 142.209 73.1504 141.799C73.3236 141.384 73.4102 140.892 73.4102 140.322V140.309C73.4102 139.734 73.3236 139.242 73.1504 138.832C72.9818 138.422 72.738 138.107 72.4189 137.889C72.0999 137.665 71.7148 137.554 71.2637 137.554C70.8171 137.554 70.432 137.665 70.1084 137.889C69.7848 138.112 69.5365 138.429 69.3633 138.839C69.1901 139.249 69.1035 139.739 69.1035 140.309V140.322C69.1035 140.887 69.1901 141.377 69.3633 141.792C69.5365 142.202 69.7848 142.519 70.1084 142.742C70.432 142.965 70.8171 143.077 71.2637 143.077ZM76.8281 146.584C76.7507 146.584 76.6641 146.579 76.5684 146.57C76.4727 146.566 76.3838 146.557 76.3018 146.543V145.565C76.3747 145.579 76.4544 145.588 76.541 145.593C76.6276 145.597 76.7119 145.6 76.7939 145.6C77.1312 145.6 77.4069 145.513 77.6211 145.34C77.8398 145.167 78.0153 144.868 78.1475 144.444L78.2842 144.007L75.5566 136.631H76.8281L79.0977 143.439L78.626 142.694H79.1865L78.7148 143.439L80.9775 136.631H82.2285L79.3506 144.451C79.1501 145.003 78.9382 145.433 78.7148 145.743C78.4915 146.053 78.2295 146.27 77.9287 146.393C77.6325 146.52 77.2656 146.584 76.8281 146.584ZM91.1221 144.232C90.402 144.232 89.7731 144.116 89.2354 143.884C88.7021 143.647 88.2783 143.323 87.9639 142.913C87.654 142.498 87.474 142.024 87.4238 141.491L87.417 141.416H88.6475L88.6543 141.491C88.6862 141.819 88.8115 142.104 89.0303 142.346C89.2536 142.583 89.5498 142.767 89.9189 142.899C90.2926 143.032 90.7165 143.098 91.1904 143.098C91.637 143.098 92.0335 143.027 92.3799 142.886C92.7308 142.74 93.0065 142.539 93.207 142.284C93.4076 142.029 93.5078 141.735 93.5078 141.402V141.396C93.5078 140.985 93.3574 140.641 93.0566 140.363C92.7559 140.081 92.266 139.864 91.5869 139.714L90.4932 139.475C89.5042 139.256 88.7842 138.919 88.333 138.463C87.8864 138.003 87.6631 137.415 87.6631 136.699V136.692C87.6676 136.146 87.8158 135.662 88.1074 135.243C88.4036 134.824 88.8115 134.496 89.3311 134.259C89.8551 134.022 90.4567 133.903 91.1357 133.903C91.792 133.903 92.373 134.022 92.8789 134.259C93.3848 134.491 93.7858 134.806 94.082 135.202C94.3828 135.599 94.5492 136.043 94.5811 136.535L94.5879 136.631H93.3574L93.3438 136.542C93.2982 136.25 93.1797 135.993 92.9883 135.77C92.7969 135.542 92.5417 135.362 92.2227 135.229C91.9036 135.097 91.5299 135.034 91.1016 135.038C90.6914 135.038 90.3223 135.102 89.9941 135.229C89.666 135.357 89.404 135.542 89.208 135.783C89.0166 136.02 88.9209 136.312 88.9209 136.658V136.665C88.9209 137.057 89.0667 137.387 89.3584 137.656C89.6501 137.925 90.1309 138.132 90.8008 138.278L91.8945 138.524C92.5827 138.675 93.1364 138.871 93.5557 139.112C93.9749 139.354 94.2803 139.65 94.4717 140.001C94.6676 140.347 94.7656 140.757 94.7656 141.231V141.238C94.7656 141.854 94.6152 142.384 94.3145 142.831C94.0137 143.278 93.5898 143.624 93.043 143.87C92.4961 144.112 91.8558 144.232 91.1221 144.232ZM99.2842 144.055C98.5277 144.055 97.9785 143.902 97.6367 143.597C97.2995 143.291 97.1309 142.788 97.1309 142.086V137.615H95.9688V136.631H97.1309V134.724H98.3613V136.631H99.9746V137.615H98.3613V141.785C98.3613 142.218 98.4434 142.53 98.6074 142.722C98.7715 142.909 99.0449 143.002 99.4277 143.002C99.5326 143.002 99.6214 143 99.6943 142.995C99.7718 142.991 99.8652 142.984 99.9746 142.975V143.986C99.8607 144.005 99.7467 144.021 99.6328 144.034C99.5189 144.048 99.4027 144.055 99.2842 144.055ZM103.775 144.13C103.311 144.13 102.891 144.041 102.518 143.863C102.148 143.686 101.854 143.433 101.636 143.104C101.422 142.776 101.314 142.389 101.314 141.942V141.929C101.314 141.491 101.419 141.118 101.629 140.808C101.839 140.493 102.144 140.247 102.545 140.069C102.946 139.892 103.431 139.787 104.001 139.755L106.708 139.591V140.541L104.145 140.705C103.584 140.737 103.174 140.853 102.914 141.054C102.659 141.254 102.531 141.537 102.531 141.901V141.915C102.531 142.289 102.673 142.58 102.955 142.79C103.238 142.995 103.593 143.098 104.021 143.098C104.427 143.098 104.787 143.018 105.102 142.858C105.416 142.694 105.662 142.473 105.84 142.195C106.022 141.917 106.113 141.603 106.113 141.252V138.955C106.113 138.499 105.974 138.153 105.696 137.916C105.423 137.674 105.01 137.554 104.459 137.554C104.017 137.554 103.655 137.633 103.372 137.793C103.09 137.948 102.9 138.169 102.805 138.456L102.798 138.477H101.608L101.615 138.436C101.679 138.048 101.839 137.711 102.094 137.424C102.354 137.132 102.688 136.907 103.099 136.747C103.509 136.583 103.976 136.501 104.5 136.501C105.102 136.501 105.61 136.599 106.024 136.795C106.444 136.991 106.76 137.273 106.975 137.643C107.193 138.007 107.303 138.445 107.303 138.955V144H106.113V142.913H106.004C105.849 143.173 105.66 143.394 105.437 143.576C105.218 143.758 104.969 143.897 104.691 143.993C104.413 144.084 104.108 144.13 103.775 144.13ZM109.477 144V136.631H110.666V137.725H110.775C110.917 137.337 111.156 137.036 111.493 136.822C111.83 136.608 112.247 136.501 112.744 136.501C112.858 136.501 112.97 136.508 113.079 136.521C113.193 136.531 113.28 136.54 113.339 136.549V137.704C113.216 137.681 113.095 137.665 112.977 137.656C112.863 137.643 112.74 137.636 112.607 137.636C112.229 137.636 111.894 137.711 111.603 137.861C111.311 138.012 111.081 138.221 110.912 138.49C110.748 138.759 110.666 139.074 110.666 139.434V144H109.477ZM117.563 144.055C116.807 144.055 116.258 143.902 115.916 143.597C115.579 143.291 115.41 142.788 115.41 142.086V137.615H114.248V136.631H115.41V134.724H116.641V136.631H118.254V137.615H116.641V141.785C116.641 142.218 116.723 142.53 116.887 142.722C117.051 142.909 117.324 143.002 117.707 143.002C117.812 143.002 117.901 143 117.974 142.995C118.051 142.991 118.145 142.984 118.254 142.975V143.986C118.14 144.005 118.026 144.021 117.912 144.034C117.798 144.048 117.682 144.055 117.563 144.055ZM122.499 144.13C121.943 144.13 121.476 144.025 121.098 143.815C120.719 143.601 120.435 143.291 120.243 142.886C120.056 142.476 119.963 141.981 119.963 141.402V136.631H121.152V141.115C121.152 141.776 121.28 142.268 121.535 142.592C121.795 142.915 122.219 143.077 122.807 143.077C123.13 143.077 123.415 143.029 123.661 142.934C123.912 142.838 124.121 142.701 124.29 142.523C124.459 142.341 124.584 142.122 124.666 141.867C124.753 141.607 124.796 141.316 124.796 140.992V136.631H125.985V144H124.796V142.899H124.687C124.568 143.159 124.406 143.382 124.201 143.569C123.996 143.752 123.75 143.891 123.463 143.986C123.18 144.082 122.859 144.13 122.499 144.13ZM128.207 146.461V136.631H129.396V137.807H129.506C129.656 137.533 129.845 137.301 130.073 137.109C130.301 136.913 130.561 136.763 130.853 136.658C131.144 136.553 131.461 136.501 131.803 136.501C132.427 136.501 132.969 136.66 133.43 136.979C133.895 137.294 134.255 137.736 134.51 138.306C134.765 138.875 134.893 139.543 134.893 140.309V140.322C134.893 141.092 134.765 141.762 134.51 142.332C134.255 142.902 133.895 143.344 133.43 143.658C132.969 143.973 132.427 144.13 131.803 144.13C131.465 144.13 131.146 144.077 130.846 143.973C130.549 143.863 130.285 143.713 130.053 143.521C129.825 143.33 129.643 143.102 129.506 142.838H129.396V146.461H128.207ZM131.529 143.077C131.98 143.077 132.366 142.968 132.685 142.749C133.004 142.526 133.247 142.209 133.416 141.799C133.589 141.384 133.676 140.892 133.676 140.322V140.309C133.676 139.734 133.589 139.242 133.416 138.832C133.247 138.422 133.004 138.107 132.685 137.889C132.366 137.665 131.98 137.554 131.529 137.554C131.083 137.554 130.698 137.665 130.374 137.889C130.05 138.112 129.802 138.429 129.629 138.839C129.456 139.249 129.369 139.739 129.369 140.309V140.322C129.369 140.887 129.456 141.377 129.629 141.792C129.802 142.202 130.05 142.519 130.374 142.742C130.698 142.965 131.083 143.077 131.529 143.077ZM136.779 144V136.631H137.969V144H136.779ZM137.381 135.209C137.158 135.209 136.964 135.129 136.8 134.97C136.64 134.806 136.561 134.612 136.561 134.389C136.561 134.161 136.64 133.967 136.8 133.808C136.964 133.648 137.158 133.568 137.381 133.568C137.609 133.568 137.802 133.648 137.962 133.808C138.121 133.967 138.201 134.161 138.201 134.389C138.201 134.612 138.121 134.806 137.962 134.97C137.802 135.129 137.609 135.209 137.381 135.209ZM140.279 144V133.705H141.469V144H140.279ZM143.82 144V133.705H145.01V144H143.82Z" fill="white"/>
</svg>
