<svg width="300" height="120" viewBox="0 0 300 120" fill="none" xmlns="http://www.w3.org/2000/svg">
<path d="M101.478 84.4163C101.037 84.7416 100.546 84.9105 100.008 84.9543C98.9978 85.0387 98.0344 84.9011 97.143 84.3819C96.9929 84.2943 96.9616 84.2224 97.0461 84.0597C97.1931 83.7782 97.3151 83.478 97.4527 83.1714C98.0032 83.5343 98.5912 83.7501 99.2355 83.8064C99.5764 83.8376 99.9174 83.8314 100.243 83.7219C100.505 83.6343 100.706 83.4717 100.721 83.1683C100.74 82.8774 100.543 82.7367 100.315 82.6272C99.9737 82.4646 99.6015 82.4083 99.2386 82.3176C98.8101 82.2112 98.3879 82.0892 97.9844 81.8984C96.7364 81.2979 96.9303 79.7434 97.6841 79.1241C98.122 78.7644 98.6318 78.5924 99.1886 78.533C100.055 78.4422 100.887 78.5611 101.678 78.9302C101.85 79.0115 101.903 79.0991 101.807 79.2867C101.694 79.4994 101.609 79.7278 101.528 79.9561C101.475 80.1125 101.425 80.15 101.259 80.0656C100.637 79.7465 99.9768 79.587 99.2699 79.7027C99.1479 79.7215 99.0322 79.7559 98.9227 79.8091C98.685 79.9217 98.5349 80.0937 98.5255 80.3721C98.5192 80.6536 98.7007 80.7943 98.9259 80.8944C99.3575 81.079 99.8267 81.1478 100.277 81.2697C100.596 81.3573 100.909 81.4512 101.212 81.5825C102.476 82.1361 102.388 83.7407 101.478 84.4163Z" fill="white"/>
<path d="M108.725 82.5584C108.606 84.0159 107.674 84.8917 106.21 84.973C105.353 85.0199 104.54 84.8885 103.883 84.2692C103.283 83.7031 103.105 82.9712 103.095 82.1861C103.083 81.0633 103.095 79.9404 103.089 78.8175C103.089 78.6455 103.136 78.5986 103.308 78.6049C103.646 78.6174 103.987 78.6205 104.324 78.6049C104.521 78.5923 104.546 78.6674 104.543 78.8394C104.537 79.8904 104.54 80.9444 104.54 81.9954C104.54 82.2925 104.559 82.5865 104.646 82.8743C104.819 83.4373 105.25 83.7313 105.919 83.7406C106.576 83.7532 107.027 83.456 107.214 82.9024C107.33 82.5646 107.324 82.2206 107.327 81.8702V80.5941C107.327 79.9998 107.333 79.4087 107.321 78.8175C107.321 78.6424 107.374 78.5986 107.543 78.6049C107.89 78.6174 108.237 78.608 108.587 78.608C108.688 78.608 108.769 78.5986 108.769 78.7487C108.744 80.0186 108.831 81.2916 108.725 82.5584Z" fill="white"/>
<path d="M114.725 79.1029C114.234 78.7589 113.668 78.6244 113.074 78.615C112.188 78.6025 111.3 78.615 110.412 78.6056C110.224 78.6025 110.184 78.6525 110.184 78.8339C110.196 79.8004 110.19 80.7638 110.19 81.7302C110.19 82.6967 110.193 83.6945 110.187 84.6797C110.184 84.8424 110.227 84.8862 110.387 84.8799C110.743 84.8674 111.1 84.8674 111.457 84.8799C111.61 84.883 111.647 84.833 111.644 84.6891C111.635 84.3325 111.641 83.976 111.641 83.6194C111.641 83.3066 111.799 83.1492 112.113 83.1471C112.755 83.1471 113.402 83.194 114.028 82.9939C114.85 82.728 115.419 82.2119 115.566 81.333C115.72 80.4353 115.501 79.6534 114.725 79.1029ZM114.112 81.1829C114.006 81.6176 113.652 81.9148 113.136 81.9429C112.686 81.9711 112.232 81.9523 111.782 81.9617C111.66 81.9648 111.635 81.9179 111.638 81.8116C111.644 81.4988 111.638 81.1829 111.638 80.8701C111.638 80.5573 111.641 80.2633 111.638 79.9568C111.635 79.8411 111.66 79.7879 111.794 79.791C112.239 79.8035 112.683 79.7848 113.124 79.816C113.874 79.8692 114.287 80.4541 114.112 81.1829Z" fill="white"/>
<path d="M121.488 83.9416C121.466 84.1918 121.479 84.4451 121.485 84.6985C121.491 84.8267 121.466 84.8799 121.319 84.8799C119.821 84.8736 118.323 84.8736 116.825 84.8799C116.665 84.8799 116.65 84.8173 116.65 84.6828C116.653 83.7007 116.653 82.7155 116.653 81.7334C116.653 80.7512 116.656 79.8004 116.646 78.8339C116.646 78.6556 116.684 78.6025 116.872 78.6056C118.301 78.6119 119.727 78.6119 121.157 78.6056C121.316 78.6056 121.388 78.6306 121.376 78.812C121.357 79.0654 121.357 79.3187 121.376 79.569C121.388 79.7535 121.313 79.7785 121.154 79.7754C120.212 79.7691 119.274 79.7785 118.332 79.7691C118.123 79.7691 118.063 79.8254 118.076 80.0287C118.095 80.3134 118.095 80.6011 118.079 80.8889C118.066 81.0765 118.113 81.1391 118.317 81.136C119.127 81.1235 119.937 81.1391 120.744 81.1266C120.938 81.1235 121.01 81.1735 120.994 81.3737C120.975 81.5957 120.978 81.8241 120.994 82.0493C121.003 82.2276 120.941 82.2682 120.772 82.2651C119.956 82.2557 119.136 82.2682 118.317 82.2557C118.12 82.2526 118.066 82.3057 118.076 82.4997C118.095 82.8218 118.098 83.144 118.076 83.4661C118.06 83.6851 118.148 83.7164 118.339 83.7164C119.305 83.707 120.275 83.7164 121.241 83.707C121.423 83.707 121.507 83.7289 121.488 83.9416Z" fill="white"/>
<path d="M126.881 83.015C126.812 82.9181 126.771 82.8586 126.921 82.7898C127.972 82.2925 128.235 81.1415 127.969 80.2188C127.684 79.2304 126.934 78.7894 125.983 78.6674C124.919 78.5267 123.843 78.6361 122.774 78.608C122.652 78.6017 122.633 78.6549 122.633 78.7613C122.636 80.7443 122.636 82.7304 122.633 84.7134C122.63 84.8354 122.664 84.8792 122.793 84.8792C123.165 84.8698 123.54 84.8698 123.915 84.8792C124.053 84.8823 124.091 84.8385 124.087 84.7009C124.078 84.2661 124.103 83.8314 124.078 83.3966C124.062 83.1526 124.15 83.1057 124.369 83.1214C124.638 83.1401 124.91 83.137 125.179 83.1214C125.345 83.112 125.448 83.1652 125.542 83.3059C125.858 83.7876 126.186 84.2567 126.511 84.729C126.565 84.8072 126.605 84.8823 126.727 84.8792C127.196 84.8698 127.666 84.876 128.175 84.876C127.725 84.2286 127.306 83.6187 126.881 83.015ZM126.289 81.6576C126.111 81.839 125.88 81.9172 125.636 81.9453C125.166 82.0047 124.694 81.9672 124.225 81.9797C124.103 81.9829 124.081 81.9297 124.084 81.8233C124.087 81.5106 124.084 81.1978 124.084 80.885C124.084 80.5722 124.087 80.2563 124.081 79.9436C124.081 79.8372 124.103 79.7872 124.225 79.7903C124.675 79.8028 125.129 79.784 125.582 79.8153C126.014 79.8466 126.38 80.0311 126.527 80.4721C126.665 80.9006 126.63 81.3166 126.289 81.6576Z" fill="white"/>
<path d="M137.842 84.6989C136.976 82.7503 136.103 80.8079 135.243 78.8562C135.156 78.6498 135.046 78.5935 134.84 78.606C134.546 78.6216 134.245 78.6248 133.951 78.6029C133.751 78.5903 133.667 78.6685 133.592 78.8406C133.035 80.1104 132.469 81.3741 131.903 82.6408C131.577 83.3758 131.252 84.1109 130.911 84.8772C131.393 84.8772 131.843 84.874 132.294 84.8772C132.397 84.8803 132.419 84.8177 132.45 84.7427C132.588 84.3955 132.738 84.0546 132.872 83.7074C132.922 83.5791 132.991 83.5228 133.138 83.5228C133.983 83.5322 134.827 83.5291 135.672 83.5228C135.809 83.5228 135.872 83.5666 135.919 83.6917C136.053 84.0389 136.203 84.3798 136.347 84.7239C136.375 84.7927 136.378 84.8772 136.491 84.8772C136.954 84.874 137.42 84.8772 137.911 84.8772C137.88 84.7927 137.864 84.7458 137.842 84.6989ZM133.56 82.4281C133.454 82.4281 133.416 82.4 133.46 82.2936C133.77 81.5555 134.08 80.8142 134.405 80.0385C134.74 80.8455 135.059 81.6149 135.393 82.425C134.758 82.425 134.161 82.425 133.56 82.425V82.4281Z" fill="white"/>
<path d="M138.908 70.5277C135.624 70.5277 132.34 70.5277 129.056 70.5246C128.646 70.5246 128.627 70.5058 128.624 70.1023C128.602 66.7963 128.577 63.4902 128.559 60.181C128.552 58.3544 128.559 56.5278 128.559 54.6762C128.402 54.7325 128.377 54.8451 128.327 54.9264C125.925 58.9862 123.523 63.0461 121.127 67.1091C121.005 67.3124 120.871 67.3968 120.63 67.3905C119.038 67.3624 117.442 67.3468 115.85 67.3343C115.657 67.3343 115.55 67.2561 115.456 67.0997C113.964 64.6694 112.466 62.2422 110.974 59.8151C110.058 58.3263 109.141 56.8406 108.225 55.3518C108.197 55.3049 108.159 55.2579 108.09 55.161V57.1158C108.087 59.3084 108.084 61.501 108.078 63.6967C108.072 65.8454 108.059 67.9942 108.05 70.143C108.05 70.487 108.003 70.534 107.659 70.534C104.287 70.5277 100.915 70.5183 97.5468 70.5121C97.2465 70.5121 97.2246 70.4839 97.2246 70.1492V35.7094C97.2246 35.2934 97.2528 35.2621 97.6688 35.2621C100.646 35.2621 103.627 35.2684 106.605 35.2559C106.877 35.2559 107.027 35.3466 107.165 35.5749C110.868 41.6303 114.581 47.6825 118.29 53.7378C118.334 53.8098 118.384 53.8786 118.456 53.9818C118.816 53.3781 119.16 52.7995 119.504 52.224C122.81 46.6785 126.119 41.1361 129.422 35.5905C129.563 35.3528 129.716 35.2559 130 35.2559C132.959 35.2684 135.921 35.2621 138.883 35.2621C139.287 35.2621 139.34 35.3153 139.34 35.7063V70.0929C139.34 70.4933 139.306 70.5277 138.908 70.5277Z" fill="white"/>
<path d="M143.893 80.1863C143.608 79.2229 142.861 78.7944 141.935 78.6693C140.862 78.5223 139.777 78.6349 138.701 78.6067C138.513 78.6005 138.569 78.7256 138.566 78.8163V81.7408C138.566 82.7166 138.569 83.6894 138.563 84.6652C138.56 84.8373 138.61 84.8842 138.779 84.8779C139.135 84.8654 139.492 84.8685 139.849 84.8779C139.983 84.8811 140.027 84.8435 140.024 84.7028C140.014 84.2618 140.03 83.8176 140.017 83.3735C140.011 83.1952 140.055 83.142 140.243 83.142C140.796 83.142 141.356 83.1733 141.91 83.1014C143.455 82.9043 144.321 81.6469 143.893 80.1863ZM142.047 81.7846C141.894 81.8721 141.725 81.9316 141.553 81.9378C141.084 81.9566 140.615 81.9503 140.146 81.9597C140.005 81.9628 140.021 81.8784 140.021 81.7908V80.8525C140.021 80.5491 140.027 80.2426 140.021 79.9392C140.017 79.8297 140.049 79.7859 140.164 79.789C140.618 79.8016 141.071 79.7859 141.522 79.8141C142.054 79.8485 142.395 80.1456 142.495 80.6054C142.607 81.109 142.438 81.55 142.047 81.7846Z" fill="white"/>
<path d="M149.458 79.0332C148.979 78.7392 148.444 78.6203 147.891 78.6141C147.002 78.6047 146.114 78.6172 145.229 78.6016C145.038 78.6016 145.023 78.6735 145.026 78.8268C145.032 79.7932 145.026 80.7566 145.026 81.7231C145.026 82.6896 145.029 83.6873 145.026 84.6694C145.023 84.8196 145.041 84.8884 145.217 84.879C145.573 84.8634 145.93 84.8665 146.286 84.879C146.436 84.8821 146.477 84.8383 146.474 84.6913C146.464 84.2378 146.474 83.7843 146.468 83.3339C146.464 83.1837 146.511 83.14 146.658 83.1462C147.049 83.1556 147.44 83.1556 147.831 83.1462C148.366 83.1337 148.889 83.0493 149.361 82.7834C150.065 82.3862 150.418 81.7762 150.443 80.9724C150.468 80.1467 150.177 79.4773 149.458 79.0332ZM147.994 81.9389C147.534 81.9764 147.071 81.9514 146.611 81.9608C146.49 81.9639 146.468 81.9107 146.468 81.8044C146.474 81.4916 146.471 81.1788 146.471 80.8661V79.9528C146.471 79.8683 146.468 79.7901 146.583 79.7932C147.087 79.8058 147.597 79.7463 148.094 79.8339C148.704 79.9434 148.998 80.3281 148.979 80.9318C148.957 81.5104 148.61 81.8889 147.994 81.9389Z" fill="white"/>
<path d="M159.556 83.9966C159.409 83.8652 159.271 83.7151 159.115 83.59C158.974 83.4774 158.94 83.3835 159.049 83.2146C159.253 82.8987 159.362 82.539 159.459 82.1793C159.49 82.0605 159.497 81.976 159.331 81.9354C159.015 81.8572 158.705 81.7446 158.389 81.6445C158.317 81.9416 158.249 82.22 158.136 82.4827C158.099 82.5703 158.067 82.6141 157.973 82.5265C157.632 82.2044 157.285 81.8885 156.932 81.5632C157.251 81.3599 157.557 81.1785 157.795 80.9063C158.421 80.1995 158.211 79.1172 157.354 78.7388C156.613 78.4135 155.859 78.4448 155.14 78.8264C154.577 79.1235 154.323 79.7147 154.433 80.3465C154.508 80.7718 154.774 81.0752 155.043 81.3943C154.761 81.5788 154.483 81.7414 154.251 81.9635C153.329 82.8549 153.507 84.1217 154.664 84.6659C155.809 85.2008 156.929 85.0788 157.986 84.3969C158.12 84.3125 158.202 84.3031 158.311 84.4219C158.458 84.5783 158.63 84.716 158.78 84.8723C158.868 84.963 158.921 84.9662 159.006 84.863C159.184 84.6378 159.372 84.4219 159.565 84.2093C159.644 84.1248 159.637 84.0685 159.556 83.9966ZM155.706 79.8585C155.784 79.6208 156.028 79.4801 156.463 79.4801C156.616 79.4769 156.841 79.552 156.941 79.8179C157.026 80.0399 156.932 80.3027 156.713 80.4903C156.688 80.5122 156.663 80.5373 156.632 80.5498C156.456 80.6311 156.325 80.8969 156.106 80.7718C155.768 80.5842 155.609 80.1557 155.706 79.8585ZM157.176 83.6306C156.854 83.8026 156.516 83.8934 156.131 83.8871C155.937 83.8934 155.734 83.8589 155.537 83.7776C155.04 83.5712 154.893 83.0676 155.196 82.6204C155.224 82.5766 155.255 82.5359 155.29 82.4952C155.675 82.0699 155.778 82.0699 156.187 82.4577C156.522 82.7736 156.86 83.0864 157.204 83.3929C157.323 83.4993 157.313 83.5556 157.176 83.6306Z" fill="white"/>
<path d="M167.749 81.6145C167.818 81.5645 167.868 81.5332 167.915 81.4956C168.806 80.8419 168.756 79.5564 167.821 78.9747C167.383 78.7025 166.895 78.6244 166.398 78.6181C165.369 78.6025 164.343 78.615 163.317 78.6056C163.142 78.6025 163.123 78.6619 163.123 78.812C163.129 80.77 163.129 82.7249 163.123 84.6828C163.12 84.8517 163.17 84.8799 163.326 84.8799C164.346 84.8736 165.363 84.8768 166.382 84.8768C166.801 84.8768 167.217 84.8392 167.618 84.711C168.153 84.5452 168.594 84.2543 168.778 83.6851C169.066 82.7968 168.697 82.0461 167.749 81.6145ZM164.562 79.8473C164.559 79.7316 164.603 79.7034 164.712 79.7034C165.209 79.7097 165.704 79.7003 166.198 79.7128C166.414 79.7159 166.626 79.7691 166.811 79.8974C167.211 80.1726 167.183 80.7825 166.758 81.0233C166.589 81.1172 166.404 81.1641 166.21 81.1672C165.969 81.1735 165.725 81.1704 165.482 81.1704V81.1766C165.231 81.1766 164.978 81.1704 164.728 81.1797C164.606 81.1829 164.559 81.1485 164.562 81.0202C164.568 80.6293 164.568 80.2383 164.562 79.8473ZM167.374 83.1971C167.305 83.5256 167.067 83.6601 166.773 83.7289C166.385 83.8227 165.994 83.757 165.666 83.7789C165.319 83.7789 165.031 83.7695 164.746 83.782C164.59 83.7883 164.556 83.732 164.559 83.5912C164.568 83.2003 164.562 82.8093 164.562 82.4183C164.565 82.3276 164.543 82.2213 164.696 82.2275C165.347 82.2463 166.001 82.1837 166.648 82.2682C167.202 82.3401 167.477 82.7061 167.374 83.1971Z" fill="white"/>
<path d="M174.793 83.949C174.777 84.2024 174.78 84.4557 174.793 84.706C174.799 84.8467 174.749 84.878 174.615 84.878C173.126 84.8717 171.637 84.8717 170.151 84.878C169.982 84.878 169.951 84.8248 169.954 84.6716C169.961 83.6894 169.957 82.7073 169.957 81.7252C169.957 80.7431 169.964 79.7922 169.951 78.8258C169.951 78.6381 170.007 78.6006 170.183 78.6037C171.612 78.6099 173.038 78.6099 174.468 78.6037C174.637 78.6037 174.69 78.6443 174.68 78.8164C174.665 79.0603 174.665 79.3043 174.68 79.5483C174.693 79.7266 174.64 79.7797 174.455 79.7766C173.532 79.7672 172.61 79.7829 171.687 79.7641C171.424 79.7578 171.362 79.8392 171.384 80.0831C171.406 80.3584 171.396 80.6399 171.384 80.9151C171.374 81.0871 171.427 81.1372 171.6 81.1341C172.41 81.1247 173.22 81.1372 174.027 81.1247C174.236 81.1215 174.33 81.1622 174.305 81.3905C174.274 81.672 174.424 82.0536 174.246 82.2131C174.089 82.3539 173.717 82.2569 173.439 82.2569C172.822 82.26 172.203 82.2632 171.587 82.2538C171.424 82.2538 171.377 82.2913 171.384 82.4571C171.396 82.8043 171.399 83.1515 171.384 83.4986C171.374 83.6801 171.44 83.7145 171.603 83.7145C172.588 83.7051 173.573 83.7176 174.555 83.7051C174.755 83.702 174.805 83.7583 174.793 83.949Z" fill="white"/>
<path d="M142.081 35.5268C142.047 35.4674 142.018 35.4079 141.959 35.2985H142.309C146.106 35.2985 149.904 35.3047 153.701 35.2922C154.27 35.2891 154.645 35.5112 154.93 35.996C157.141 39.7461 159.362 43.4901 161.583 47.234C161.611 47.2872 161.645 47.3372 161.68 47.3904C161.773 47.3779 161.789 47.2903 161.827 47.2309C164.094 43.4338 166.362 39.6367 168.629 35.8396C168.848 35.4705 169.167 35.2734 169.59 35.2734C173.171 35.2672 176.749 35.2703 180.33 35.2703C180.346 35.2703 180.359 35.2797 180.38 35.286C180.374 35.4142 180.284 35.5049 180.224 35.6081C177.165 40.794 174.106 45.9767 171.047 51.1625C169.978 52.9735 168.92 54.7907 167.832 56.5892C167.363 57.3617 167.194 58.1906 167.194 59.0758C167.197 62.7415 167.197 66.4041 167.197 70.0699C167.197 70.4952 167.178 70.514 166.759 70.514H155.627C155.249 70.514 155.233 70.4984 155.233 70.1136C155.233 66.2915 155.23 62.4725 155.233 58.6504C155.233 57.9122 155.064 57.2554 154.673 56.6048C150.46 49.5861 146.272 42.5549 142.078 35.5268H142.081Z" fill="white"/>
<path d="M181.191 78.8136C180.475 80.0116 179.758 81.2095 179.033 82.4012C178.936 82.5638 178.886 82.7233 178.889 82.9141C178.898 83.4959 178.886 84.0808 178.895 84.6625C178.898 84.8346 178.851 84.8846 178.679 84.8784C178.323 84.8658 177.966 84.8658 177.61 84.8784C177.466 84.8815 177.438 84.8346 177.438 84.7001C177.444 84.0839 177.438 83.4646 177.444 82.8484C177.447 82.7014 177.406 82.5826 177.331 82.4575C176.587 81.2251 175.846 79.9897 175.104 78.7542C175.082 78.7198 175.067 78.6791 175.029 78.6072C175.489 78.6072 175.914 78.6166 176.34 78.6041C176.502 78.5978 176.587 78.6541 176.665 78.7917C177.137 79.5924 177.619 80.3869 178.098 81.1845C178.132 81.2408 178.17 81.2971 178.223 81.3815C178.604 80.7528 178.964 80.1429 179.336 79.5393C179.527 79.2296 179.633 78.7948 179.931 78.6478C180.215 78.504 180.628 78.6103 180.985 78.6072H181.275C181.297 78.701 181.229 78.7511 181.191 78.8136Z" fill="white"/>
<path d="M187.584 79.9902C186.836 78.8736 185.741 78.4545 184.44 78.5108C182.257 78.5984 180.815 80.547 181.369 82.6395C181.741 84.0376 183.067 84.979 184.703 84.979C184.891 84.9915 185.113 84.9571 185.338 84.929C187.649 84.6162 188.879 81.9263 187.584 79.9902ZM184.675 83.7404C183.502 83.7342 182.714 82.9085 182.723 81.7011C182.732 80.5564 183.546 79.7369 184.675 79.74C185.826 79.7432 186.648 80.5877 186.639 81.7543C186.63 82.9085 185.798 83.7498 184.675 83.7404Z" fill="white"/>
<path d="M189.632 37.0612C190.126 36.6765 190.598 36.3481 191.105 36.0728C192.15 35.5067 193.257 35.1533 194.442 35.0407C194.492 35.0344 194.539 35.0125 194.589 35C194.571 35.1345 194.455 35.1189 194.367 35.1282C192.703 35.3096 191.227 35.9415 189.904 36.9549C189.823 37.0143 189.738 37.0987 189.632 37.0612Z" fill="white"/>
<path d="M194.921 78.7665C194.918 80.7495 194.918 82.7357 194.921 84.7187C194.921 84.8469 194.88 84.8813 194.758 84.8782C194.461 84.8688 194.164 84.8657 193.87 84.8782C193.742 84.8845 193.685 84.8094 193.62 84.7281C192.697 83.6052 191.777 82.4823 190.855 81.3595C190.792 81.2813 190.723 81.2031 190.617 81.078C190.617 82.3103 190.611 83.4738 190.623 84.6405C190.623 84.8375 190.576 84.8907 190.379 84.8782C190.041 84.8626 189.7 84.8688 189.363 84.8782C189.225 84.8813 189.188 84.8407 189.188 84.703C189.188 82.7294 189.188 80.7527 189.188 78.7759C189.188 78.6383 189.225 78.5851 189.363 78.607C189.378 78.6102 189.397 78.607 189.413 78.607C189.735 78.6102 190.104 78.5163 190.367 78.6414C190.633 78.7665 190.792 79.1075 190.995 79.3577C191.784 80.3179 192.572 81.2813 193.357 82.2446C193.388 82.2822 193.423 82.3166 193.491 82.3979V82.0914C193.491 81.0029 193.498 79.9144 193.485 78.826C193.485 78.6414 193.535 78.5945 193.717 78.6039C194.064 78.6195 194.414 78.6133 194.761 78.6039C194.889 78.6008 194.921 78.6414 194.921 78.7665Z" fill="white"/>
<path d="M202.051 53.188C199.821 53.1786 197.591 53.1786 195.364 53.1848C195.154 53.188 195.07 53.1629 195.067 52.9127C195.038 50.2354 194.995 47.5549 194.948 44.8775C194.938 44.277 194.891 43.6796 194.804 43.0822C194.575 41.5652 193.518 41.1429 192.283 41.3556C190.9 41.5933 190.09 42.516 190.05 43.9298C190 45.5281 190.003 47.1295 189.99 48.7309C189.981 50.1321 189.978 51.5334 189.984 52.9346C189.984 53.1285 189.937 53.1786 189.74 53.1786C187.425 53.1755 185.108 53.1786 182.793 53.1942C182.615 53.1942 182.559 53.1598 182.559 52.969C182.565 47.1232 182.565 41.2743 182.559 35.4254C182.559 35.2377 182.615 35.2033 182.79 35.2033C184.986 35.2096 187.178 35.2096 189.374 35.2033C189.555 35.2033 189.605 35.2502 189.599 35.4316C189.587 35.954 189.599 36.4794 189.599 37.0456C189.483 36.983 189.499 36.8579 189.496 36.7453C189.49 36.3637 189.496 35.9821 189.493 35.5974C189.49 35.3222 189.462 35.2909 189.196 35.2909C187.116 35.2878 185.033 35.2878 182.953 35.2909C182.687 35.2909 182.659 35.3253 182.652 35.5974C182.649 35.6568 182.649 35.7194 182.649 35.7788V52.6218C182.649 53.0941 182.652 53.0941 183.125 53.0941H189.449C189.537 53.0941 189.621 53.0941 189.709 53.0879C189.834 53.0816 189.899 53.0222 189.906 52.894C189.912 52.8001 189.912 52.7032 189.912 52.6062C189.912 50.2135 189.903 47.8207 189.918 45.428C189.921 44.8118 189.924 44.1894 190.006 43.5795C190.24 41.7966 191.786 41.071 193.252 41.2649C194.069 41.3713 194.622 41.9218 194.816 42.7444C194.966 43.3824 195.023 44.033 195.032 44.6867C195.048 46.0692 195.07 47.4516 195.104 48.8341C195.138 50.1228 195.12 51.4083 195.142 52.6969C195.148 53.0816 195.151 53.0941 195.536 53.0941H201.857C202.232 53.0941 202.245 53.0816 202.245 52.7157C202.245 49.175 202.285 45.6313 202.229 42.0907C202.198 40.2296 201.597 38.5219 200.29 37.1425C199.173 35.9602 197.763 35.3222 196.146 35.1345C196.036 35.122 195.889 35.1689 195.845 35C196.277 35.0876 196.721 35.1157 197.15 35.2346C199.893 35.9884 201.482 37.8244 202.113 40.5487C202.298 41.3306 202.335 42.1282 202.332 42.932C202.323 46.2537 202.323 49.5785 202.332 52.9033C202.332 53.1254 202.289 53.1911 202.054 53.188H202.051Z" fill="white"/>
<path d="M202.69 82.1613C202.602 82.4678 202.561 82.7868 202.421 83.0777C201.914 84.1255 201.044 84.676 199.928 84.8168C198.802 84.9606 197.666 84.848 196.534 84.8762C196.434 84.8793 196.387 84.848 196.403 84.7448C196.406 84.7104 196.403 84.676 196.403 84.6416C196.403 82.7086 196.406 80.7788 196.396 78.8458C196.396 78.6519 196.437 78.6019 196.637 78.6019C197.569 78.6175 198.501 78.5831 199.43 78.6175C200.653 78.6644 201.676 79.1148 202.33 80.2189C202.53 80.5599 202.596 80.9477 202.69 81.323C202.561 81.3137 202.577 81.2073 202.561 81.1291C202.292 79.8467 201.473 79.1086 200.231 78.8021C199.903 78.7176 199.565 78.6801 199.224 78.6832C198.42 78.6895 197.619 78.6832 196.819 78.6863C196.515 78.6863 196.493 78.7082 196.493 79.0147V84.4696C196.493 84.7761 196.515 84.798 196.819 84.798C197.673 84.8011 198.526 84.8105 199.38 84.7949C200.034 84.7823 200.657 84.626 201.226 84.2882C201.93 83.869 202.358 83.2529 202.536 82.4553C202.561 82.3489 202.521 82.1957 202.69 82.1613Z" fill="white"/>
<path d="M202.329 42.932C202.32 46.2537 202.32 49.5785 202.329 52.9033C202.329 53.1254 202.285 53.1911 202.051 53.188C199.821 53.1786 197.591 53.1786 195.364 53.1848C195.154 53.188 195.07 53.1629 195.067 52.9127C195.038 50.2354 194.995 47.5549 194.948 44.8775C194.938 44.277 194.891 43.6796 194.804 43.0822C194.575 41.5652 193.518 41.1429 192.283 41.3556C190.9 41.5933 190.09 42.516 190.05 43.9298C190 45.5281 190.003 47.1295 189.99 48.7309C189.981 50.1321 189.978 51.5334 189.984 52.9346C189.984 53.1285 189.937 53.1786 189.74 53.1786C187.425 53.1755 185.108 53.1786 182.793 53.1942C182.615 53.1942 182.559 53.1598 182.559 52.969C182.565 47.1232 182.565 41.2743 182.559 35.4254C182.559 35.2377 182.615 35.2033 182.79 35.2033C184.986 35.2096 187.178 35.2096 189.374 35.2033C189.555 35.2033 189.605 35.2502 189.599 35.4316C189.587 35.954 189.599 36.4794 189.599 37.0456V37.0862C189.599 37.0862 189.621 37.0675 189.634 37.0612C190.128 36.6765 190.6 36.3481 191.107 36.0728C192.151 35.5067 193.259 35.1533 194.444 35.0407C194.494 35.0344 194.541 35.0125 194.591 35H195.845C196.277 35.0876 196.721 35.1157 197.15 35.2346C199.893 35.9884 201.482 37.8244 202.113 40.5487C202.298 41.3306 202.335 42.1282 202.332 42.932H202.329Z" fill="white"/>
<path d="M202.33 80.2189C201.676 79.1148 200.653 78.6644 199.43 78.6175C198.501 78.5831 197.569 78.6175 196.637 78.6019C196.437 78.6019 196.396 78.6519 196.396 78.8458C196.406 80.7788 196.403 82.7086 196.403 84.6416C196.403 84.676 196.406 84.7104 196.403 84.7448C196.387 84.848 196.434 84.8793 196.534 84.8762C197.666 84.848 198.802 84.9606 199.928 84.8168C201.044 84.676 201.914 84.1255 202.421 83.0777C202.561 82.7868 202.602 82.4678 202.69 82.1613V81.323C202.596 80.9477 202.53 80.5599 202.33 80.2189ZM199.44 83.6689C198.961 83.6939 198.483 83.6689 198.004 83.6814C197.848 83.6845 197.842 83.6094 197.842 83.4906C197.845 82.8994 197.845 82.3083 197.845 81.7171V79.9937C197.845 79.8968 197.823 79.7967 197.979 79.8029C198.552 79.8311 199.127 79.7466 199.696 79.8561C200.703 80.05 201.282 80.8288 201.223 81.8985C201.166 82.8869 200.447 83.6126 199.44 83.6689Z" fill="white"/>
<path d="M139.34 35.7063V70.0929C139.34 70.4933 139.306 70.5277 138.908 70.5277C135.624 70.5277 132.34 70.5277 129.056 70.5246C128.646 70.5246 128.627 70.5058 128.624 70.1023C128.602 66.7963 128.577 63.4902 128.559 60.181C128.552 58.3544 128.559 56.5278 128.559 54.6762C128.402 54.7325 128.377 54.8451 128.327 54.9264C125.925 58.9862 123.523 63.0461 121.127 67.1091C121.005 67.3124 120.871 67.3968 120.63 67.3905C119.038 67.3624 117.442 67.3468 115.85 67.3343C115.657 67.3343 115.55 67.2561 115.456 67.0997C113.964 64.6694 112.466 62.2422 110.974 59.8151C110.058 58.3263 109.141 56.8406 108.225 55.3518C108.197 55.3049 108.159 55.2579 108.09 55.161V57.1158C108.087 59.3084 108.084 61.501 108.078 63.6967C108.072 65.8454 108.059 67.9942 108.05 70.143C108.05 70.487 108.003 70.534 107.659 70.534C104.287 70.5277 100.915 70.5183 97.5468 70.5121C97.2465 70.5121 97.2246 70.4839 97.2246 70.1492V35.7094C97.2246 35.2934 97.2528 35.2621 97.6688 35.2621C100.646 35.2621 103.627 35.2684 106.605 35.2559C106.877 35.2559 107.027 35.3466 107.165 35.5749C110.868 41.6303 114.581 47.6825 118.29 53.7378C118.334 53.8098 118.384 53.8786 118.456 53.9818C118.816 53.3781 119.16 52.7995 119.504 52.224C122.81 46.6785 126.119 41.1361 129.422 35.5905C129.563 35.3528 129.716 35.2559 130 35.2559C132.959 35.2684 135.921 35.2621 138.883 35.2621C139.287 35.2621 139.34 35.3153 139.34 35.7063Z" fill="white"/>
<path d="M180.378 35.286C180.371 35.4142 180.281 35.5049 180.221 35.6081C177.162 40.794 174.103 45.9767 171.044 51.1625C169.975 52.9735 168.918 54.7907 167.829 56.5892C167.36 57.3617 167.191 58.1906 167.191 59.0758C167.194 62.7415 167.194 66.4041 167.194 70.0699C167.194 70.4952 167.175 70.514 166.756 70.514H155.625C155.246 70.514 155.23 70.4984 155.23 70.1136C155.23 66.2915 155.227 62.4725 155.23 58.6504C155.23 57.9122 155.062 57.2554 154.671 56.6048C150.458 49.5861 146.269 42.5549 142.075 35.5268C142.041 35.4674 142.013 35.4079 141.953 35.2985H142.303C146.101 35.2985 149.898 35.3047 153.695 35.2922C154.264 35.2891 154.639 35.5112 154.924 35.996C157.135 39.7461 159.356 43.4901 161.577 47.234C161.605 47.2872 161.639 47.3372 161.674 47.3904C161.768 47.3779 161.783 47.2903 161.821 47.2309C164.088 43.4338 166.356 39.6367 168.624 35.8396C168.843 35.4705 169.162 35.2734 169.584 35.2734C173.165 35.2672 176.743 35.2703 180.325 35.2703C180.34 35.2703 180.353 35.2797 180.375 35.286H180.378Z" fill="white"/>
<path d="M167.749 81.6145C167.818 81.5645 167.868 81.5332 167.915 81.4956C168.806 80.8419 168.756 79.5564 167.821 78.9747C167.383 78.7025 166.895 78.6244 166.398 78.6181C165.369 78.6025 164.343 78.615 163.317 78.6056C163.142 78.6025 163.123 78.6619 163.123 78.812C163.129 80.77 163.129 82.7249 163.123 84.6828C163.12 84.8517 163.17 84.8799 163.326 84.8799C164.346 84.8736 165.363 84.8768 166.382 84.8768C166.801 84.8768 167.217 84.8392 167.618 84.711C168.153 84.5452 168.594 84.2543 168.778 83.6851C169.066 82.7968 168.697 82.0461 167.749 81.6145ZM164.562 79.8473C164.559 79.7316 164.603 79.7034 164.712 79.7034C165.209 79.7097 165.704 79.7003 166.198 79.7128C166.414 79.7159 166.626 79.7691 166.811 79.8974C167.211 80.1726 167.183 80.7825 166.758 81.0233C166.589 81.1172 166.404 81.1641 166.21 81.1672C165.969 81.1735 165.725 81.1704 165.482 81.1704V81.1766C165.231 81.1766 164.978 81.1704 164.728 81.1797C164.606 81.1829 164.559 81.1485 164.562 81.0202C164.568 80.6293 164.568 80.2383 164.562 79.8473ZM167.374 83.1971C167.305 83.5256 167.067 83.6601 166.773 83.7289C166.385 83.8227 165.994 83.757 165.666 83.7789C165.319 83.7789 165.031 83.7695 164.746 83.782C164.59 83.7883 164.556 83.732 164.559 83.5912C164.568 83.2003 164.562 82.8093 164.562 82.4183C164.565 82.3276 164.543 82.2213 164.696 82.2275C165.347 82.2463 166.001 82.1837 166.648 82.2682C167.202 82.3401 167.477 82.7061 167.374 83.1971Z" fill="white"/>
<path d="M194.921 78.7665C194.918 80.7495 194.918 82.7357 194.921 84.7187C194.921 84.8469 194.88 84.8813 194.758 84.8782C194.461 84.8688 194.164 84.8657 193.87 84.8782C193.742 84.8845 193.685 84.8094 193.62 84.7281C192.697 83.6052 191.777 82.4823 190.855 81.3595C190.792 81.2813 190.723 81.2031 190.617 81.078C190.617 82.3103 190.611 83.4738 190.623 84.6405C190.623 84.8375 190.576 84.8907 190.379 84.8782C190.041 84.8626 189.7 84.8688 189.363 84.8782C189.225 84.8813 189.188 84.8407 189.188 84.703C189.188 82.7294 189.188 80.7527 189.188 78.7759C189.188 78.6383 189.225 78.5851 189.363 78.607C189.378 78.6102 189.397 78.607 189.413 78.607C189.735 78.6102 190.104 78.5163 190.367 78.6414C190.633 78.7665 190.792 79.1075 190.995 79.3577C191.784 80.3179 192.572 81.2813 193.357 82.2446C193.388 82.2822 193.423 82.3166 193.491 82.3979V82.0914C193.491 81.0029 193.498 79.9144 193.485 78.826C193.485 78.6414 193.535 78.5945 193.717 78.6039C194.064 78.6195 194.414 78.6133 194.761 78.6039C194.889 78.6008 194.921 78.6414 194.921 78.7665Z" fill="white"/>
<path d="M187.584 79.9902C186.836 78.8736 185.741 78.4545 184.44 78.5108C182.257 78.5984 180.815 80.547 181.369 82.6395C181.741 84.0376 183.067 84.979 184.703 84.979C184.891 84.9915 185.113 84.9571 185.338 84.929C187.649 84.6162 188.879 81.9263 187.584 79.9902ZM184.675 83.7404C183.502 83.7342 182.714 82.9085 182.723 81.7011C182.732 80.5564 183.546 79.7369 184.675 79.74C185.826 79.7432 186.648 80.5877 186.639 81.7543C186.63 82.9085 185.798 83.7498 184.675 83.7404Z" fill="white"/>
<path d="M126.881 83.015C126.812 82.9181 126.771 82.8586 126.921 82.7898C127.972 82.2925 128.235 81.1415 127.969 80.2188C127.684 79.2304 126.934 78.7894 125.983 78.6674C124.919 78.5267 123.843 78.6361 122.774 78.608C122.652 78.6017 122.633 78.6549 122.633 78.7613C122.636 80.7443 122.636 82.7304 122.633 84.7134C122.63 84.8354 122.664 84.8792 122.793 84.8792C123.165 84.8698 123.54 84.8698 123.915 84.8792C124.053 84.8823 124.091 84.8385 124.087 84.7009C124.078 84.2661 124.103 83.8314 124.078 83.3966C124.062 83.1526 124.15 83.1057 124.369 83.1214C124.638 83.1401 124.91 83.137 125.179 83.1214C125.345 83.112 125.448 83.1652 125.542 83.3059C125.858 83.7876 126.186 84.2567 126.511 84.729C126.565 84.8072 126.605 84.8823 126.727 84.8792C127.196 84.8698 127.666 84.876 128.175 84.876C127.725 84.2286 127.306 83.6187 126.881 83.015ZM126.289 81.6576C126.111 81.839 125.88 81.9172 125.636 81.9453C125.166 82.0047 124.694 81.9672 124.225 81.9797C124.103 81.9829 124.081 81.9297 124.084 81.8233C124.087 81.5106 124.084 81.1978 124.084 80.885C124.084 80.5722 124.087 80.2563 124.081 79.9436C124.081 79.8372 124.103 79.7872 124.225 79.7903C124.675 79.8028 125.129 79.784 125.582 79.8153C126.014 79.8466 126.38 80.0311 126.527 80.4721C126.665 80.9006 126.63 81.3166 126.289 81.6576Z" fill="white"/>
<path d="M159.556 83.9966C159.409 83.8652 159.271 83.7151 159.115 83.59C158.974 83.4774 158.94 83.3835 159.049 83.2146C159.253 82.8987 159.362 82.539 159.459 82.1793C159.49 82.0605 159.497 81.976 159.331 81.9354C159.015 81.8572 158.705 81.7446 158.389 81.6445C158.317 81.9416 158.249 82.22 158.136 82.4827C158.099 82.5703 158.067 82.6141 157.973 82.5265C157.632 82.2044 157.285 81.8885 156.932 81.5632C157.251 81.3599 157.557 81.1785 157.795 80.9063C158.421 80.1995 158.211 79.1172 157.354 78.7388C156.613 78.4135 155.859 78.4448 155.14 78.8264C154.577 79.1235 154.323 79.7147 154.433 80.3465C154.508 80.7718 154.774 81.0752 155.043 81.3943C154.761 81.5788 154.483 81.7414 154.251 81.9635C153.329 82.8549 153.507 84.1217 154.664 84.6659C155.809 85.2008 156.929 85.0788 157.986 84.3969C158.12 84.3125 158.202 84.3031 158.311 84.4219C158.458 84.5783 158.63 84.716 158.78 84.8723C158.868 84.963 158.921 84.9662 159.006 84.863C159.184 84.6378 159.372 84.4219 159.565 84.2093C159.644 84.1248 159.637 84.0685 159.556 83.9966ZM155.706 79.8585C155.784 79.6208 156.028 79.4801 156.463 79.4801C156.616 79.4769 156.841 79.552 156.941 79.8179C157.026 80.0399 156.932 80.3027 156.713 80.4903C156.688 80.5122 156.663 80.5373 156.632 80.5498C156.456 80.6311 156.325 80.8969 156.106 80.7718C155.768 80.5842 155.609 80.1557 155.706 79.8585ZM157.176 83.6306C156.854 83.8026 156.516 83.8934 156.131 83.8871C155.937 83.8934 155.734 83.8589 155.537 83.7776C155.04 83.5712 154.893 83.0676 155.196 82.6204C155.224 82.5766 155.255 82.5359 155.29 82.4952C155.675 82.0699 155.778 82.0699 156.187 82.4577C156.522 82.7736 156.86 83.0864 157.204 83.3929C157.323 83.4993 157.313 83.5556 157.176 83.6306Z" fill="white"/>
<path d="M143.893 80.1863C143.608 79.2229 142.861 78.7944 141.935 78.6693C140.862 78.5223 139.777 78.6349 138.701 78.6067C138.513 78.6005 138.569 78.7256 138.566 78.8163V81.7408C138.566 82.7166 138.569 83.6894 138.563 84.6652C138.56 84.8373 138.61 84.8842 138.779 84.8779C139.135 84.8654 139.492 84.8685 139.849 84.8779C139.983 84.8811 140.027 84.8435 140.024 84.7028C140.014 84.2618 140.03 83.8176 140.017 83.3735C140.011 83.1952 140.055 83.142 140.243 83.142C140.796 83.142 141.356 83.1733 141.91 83.1014C143.455 82.9043 144.321 81.6469 143.893 80.1863ZM142.047 81.7846C141.894 81.8721 141.725 81.9316 141.553 81.9378C141.084 81.9566 140.615 81.9503 140.146 81.9597C140.005 81.9628 140.021 81.8784 140.021 81.7908V80.8525C140.021 80.5491 140.027 80.2426 140.021 79.9392C140.017 79.8297 140.049 79.7859 140.164 79.789C140.618 79.8016 141.071 79.7859 141.522 79.8141C142.054 79.8485 142.395 80.1456 142.495 80.6054C142.607 81.109 142.438 81.55 142.047 81.7846Z" fill="white"/>
<path d="M114.725 79.1029C114.234 78.7589 113.668 78.6244 113.074 78.615C112.188 78.6025 111.3 78.615 110.412 78.6056C110.224 78.6025 110.184 78.6525 110.184 78.8339C110.196 79.8004 110.19 80.7638 110.19 81.7302C110.19 82.6967 110.193 83.6945 110.187 84.6797C110.184 84.8424 110.227 84.8862 110.387 84.8799C110.743 84.8674 111.1 84.8674 111.457 84.8799C111.61 84.883 111.647 84.833 111.644 84.6891C111.635 84.3325 111.641 83.976 111.641 83.6194C111.641 83.3066 111.799 83.1492 112.113 83.1471C112.755 83.1471 113.402 83.194 114.028 82.9939C114.85 82.728 115.419 82.2119 115.566 81.333C115.72 80.4353 115.501 79.6534 114.725 79.1029ZM114.112 81.1829C114.006 81.6176 113.652 81.9148 113.136 81.9429C112.686 81.9711 112.232 81.9523 111.782 81.9617C111.66 81.9648 111.635 81.9179 111.638 81.8116C111.644 81.4988 111.638 81.1829 111.638 80.8701C111.638 80.5573 111.641 80.2633 111.638 79.9568C111.635 79.8411 111.66 79.7879 111.794 79.791C112.239 79.8035 112.683 79.7848 113.124 79.816C113.874 79.8692 114.287 80.4541 114.112 81.1829Z" fill="white"/>
<path d="M121.488 83.9416C121.466 84.1918 121.479 84.4451 121.485 84.6985C121.491 84.8267 121.466 84.8799 121.319 84.8799C119.821 84.8736 118.323 84.8736 116.825 84.8799C116.665 84.8799 116.65 84.8173 116.65 84.6828C116.653 83.7007 116.653 82.7155 116.653 81.7334C116.653 80.7512 116.656 79.8004 116.646 78.8339C116.646 78.6556 116.684 78.6025 116.872 78.6056C118.301 78.6119 119.727 78.6119 121.157 78.6056C121.316 78.6056 121.388 78.6306 121.376 78.812C121.357 79.0654 121.357 79.3187 121.376 79.569C121.388 79.7535 121.313 79.7785 121.154 79.7754C120.212 79.7691 119.274 79.7785 118.332 79.7691C118.123 79.7691 118.063 79.8254 118.076 80.0287C118.095 80.3134 118.095 80.6011 118.079 80.8889C118.066 81.0765 118.113 81.1391 118.317 81.136C119.127 81.1235 119.937 81.1391 120.744 81.1266C120.938 81.1235 121.01 81.1735 120.994 81.3737C120.975 81.5957 120.978 81.8241 120.994 82.0493C121.003 82.2276 120.941 82.2682 120.772 82.2651C119.956 82.2557 119.136 82.2682 118.317 82.2557C118.12 82.2526 118.066 82.3057 118.076 82.4997C118.095 82.8218 118.098 83.144 118.076 83.4661C118.06 83.6851 118.148 83.7164 118.339 83.7164C119.305 83.707 120.275 83.7164 121.241 83.707C121.423 83.707 121.507 83.7289 121.488 83.9416Z" fill="white"/>
<path d="M174.793 84.706C174.799 84.8467 174.749 84.878 174.615 84.878C173.126 84.8717 171.637 84.8717 170.151 84.878C169.982 84.878 169.951 84.8248 169.954 84.6716C169.961 83.6894 169.957 82.7073 169.957 81.7252C169.957 80.7431 169.964 79.7922 169.951 78.8258C169.951 78.6381 170.007 78.6006 170.183 78.6037C171.612 78.6099 173.038 78.6099 174.468 78.6037C174.637 78.6037 174.69 78.6443 174.68 78.8164C174.665 79.0603 174.665 79.3043 174.68 79.5483C174.693 79.7266 174.64 79.7797 174.455 79.7766C173.532 79.7672 172.61 79.7829 171.687 79.7641C171.424 79.7578 171.362 79.8392 171.384 80.0831C171.406 80.3584 171.396 80.6399 171.384 80.9151C171.374 81.0871 171.427 81.1372 171.6 81.1341C172.41 81.1247 173.22 81.1372 174.027 81.1247C174.236 81.1215 174.33 81.1622 174.305 81.3905C174.274 81.672 174.424 82.0536 174.246 82.2131C174.089 82.3539 173.717 82.2569 173.439 82.2569C172.822 82.26 172.203 82.2632 171.587 82.2538C171.424 82.2538 171.377 82.2913 171.384 82.4571C171.396 82.8043 171.399 83.1515 171.384 83.4986C171.374 83.6801 171.44 83.7145 171.603 83.7145C172.588 83.7051 173.573 83.7176 174.555 83.7051C174.755 83.702 174.805 83.7583 174.793 83.949C174.777 84.2024 174.78 84.4557 174.793 84.706Z" fill="white"/>
<path d="M108.725 82.5584C108.606 84.0159 107.674 84.8917 106.21 84.973C105.353 85.0199 104.54 84.8885 103.883 84.2692C103.283 83.7031 103.105 82.9712 103.095 82.1861C103.083 81.0633 103.095 79.9404 103.089 78.8175C103.089 78.6455 103.136 78.5986 103.308 78.6049C103.646 78.6174 103.987 78.6205 104.324 78.6049C104.521 78.5923 104.546 78.6674 104.543 78.8394C104.537 79.8904 104.54 80.9444 104.54 81.9954C104.54 82.2925 104.559 82.5865 104.646 82.8743C104.819 83.4373 105.25 83.7313 105.919 83.7406C106.576 83.7532 107.027 83.456 107.214 82.9024C107.33 82.5646 107.324 82.2206 107.327 81.8702V80.5941C107.327 79.9998 107.333 79.4087 107.321 78.8175C107.321 78.6424 107.374 78.5986 107.543 78.6049C107.89 78.6174 108.237 78.608 108.587 78.608C108.688 78.608 108.769 78.5986 108.769 78.7487C108.744 80.0186 108.831 81.2916 108.725 82.5584Z" fill="white"/>
<path d="M149.458 79.0332C148.979 78.7392 148.444 78.6203 147.891 78.6141C147.002 78.6047 146.114 78.6172 145.229 78.6016C145.038 78.6016 145.023 78.6735 145.026 78.8268C145.032 79.7932 145.026 80.7566 145.026 81.7231C145.026 82.6896 145.029 83.6873 145.026 84.6694C145.023 84.8196 145.041 84.8884 145.217 84.879C145.573 84.8634 145.93 84.8665 146.286 84.879C146.436 84.8821 146.477 84.8383 146.474 84.6913C146.464 84.2378 146.474 83.7843 146.468 83.3339C146.464 83.1837 146.511 83.14 146.658 83.1462C147.049 83.1556 147.44 83.1556 147.831 83.1462C148.366 83.1337 148.889 83.0493 149.361 82.7834C150.065 82.3862 150.418 81.7762 150.443 80.9724C150.468 80.1467 150.177 79.4773 149.458 79.0332ZM147.994 81.9389C147.534 81.9764 147.071 81.9514 146.611 81.9608C146.49 81.9639 146.468 81.9107 146.468 81.8044C146.474 81.4916 146.471 81.1788 146.471 80.8661V79.9528C146.471 79.8683 146.468 79.7901 146.583 79.7932C147.087 79.8058 147.597 79.7463 148.094 79.8339C148.704 79.9434 148.998 80.3281 148.979 80.9318C148.957 81.5104 148.61 81.8889 147.994 81.9389Z" fill="white"/>
<path d="M137.842 84.6989C136.976 82.7503 136.103 80.8079 135.243 78.8562C135.156 78.6498 135.046 78.5935 134.84 78.606C134.546 78.6216 134.245 78.6248 133.951 78.6029C133.751 78.5903 133.667 78.6685 133.592 78.8406C133.035 80.1104 132.469 81.3741 131.903 82.6408C131.577 83.3758 131.252 84.1109 130.911 84.8772C131.393 84.8772 131.843 84.874 132.294 84.8772C132.397 84.8803 132.419 84.8177 132.45 84.7427C132.588 84.3955 132.738 84.0546 132.872 83.7074C132.922 83.5791 132.991 83.5228 133.138 83.5228C133.983 83.5322 134.827 83.5291 135.672 83.5228C135.809 83.5228 135.872 83.5666 135.919 83.6917C136.053 84.0389 136.203 84.3798 136.347 84.7239C136.375 84.7927 136.378 84.8772 136.491 84.8772C136.954 84.874 137.42 84.8772 137.911 84.8772C137.88 84.7927 137.864 84.7458 137.842 84.6989ZM133.56 82.4281C133.454 82.4281 133.416 82.4 133.46 82.2936C133.77 81.5555 134.08 80.8142 134.405 80.0385C134.74 80.8455 135.059 81.6149 135.393 82.425C134.758 82.425 134.161 82.425 133.56 82.425V82.4281Z" fill="white"/>
<path d="M101.478 84.4163C101.037 84.7416 100.546 84.9105 100.008 84.9543C98.9978 85.0387 98.0344 84.9011 97.143 84.3819C96.9929 84.2943 96.9616 84.2224 97.0461 84.0597C97.1931 83.7782 97.3151 83.478 97.4527 83.1714C98.0032 83.5343 98.5912 83.7501 99.2355 83.8064C99.5764 83.8376 99.9174 83.8314 100.243 83.7219C100.505 83.6343 100.706 83.4717 100.721 83.1683C100.74 82.8774 100.543 82.7367 100.315 82.6272C99.9737 82.4646 99.6015 82.4083 99.2386 82.3176C98.8101 82.2112 98.3879 82.0892 97.9844 81.8984C96.7364 81.2979 96.9303 79.7434 97.6841 79.1241C98.122 78.7644 98.6318 78.5924 99.1886 78.533C100.055 78.4422 100.887 78.5611 101.678 78.9302C101.85 79.0115 101.903 79.0991 101.807 79.2867C101.694 79.4994 101.609 79.7278 101.528 79.9561C101.475 80.1125 101.425 80.15 101.259 80.0656C100.637 79.7465 99.9768 79.587 99.2699 79.7027C99.1479 79.7215 99.0322 79.7559 98.9227 79.8091C98.685 79.9217 98.5349 80.0937 98.5255 80.3721C98.5192 80.6536 98.7007 80.7943 98.9259 80.8944C99.3575 81.079 99.8267 81.1478 100.277 81.2697C100.596 81.3573 100.909 81.4512 101.212 81.5825C102.476 82.1361 102.388 83.7407 101.478 84.4163Z" fill="white"/>
<path d="M181.191 78.8136C180.475 80.0116 179.758 81.2095 179.033 82.4012C178.936 82.5638 178.886 82.7233 178.889 82.9141C178.898 83.4959 178.886 84.0808 178.895 84.6625C178.898 84.8346 178.851 84.8846 178.679 84.8784C178.323 84.8658 177.966 84.8658 177.61 84.8784C177.466 84.8815 177.438 84.8346 177.438 84.7001C177.444 84.0839 177.438 83.4646 177.444 82.8484C177.447 82.7014 177.406 82.5826 177.331 82.4575C176.587 81.2251 175.846 79.9897 175.104 78.7542C175.082 78.7198 175.067 78.6791 175.029 78.6072C175.489 78.6072 175.914 78.6166 176.34 78.6041C176.502 78.5978 176.587 78.6541 176.665 78.7917C177.137 79.5924 177.619 80.3869 178.098 81.1845C178.132 81.2408 178.17 81.2971 178.223 81.3815C178.604 80.7528 178.964 80.1429 179.336 79.5393C179.527 79.2296 179.633 78.7948 179.931 78.6478C180.215 78.504 180.628 78.6103 180.985 78.6072H181.275C181.297 78.701 181.229 78.7511 181.191 78.8136Z" fill="white"/>
</svg>
