<?xml version="1.0" encoding="UTF-8"?>
<svg xmlns="http://www.w3.org/2000/svg" width="115" height="69" viewBox="0 0 115 69" fill="none">
  <path d="M75.5 49L65 49C60.5817 49 57 45.4183 57 41L57 1" stroke="#272727" stroke-linecap="round" stroke-linejoin="round"></path>
  <rect x="0.5" y="35.5" width="114" height="33" rx="7.5" fill="#5CFF9C" stroke="black"></rect>
  <path d="M31.3848 56H29.5801L26.0527 49.8652V56H24.3711V47.3633H26.2637L29.7031 53.3926V47.3633H31.3848V56ZM39.084 52.2266H34.8887V54.4473H39.6699V56H33.125V47.3633H39.459V48.8926H34.8887V50.7266H39.084V52.2266ZM49.4785 47.3633H51.3125L48.8809 56H47.1582L46.1152 50.9492L45.8105 49.2793L45.5059 50.9492L44.4629 56H42.7871L40.3379 47.3633H42.2539L43.3965 52.3086L43.6426 53.6855L43.8945 52.3379L44.8672 47.3633H46.7715L47.7969 52.3086L48.0605 53.6855L48.3242 52.3613L49.4785 47.3633ZM55.748 47.3633H57.5527V54.4473H61.8301V56H55.748V47.3633ZM69.0957 52.2266H64.9004V54.4473H69.6816V56H63.1367V47.3633H69.4707V48.8926H64.9004V50.7266H69.0957V52.2266ZM76.1445 54.2246H72.9629L72.3652 56H70.4785L73.5605 47.3633H75.5996L78.6582 56H76.7012L76.1445 54.2246ZM75.6406 52.7363L74.5625 49.3379L73.4492 52.7363H75.6406ZM83.4805 56H79.7598V47.3633H83.4805C84.0156 47.3711 84.4609 47.4336 84.8164 47.5508C85.4219 47.75 85.9121 48.1152 86.2871 48.6465C86.5879 49.0762 86.793 49.541 86.9023 50.041C87.0117 50.541 87.0664 51.0176 87.0664 51.4707C87.0664 52.6191 86.8359 53.5918 86.375 54.3887C85.75 55.4629 84.7852 56 83.4805 56ZM84.8223 49.5664C84.5449 49.0977 83.9961 48.8633 83.1758 48.8633H81.5117V54.5H83.1758C84.0273 54.5 84.6211 54.0801 84.957 53.2402C85.1406 52.7793 85.2324 52.2305 85.2324 51.5938C85.2324 50.7148 85.0957 50.0391 84.8223 49.5664ZM90.6699 49.584L90.1953 53.6152H89.3223L88.8359 49.584V47.3926H90.6699V49.584ZM90.623 54.3066V56H88.877V54.3066H90.623Z" fill="#474747"></path>
</svg>
