<svg width="300" height="120" viewBox="0 0 300 120" fill="none" xmlns="http://www.w3.org/2000/svg">
<g clip-path="url(#clip0_1692_9482)">
<path d="M125.08 69.0545L110.9 54.7367V68.2495C110.884 68.5602 110.749 68.8525 110.523 69.0666C110.298 69.2806 109.999 69.3999 109.688 69.3999C109.377 69.3999 109.078 69.2806 108.852 69.0666C108.626 68.8525 108.492 68.5602 108.475 68.2495V51.8456C108.47 51.6844 108.497 51.5236 108.555 51.3731C108.614 51.2228 108.702 51.0858 108.815 50.9703C108.928 50.855 109.063 50.7638 109.212 50.702C109.361 50.6403 109.521 50.6095 109.683 50.6114C109.846 50.6116 110.008 50.6442 110.159 50.7077C110.31 50.7709 110.447 50.8636 110.561 50.9803L124.742 65.2914V51.8456C124.758 51.5352 124.893 51.2427 125.118 51.0286C125.344 50.8147 125.643 50.6953 125.954 50.6953C126.265 50.6953 126.564 50.8147 126.79 51.0286C127.015 51.2427 127.15 51.5352 127.167 51.8456V68.2563C127.167 68.9908 126.368 69.4638 125.959 69.4638C125.791 69.47 125.623 69.4363 125.47 69.365C125.318 69.2939 125.184 69.1875 125.08 69.0545Z" fill="white"/>
<path d="M132.746 69.3848C132.587 69.3852 132.43 69.3543 132.284 69.2938C132.137 69.2334 132.004 69.1443 131.891 69.0321C131.779 68.9199 131.69 68.7866 131.63 68.6399C131.569 68.4934 131.538 68.3362 131.539 68.1774V53.0145C130.516 53.0145 129.805 52.8065 129.805 51.807C129.805 51.6485 129.836 51.4915 129.897 51.3449C129.957 51.1985 130.046 51.0654 130.158 50.9532C130.27 50.8412 130.404 50.7521 130.55 50.6915C130.697 50.6309 130.854 50.5996 131.012 50.5996H132.746C132.905 50.5996 133.061 50.6309 133.208 50.6916C133.354 50.7523 133.487 50.8413 133.599 50.9535C133.71 51.0655 133.799 51.1987 133.86 51.3452C133.92 51.4916 133.951 51.6487 133.95 51.807V66.9734H134.346C134.51 66.9648 134.673 66.9895 134.827 67.0462C134.981 67.1029 135.122 67.1902 135.24 67.303C135.359 67.4159 135.454 67.5518 135.519 67.7024C135.584 67.8529 135.617 68.0152 135.617 68.1791C135.617 68.3431 135.584 68.5052 135.519 68.6559C135.454 68.8063 135.359 68.9423 135.24 69.0551C135.122 69.1679 134.981 69.2552 134.827 69.312C134.673 69.3687 134.51 69.3935 134.346 69.3848H132.746Z" fill="white"/>
<path d="M146.287 68.2445V53.0279H139.374C139.052 53.0279 138.743 52.8999 138.516 52.6723C138.288 52.4446 138.16 52.1357 138.16 51.8137C138.16 51.4916 138.288 51.1829 138.516 50.9552C138.743 50.7276 139.052 50.5996 139.374 50.5996H155.641C155.963 50.5996 156.271 50.7276 156.499 50.9552C156.727 51.1829 156.855 51.4916 156.855 51.8137C156.855 52.1357 156.727 52.4446 156.499 52.6723C156.271 52.8999 155.963 53.0279 155.641 53.0279H148.715V68.2445C148.715 68.4032 148.684 68.5604 148.624 68.7071C148.563 68.8538 148.474 68.9871 148.362 69.0993C148.25 69.2115 148.117 69.3004 147.97 69.3609C147.823 69.4213 147.666 69.4523 147.507 69.452C147.186 69.4527 146.877 69.3263 146.648 69.1001C146.419 68.8738 146.289 68.5662 146.287 68.2445Z" fill="white"/>
<path d="M175.89 68.1001C175.888 66.286 175.166 64.547 173.883 63.2652C172.599 61.9834 170.859 61.2638 169.045 61.2648H161.894V68.1001C161.894 68.4202 161.767 68.7274 161.541 68.9538C161.314 69.1802 161.007 69.3074 160.687 69.3074C159.822 69.3074 159.479 68.677 159.479 67.862V59.8896C159.479 59.5679 159.605 59.259 159.831 59.0302C160.058 58.8015 160.365 58.6715 160.687 58.6688H173.227C175.052 58.6688 175.444 57.3709 175.444 55.5732C175.444 55.2493 175.381 54.9287 175.257 54.6293C175.134 54.3301 174.952 54.0582 174.723 53.8291C174.494 53.6001 174.222 53.4185 173.923 53.2949C173.624 53.1712 173.303 53.1077 172.979 53.108H160.687C160.528 53.108 160.371 53.0768 160.225 53.0162C160.078 52.9555 159.945 52.8666 159.833 52.7545C159.721 52.6423 159.632 52.5093 159.571 52.3627C159.511 52.2163 159.479 52.0593 159.479 51.9007C159.479 51.7421 159.511 51.5851 159.571 51.4387C159.632 51.2921 159.721 51.159 159.833 51.047C159.945 50.9348 160.078 50.8459 160.225 50.7852C160.371 50.7245 160.528 50.6934 160.687 50.6934H172.992C174.288 50.6934 175.53 51.207 176.448 52.1218C177.365 53.0365 177.882 54.2777 177.886 55.5732C177.886 58.2095 177.188 59.9802 174.79 60.8187C175.89 61.6868 176.779 62.7929 177.391 64.0541C178.002 65.3152 178.319 66.6987 178.318 68.1001C178.318 68.4202 178.191 68.7274 177.965 68.9538C177.738 69.1802 177.431 69.3074 177.111 69.3074C176.791 69.3074 176.484 69.1802 176.257 68.9538C176.031 68.7274 175.904 68.4202 175.904 68.1001H175.89Z" fill="white"/>
<path d="M189.013 69.569C184.569 69.569 180.934 65.6482 180.934 61.3854V58.5112C180.934 56.3687 181.786 54.314 183.301 52.799C184.816 51.284 186.871 50.4325 189.013 50.4316H191.887C194.03 50.4325 196.085 51.284 197.6 52.799C199.115 54.314 199.966 56.3687 199.967 58.5112V61.3854C199.943 63.5256 199.092 65.5734 197.591 67.0992C196.09 68.625 194.057 69.5101 191.918 69.569H189.013ZM197.552 61.3854V58.5112C197.55 57.009 196.953 55.5689 195.891 54.5064C194.829 53.4439 193.39 52.8457 191.887 52.8431H189.013C187.511 52.8467 186.072 53.4451 185.01 54.5073C183.949 55.5696 183.351 57.0093 183.348 58.5112V61.3854C183.364 62.8943 183.965 64.3379 185.024 65.4128C186.083 66.4875 187.518 67.1093 189.027 67.1475H191.874C193.382 67.1093 194.817 66.4875 195.876 65.4128C196.935 64.3379 197.536 62.8943 197.552 61.3854Z" fill="white"/>
<path d="M224.308 69.0547L217.039 61.7364L209.784 69.0547C209.672 69.1722 209.534 69.2633 209.383 69.3214C209.231 69.3794 209.069 69.4028 208.906 69.39C208.745 69.4027 208.584 69.3792 208.434 69.3211C208.286 69.263 208.151 69.172 208.041 69.0547C207.928 68.9459 207.839 68.8156 207.778 68.6716C207.717 68.5275 207.686 68.3727 207.686 68.2163C207.686 68.0598 207.717 67.905 207.778 67.7609C207.839 67.6169 207.928 67.4866 208.041 67.3777L215.359 59.9791L208.054 52.6575C207.942 52.5486 207.853 52.4183 207.791 52.2742C207.73 52.1302 207.699 51.9755 207.699 51.8189C207.706 51.5002 207.839 51.197 208.066 50.9739C208.294 50.7509 208.6 50.6258 208.919 50.625C209.247 50.624 209.563 50.7516 209.799 50.9805L217.053 58.2988L224.308 50.9805C224.417 50.8689 224.547 50.7802 224.691 50.7192C224.834 50.6581 224.989 50.6261 225.145 50.625C225.469 50.6369 225.775 50.7686 226.005 50.9944C226.236 51.22 226.375 51.5236 226.394 51.8458C226.389 52.1492 226.269 52.4395 226.058 52.6575L218.724 59.9791L226.058 67.3777C226.27 67.5944 226.391 67.8855 226.394 68.1894C226.392 68.3547 226.355 68.518 226.284 68.6675C226.214 68.817 226.111 68.9492 225.984 69.0547C225.886 69.1716 225.761 69.2631 225.619 69.3216C225.478 69.3798 225.325 69.4034 225.172 69.39C225.013 69.4027 224.852 69.3792 224.702 69.3211C224.552 69.263 224.417 69.172 224.308 69.0547Z" fill="white"/>
<path d="M229.036 68.1755V60.0424C229.035 59.8838 229.066 59.7268 229.127 59.5802C229.188 59.4338 229.277 59.3007 229.389 59.1888C229.5 59.0768 229.635 58.9882 229.781 58.928C229.927 58.8679 230.085 58.8374 230.242 58.8384H242.988C244.839 58.8384 245.272 57.537 245.272 55.6621C245.271 54.9909 245.003 54.3473 244.53 53.8726C244.055 53.3979 243.411 53.1309 242.739 53.1299H230.242C229.933 53.1137 229.641 52.9787 229.427 52.7532C229.213 52.5276 229.092 52.2285 229.092 51.9176C229.092 51.6065 229.213 51.3074 229.427 51.0818C229.641 50.8563 229.933 50.7215 230.242 50.7051H242.753C244.066 50.7087 245.324 51.2324 246.25 52.1616C247.177 53.091 247.697 54.3498 247.697 55.6621V56.5543C247.697 57.7996 247.202 58.9938 246.322 59.8745C245.441 60.7551 244.247 61.2498 243.002 61.2498H231.45V68.1755C231.45 68.4959 231.324 68.8029 231.097 69.0293C230.871 69.2557 230.563 69.3829 230.242 69.3829C229.924 69.3829 229.616 69.2557 229.389 69.0293C229.163 68.8029 229.036 68.4959 229.036 68.1755Z" fill="white"/>
<path d="M65.4221 65.701L52.04 58.1816V42.7402L65.3986 50.5582L65.4221 65.701Z" fill="white"/>
<path d="M65.3953 50.5621L52.04 42.7408L65.3282 35L78.613 42.6972L65.3953 50.5621Z" fill="white"/>
<path d="M82.1143 75.3496L95.3655 67.6893L95.3891 52.3887L82.1143 60.1162V75.3496Z" fill="white"/>
<path d="M82.1143 60.1171L95.3924 52.3896L81.8794 44.5918L68.665 52.4668L82.1143 60.1171Z" fill="white"/>
<path d="M52.0369 61.9668L52 77.4451L65.4055 85.0015L65.4022 69.4829L52.0369 61.9668Z" fill="white"/>
<path d="M65.4023 69.4807L65.4057 84.9993L78.8347 77.2451V61.9277L65.4023 69.4807Z" fill="white"/>
</g>
<defs>
<clipPath id="clip0_1692_9482">
<rect width="196.875" height="50" fill="white" transform="translate(52 35)"/>
</clipPath>
</defs>
</svg>
