<svg width="114" height="105" viewBox="0 0 114 105" fill="none" xmlns="http://www.w3.org/2000/svg">
<g clip-path="url(#clip0_1699_9539)">
<mask id="mask0_1699_9539" style="mask-type:luminance" maskUnits="userSpaceOnUse" x="0" y="-34" width="139" height="139">
<path d="M0.000197887 -3.42582L30.5742 104.32L138.32 73.7463L107.746 -33.9998L0.000197887 -3.42582Z" fill="white"/>
</mask>
<g mask="url(#mask0_1699_9539)">
<path d="M104.48 7.09264C102.243 -0.788725 97.8816 -7.49264 92.1925 -12.574C105.355 -6.21714 115.843 5.52438 120.147 20.6922C128.138 48.8513 111.787 78.1569 83.6281 86.1473C55.4688 94.1378 26.1635 77.7874 18.1731 49.6283C13.869 34.4603 16.6272 18.9599 24.4891 6.63717C22.3167 13.9493 22.1262 21.9451 24.3626 29.8266C30.6405 51.9505 53.6644 64.7959 75.7881 58.5181C97.912 52.2402 110.757 29.2165 104.48 7.09264ZM60.3482 4.1063C68.2753 1.85692 76.525 6.45962 78.7744 14.3867C81.0238 22.3138 76.4211 30.5636 68.494 32.813C60.5669 35.0623 52.3172 30.4596 50.0678 22.5325C47.8184 14.6054 52.4211 6.3557 60.3482 4.1063Z" stroke="url(#paint0_linear_1699_9539)" stroke-width="6"/>
</g>
</g>
<defs>
<linearGradient id="paint0_linear_1699_9539" x1="3.51601" y1="8.96503" x2="106.692" y2="59.7278" gradientUnits="userSpaceOnUse">
<stop stop-color="#B0B9FF"/>
<stop offset="1" stop-color="#E7E9FF"/>
</linearGradient>
<clipPath id="clip0_1699_9539">
<rect width="112" height="112" fill="white" transform="translate(0 -3.42578) rotate(-15.8418)"/>
</clipPath>
</defs>
</svg>
