<svg width="86" height="94" viewBox="0 0 86 94" fill="none" xmlns="http://www.w3.org/2000/svg">
<g clip-path="url(#clip0_1699_9546)">
<mask id="mask0_1699_9546" style="mask-type:luminance" maskUnits="userSpaceOnUse" x="0" y="-18" width="112" height="112">
<path d="M112 -18H0V94H112V-18Z" fill="white"/>
</mask>
<g mask="url(#mask0_1699_9546)">
<path fill-rule="evenodd" clip-rule="evenodd" d="M73.9962 74.1407C68.5619 83.1982 61.9903 87.28 56 87.28C50.0095 87.28 43.438 83.1982 38.0036 74.1407C32.6494 65.2171 29.12 52.4553 29.12 38C29.12 23.5446 32.6494 10.783 38.0036 1.85945C43.438 -7.19788 50.0095 -11.28 56 -11.28C61.9903 -11.28 68.5619 -7.19788 73.9962 1.85945C79.3503 10.783 82.88 23.5446 82.88 38C82.88 52.4553 79.3503 65.2171 73.9962 74.1407ZM112 38C112 7.07204 86.9277 -18 56 -18C25.072 -18 0 7.07204 0 38C0 68.9277 25.072 94 56 94C86.9277 94 112 68.9277 112 38ZM6.72 38C6.72 58.1208 18.7783 75.4248 36.0625 83.08C27.775 72.8818 22.4 56.4873 22.4 38C22.4 19.5129 27.775 3.11805 36.0625 -7.08028C18.7783 0.575256 6.72 17.8794 6.72 38ZM105.28 38C105.28 58.1208 93.2215 75.4248 75.9377 83.08C84.2251 72.8818 89.6 56.4873 89.6 38C89.6 19.5129 84.2251 3.11805 75.9377 -7.08028C93.2215 0.575256 105.28 17.8794 105.28 38ZM56 44.16C59.402 44.16 62.16 41.402 62.16 38C62.16 34.5979 59.402 31.84 56 31.84C52.5979 31.84 49.84 34.5979 49.84 38C49.84 41.402 52.5979 44.16 56 44.16Z" fill="url(#paint0_linear_1699_9546)"/>
</g>
</g>
<defs>
<linearGradient id="paint0_linear_1699_9546" x1="56" y1="-18" x2="56" y2="94" gradientUnits="userSpaceOnUse">
<stop stop-color="#B8DBFC"/>
<stop offset="1" stop-color="#F8FBFE"/>
</linearGradient>
<clipPath id="clip0_1699_9546">
<rect width="112" height="112" fill="white" transform="translate(0 -18)"/>
</clipPath>
</defs>
</svg>
