<svg width="98" height="93" viewBox="0 0 98 93" fill="none" xmlns="http://www.w3.org/2000/svg">
<mask id="mask0_1699_9581" style="mask-type:luminance" maskUnits="userSpaceOnUse" x="0" y="0" width="112" height="112">
<path d="M112 0H0V112H112V0Z" fill="white"/>
</mask>
<g mask="url(#mask0_1699_9581)">
<path fill-rule="evenodd" clip-rule="evenodd" d="M61.3 3C64.2272 3 66.6 5.37289 66.6 8.3V17.614C66.6 22.3358 72.3086 24.7005 75.6476 21.3616L82.2334 14.7756C84.3036 12.7059 87.659 12.7059 89.7292 14.7756L97.2245 22.271C99.2941 24.3408 99.2941 27.6966 97.2245 29.7663L90.6381 36.3523C87.2997 39.6912 89.664 45.4 94.3858 45.4H103.7C106.627 45.4 109 47.7729 109 50.7V61.3C109 64.2272 106.627 66.6 103.7 66.6H94.3858C89.664 66.6 87.2997 72.3086 90.6381 75.6476L97.2245 82.2334C99.2941 84.3036 99.2941 87.659 97.2245 89.7292L89.7292 97.2245C87.659 99.2941 84.3036 99.2941 82.2334 97.2245L75.6476 90.6381C72.3086 87.2997 66.6 89.664 66.6 94.3858V103.7C66.6 106.627 64.2272 109 61.3 109H50.7C47.7729 109 45.4 106.627 45.4 103.7V94.3858C45.4 89.664 39.6912 87.2997 36.3523 90.6381L29.7663 97.2245C27.6966 99.2941 24.3408 99.2941 22.271 97.2245L14.7757 89.7292C12.7059 87.659 12.7059 84.3036 14.7757 82.2334L21.3617 75.6476C24.7005 72.3086 22.3358 66.6 17.614 66.6H8.3C5.37289 66.6 3 64.2272 3 61.3V50.7C3 47.7729 5.37289 45.4 8.3 45.4H17.614C22.3358 45.4 24.7005 39.6912 21.3617 36.3523L14.7757 29.7663C12.7059 27.6965 12.7059 24.3408 14.7757 22.271L22.271 14.7756C24.3408 12.7059 27.6966 12.7059 29.7663 14.7756L36.3523 21.3616C39.6912 24.7005 45.4 22.3358 45.4 17.614V8.3C45.4 5.37289 47.7729 3 50.7 3H61.3ZM56 82.5C70.6354 82.5 82.5 70.6354 82.5 56C82.5 41.3645 70.6354 29.5 56 29.5C41.3645 29.5 29.5 41.3645 29.5 56C29.5 70.6354 41.3645 82.5 56 82.5Z" stroke="url(#paint0_linear_1699_9581)" stroke-width="4"/>
</g>
<defs>
<linearGradient id="paint0_linear_1699_9581" x1="56" y1="3" x2="56" y2="109" gradientUnits="userSpaceOnUse">
<stop stop-color="#B8DBFC"/>
<stop offset="1" stop-color="#F8FBFE"/>
</linearGradient>
</defs>
</svg>
