<svg width="101" height="101" viewBox="0 0 101 101" fill="none" xmlns="http://www.w3.org/2000/svg">
<g clip-path="url(#clip0_1719_11925)">
<path d="M57.0947 87.6582H44.5947" stroke="black" stroke-width="6" stroke-linecap="round" stroke-linejoin="round"/>
<path d="M50.8452 43.9062C53.434 43.9062 55.5327 41.8076 55.5327 39.2188C55.5327 36.6299 53.434 34.5312 50.8452 34.5312C48.2564 34.5312 46.1577 36.6299 46.1577 39.2188C46.1577 41.8076 48.2564 43.9062 50.8452 43.9062Z" fill="black"/>
<path d="M37.881 75.1559C15.5021 37.3902 41.4201 12.8629 48.9279 7.06211C49.4763 6.63576 50.1512 6.4043 50.8459 6.4043C51.5405 6.4043 52.2154 6.63576 52.7638 7.06211C60.2716 12.8629 86.1896 37.3902 63.8107 75.1559H37.881Z" stroke="black" stroke-width="6" stroke-linecap="round" stroke-linejoin="round"/>
<path d="M72.6562 43.4688L84.4961 57.6719C84.8019 58.0392 85.0194 58.4718 85.1318 58.9363C85.2442 59.4009 85.2486 59.8851 85.1445 60.3516L80.3164 82.082C80.2013 82.6002 79.9561 83.0805 79.6039 83.4777C79.2518 83.8749 78.8042 84.1758 78.3035 84.3521C77.8028 84.5283 77.2655 84.5742 76.7422 84.4852C76.2189 84.3963 75.7268 84.1755 75.3125 83.8438L63.8086 75.1563" stroke="black" stroke-width="6" stroke-linecap="round" stroke-linejoin="round"/>
<path d="M29.032 43.4688L17.1921 57.6719C16.8863 58.0392 16.6688 58.4718 16.5564 58.9363C16.444 59.4009 16.4396 59.8851 16.5437 60.3516L21.3718 82.082C21.4869 82.6002 21.7321 83.0805 22.0843 83.4777C22.4365 83.8749 22.884 84.1758 23.3847 84.3521C23.8854 84.5283 24.4227 84.5742 24.946 84.4852C25.4693 84.3963 25.9614 84.1755 26.3757 83.8438L37.8796 75.1563" stroke="black" stroke-width="6" stroke-linecap="round" stroke-linejoin="round"/>
</g>
<defs>
<clipPath id="clip0_1719_11925">
<rect width="100" height="100" fill="white" transform="translate(0.845215 0.15625)"/>
</clipPath>
</defs>
</svg>
