<?xml version="1.0" encoding="UTF-8"?>
<svg xmlns="http://www.w3.org/2000/svg" width="362" height="107" viewBox="0 0 362 107" fill="none">
  <rect x="6.5" y="6.5" width="349" height="94" fill="#333333"></rect>
  <rect x="6.5" y="6.5" width="349" height="94" stroke="#EEEEEE"></rect>
  <rect x="0.5" y="0.5" width="11" height="11" rx="5.5" fill="#333333"></rect>
  <rect x="0.5" y="0.5" width="11" height="11" rx="5.5" stroke="#EEEEEE"></rect>
  <rect x="350.5" y="0.5" width="11" height="11" rx="5.5" fill="#333333"></rect>
  <rect x="350.5" y="0.5" width="11" height="11" rx="5.5" stroke="#EEEEEE"></rect>
  <rect x="0.5" y="95.5" width="11" height="11" rx="5.5" fill="#333333"></rect>
  <rect x="0.5" y="95.5" width="11" height="11" rx="5.5" stroke="#EEEEEE"></rect>
  <rect x="350.5" y="95.5" width="11" height="11" rx="5.5" fill="#333333"></rect>
  <rect x="350.5" y="95.5" width="11" height="11" rx="5.5" stroke="#EEEEEE"></rect>
  <path d="M34.4551 31.5332H29.7969V40H25.3877V18.4082H35.9785C37.4922 18.4375 38.6543 18.623 39.4648 18.9648C40.2852 19.3066 40.9785 19.8096 41.5449 20.4736C42.0137 21.0205 42.3848 21.626 42.6582 22.29C42.9316 22.9541 43.0684 23.7109 43.0684 24.5605C43.0684 25.5859 42.8096 26.5967 42.292 27.5928C41.7744 28.5791 40.9199 29.2773 39.7285 29.6875C40.7246 30.0879 41.4277 30.6592 41.8379 31.4014C42.2578 32.1338 42.4678 33.2568 42.4678 34.7705V36.2207C42.4678 37.207 42.5068 37.876 42.585 38.2275C42.7021 38.7842 42.9756 39.1943 43.4053 39.458V40H38.4395C38.3027 39.5215 38.2051 39.1357 38.1465 38.8428C38.0293 38.2373 37.9658 37.6172 37.9561 36.9824L37.9268 34.9756C37.9072 33.5986 37.6533 32.6807 37.165 32.2217C36.6865 31.7627 35.7832 31.5332 34.4551 31.5332ZM37.1943 27.6074C38.0928 27.1973 38.542 26.3867 38.542 25.1758C38.542 23.8672 38.1074 22.9883 37.2383 22.5391C36.75 22.2852 36.0176 22.1582 35.041 22.1582H29.7969V27.959H34.9092C35.9248 27.959 36.6865 27.8418 37.1943 27.6074ZM56.5156 40.6006C53.4297 40.6006 51.0713 39.7607 49.4404 38.0811C47.2529 36.0205 46.1592 33.0518 46.1592 29.1748C46.1592 25.2197 47.2529 22.251 49.4404 20.2686C51.0713 18.5889 53.4297 17.749 56.5156 17.749C59.6016 17.749 61.96 18.5889 63.5908 20.2686C65.7686 22.251 66.8574 25.2197 66.8574 29.1748C66.8574 33.0518 65.7686 36.0205 63.5908 38.0811C61.96 39.7607 59.6016 40.6006 56.5156 40.6006ZM60.7783 34.7998C61.8232 33.4814 62.3457 31.6064 62.3457 29.1748C62.3457 26.7529 61.8184 24.8828 60.7637 23.5645C59.7188 22.2363 58.3027 21.5723 56.5156 21.5723C54.7285 21.5723 53.3027 22.2314 52.2383 23.5498C51.1738 24.8682 50.6416 26.7432 50.6416 29.1748C50.6416 31.6064 51.1738 33.4814 52.2383 34.7998C53.3027 36.1182 54.7285 36.7773 56.5156 36.7773C58.3027 36.7773 59.7236 36.1182 60.7783 34.7998ZM69.9629 18.4082H74.4453V40H69.9629V18.4082ZM88.0508 27.2266V40H84.6641V27.2266H88.0508ZM88.0508 22.6211V25.7031H84.6641V22.6211H88.0508ZM100.098 27.8125C101.098 28.4531 101.672 29.5547 101.82 31.1172H98.4805C98.4336 30.6875 98.3125 30.3477 98.1172 30.0977C97.75 29.6445 97.125 29.418 96.2422 29.418C95.5156 29.418 94.9961 29.5312 94.6836 29.7578C94.3789 29.9844 94.2266 30.25 94.2266 30.5547C94.2266 30.9375 94.3906 31.2148 94.7188 31.3867C95.0469 31.5664 96.207 31.875 98.1992 32.3125C99.5273 32.625 100.523 33.0977 101.188 33.7305C101.844 34.3711 102.172 35.1719 102.172 36.1328C102.172 37.3984 101.699 38.4336 100.754 39.2383C99.8164 40.0352 98.3633 40.4336 96.3945 40.4336C94.3867 40.4336 92.9023 40.0117 91.9414 39.168C90.9883 38.3164 90.5117 37.2344 90.5117 35.9219H93.8984C93.9688 36.5156 94.1211 36.9375 94.3555 37.1875C94.7695 37.6328 95.5352 37.8555 96.6523 37.8555C97.3086 37.8555 97.8281 37.7578 98.2109 37.5625C98.6016 37.3672 98.7969 37.0742 98.7969 36.6836C98.7969 36.3086 98.6406 36.0234 98.3281 35.8281C98.0156 35.6328 96.8555 35.2969 94.8477 34.8203C93.4023 34.4609 92.3828 34.0117 91.7891 33.4727C91.1953 32.9414 90.8984 32.1758 90.8984 31.1758C90.8984 29.9961 91.3594 28.9844 92.2812 28.1406C93.2109 27.2891 94.5156 26.8633 96.1953 26.8633C97.7891 26.8633 99.0898 27.1797 100.098 27.8125ZM110.668 29.6992C109.535 29.6992 108.758 30.1797 108.336 31.1406C108.117 31.6484 108.008 32.2969 108.008 33.0859V40H104.68V27.25H107.902V29.1133C108.332 28.457 108.738 27.9844 109.121 27.6953C109.809 27.1797 110.68 26.9219 111.734 26.9219C113.055 26.9219 114.133 27.2695 114.969 27.9648C115.812 28.6523 116.234 29.7969 116.234 31.3984V40H112.812V32.2305C112.812 31.5586 112.723 31.043 112.543 30.6836C112.215 30.0273 111.59 29.6992 110.668 29.6992ZM118.93 22.7266H122.129L121.543 29.8633H119.516L118.93 22.7266ZM130.895 37.6211V40.1172L129.312 40.1758C127.734 40.2305 126.656 39.957 126.078 39.3555C125.703 38.9727 125.516 38.3828 125.516 37.5859V29.7227H123.734V27.3438H125.516V23.7812H128.82V27.3438H130.895V29.7227H128.82V36.4727C128.82 36.9961 128.887 37.3242 129.02 37.457C129.152 37.582 129.559 37.6445 130.238 37.6445C130.34 37.6445 130.445 37.6445 130.555 37.6445C130.672 37.6367 130.785 37.6289 130.895 37.6211ZM140.199 28.6094C141.082 27.4844 142.598 26.9219 144.746 26.9219C146.145 26.9219 147.387 27.1992 148.473 27.7539C149.559 28.3086 150.102 29.3555 150.102 30.8945V36.7539C150.102 37.1602 150.109 37.6523 150.125 38.2305C150.148 38.668 150.215 38.9648 150.324 39.1211C150.434 39.2773 150.598 39.4062 150.816 39.5078V40H147.184C147.082 39.7422 147.012 39.5 146.973 39.2734C146.934 39.0469 146.902 38.7891 146.879 38.5C146.418 39 145.887 39.4258 145.285 39.7773C144.566 40.1914 143.754 40.3984 142.848 40.3984C141.691 40.3984 140.734 40.0703 139.977 39.4141C139.227 38.75 138.852 37.8125 138.852 36.6016C138.852 35.0312 139.457 33.8945 140.668 33.1914C141.332 32.8086 142.309 32.5352 143.598 32.3711L144.734 32.2305C145.352 32.1523 145.793 32.0547 146.059 31.9375C146.535 31.7344 146.773 31.418 146.773 30.9883C146.773 30.4648 146.59 30.1055 146.223 29.9102C145.863 29.707 145.332 29.6055 144.629 29.6055C143.84 29.6055 143.281 29.8008 142.953 30.1914C142.719 30.4805 142.562 30.8711 142.484 31.3633H139.262C139.332 30.2461 139.645 29.3281 140.199 28.6094ZM142.684 37.5859C142.996 37.8438 143.379 37.9727 143.832 37.9727C144.551 37.9727 145.211 37.7617 145.812 37.3398C146.422 36.918 146.738 36.1484 146.762 35.0312V33.7891C146.551 33.9219 146.336 34.0312 146.117 34.1172C145.906 34.1953 145.613 34.2695 145.238 34.3398L144.488 34.4805C143.785 34.6055 143.281 34.7578 142.977 34.9375C142.461 35.2422 142.203 35.7148 142.203 36.3555C142.203 36.9258 142.363 37.3359 142.684 37.5859ZM159.09 29.6992C157.957 29.6992 157.18 30.1797 156.758 31.1406C156.539 31.6484 156.43 32.2969 156.43 33.0859V40H153.102V27.25H156.324V29.1133C156.754 28.457 157.16 27.9844 157.543 27.6953C158.23 27.1797 159.102 26.9219 160.156 26.9219C161.477 26.9219 162.555 27.2695 163.391 27.9648C164.234 28.6523 164.656 29.7969 164.656 31.3984V40H161.234V32.2305C161.234 31.5586 161.145 31.043 160.965 30.6836C160.637 30.0273 160.012 29.6992 159.09 29.6992ZM185.082 28.8437C186.16 30.1953 186.699 31.793 186.699 33.6367C186.699 35.5117 186.16 37.1172 185.082 38.4531C184.004 39.7812 182.367 40.4453 180.172 40.4453C177.977 40.4453 176.34 39.7812 175.262 38.4531C174.184 37.1172 173.645 35.5117 173.645 33.6367C173.645 31.793 174.184 30.1953 175.262 28.8437C176.34 27.4922 177.977 26.8164 180.172 26.8164C182.367 26.8164 184.004 27.4922 185.082 28.8437ZM180.16 29.6406C179.184 29.6406 178.43 29.9883 177.898 30.6836C177.375 31.3711 177.113 32.3555 177.113 33.6367C177.113 34.918 177.375 35.9062 177.898 36.6016C178.43 37.2969 179.184 37.6445 180.16 37.6445C181.137 37.6445 181.887 37.2969 182.41 36.6016C182.934 35.9062 183.195 34.918 183.195 33.6367C183.195 32.3555 182.934 31.3711 182.41 30.6836C181.887 29.9883 181.137 29.6406 180.16 29.6406ZM199.801 28.5977C200.832 29.6992 201.348 31.3164 201.348 33.4492C201.348 35.6992 200.84 37.4141 199.824 38.5938C198.816 39.7734 197.516 40.3633 195.922 40.3633C194.906 40.3633 194.062 40.1094 193.391 39.6016C193.023 39.3203 192.664 38.9102 192.312 38.3711V45.0273H189.008V27.2266H192.207V29.1133C192.566 28.5586 192.949 28.1211 193.355 27.8008C194.098 27.2305 194.98 26.9453 196.004 26.9453C197.496 26.9453 198.762 27.4961 199.801 28.5977ZM197.902 33.6133C197.902 32.6289 197.676 31.7578 197.223 31C196.777 30.2422 196.051 29.8633 195.043 29.8633C193.832 29.8633 193 30.4375 192.547 31.5859C192.312 32.1953 192.195 32.9688 192.195 33.9062C192.195 35.3906 192.59 36.4336 193.379 37.0352C193.848 37.3867 194.402 37.5625 195.043 37.5625C195.973 37.5625 196.68 37.2031 197.164 36.4844C197.656 35.7656 197.902 34.8086 197.902 33.6133ZM209.621 37.6211V40.1172L208.039 40.1758C206.461 40.2305 205.383 39.957 204.805 39.3555C204.43 38.9727 204.242 38.3828 204.242 37.5859V29.7227H202.461V27.3437H204.242V23.7812H207.547V27.3437H209.621V29.7227H207.547V36.4727C207.547 36.9961 207.613 37.3242 207.746 37.457C207.879 37.582 208.285 37.6445 208.965 37.6445C209.066 37.6445 209.172 37.6445 209.281 37.6445C209.398 37.6367 209.512 37.6289 209.621 37.6211ZM215.199 27.2266V40H211.812V27.2266H215.199ZM215.199 22.6211V25.7031H211.812V22.6211L215.199 22.6211ZM229.098 28.8437C230.176 30.1953 230.715 31.793 230.715 33.6367C230.715 35.5117 230.176 37.1172 229.098 38.4531C228.02 39.7812 226.383 40.4453 224.188 40.4453C221.992 40.4453 220.355 39.7812 219.277 38.4531C218.199 37.1172 217.66 35.5117 217.66 33.6367C217.66 31.793 218.199 30.1953 219.277 28.8437C220.355 27.4922 221.992 26.8164 224.188 26.8164C226.383 26.8164 228.02 27.4922 229.098 28.8437ZM224.176 29.6406C223.199 29.6406 222.445 29.9883 221.914 30.6836C221.391 31.3711 221.129 32.3555 221.129 33.6367C221.129 34.918 221.391 35.9062 221.914 36.6016C222.445 37.2969 223.199 37.6445 224.176 37.6445C225.152 37.6445 225.902 37.2969 226.426 36.6016C226.949 35.9062 227.211 34.918 227.211 33.6367C227.211 32.3555 226.949 31.3711 226.426 30.6836C225.902 29.9883 225.152 29.6406 224.176 29.6406ZM239.129 29.6992C237.996 29.6992 237.219 30.1797 236.797 31.1406C236.578 31.6484 236.469 32.2969 236.469 33.0859V40H233.141V27.25H236.363V29.1133C236.793 28.457 237.199 27.9844 237.582 27.6953C238.27 27.1797 239.141 26.9219 240.195 26.9219C241.516 26.9219 242.594 27.2695 243.43 27.9648C244.273 28.6523 244.695 29.7969 244.695 31.3984V40H241.273V32.2305C241.273 31.5586 241.184 31.043 241.004 30.6836C240.676 30.0273 240.051 29.6992 239.129 29.6992Z" fill="#EEEEEE"></path>
  <path d="M25.7969 56.2109H31.7734V85H25.7969V56.2109ZM46.6953 81.0352V85.1953L44.0586 85.293C41.4284 85.3841 39.6315 84.9284 38.668 83.9258C38.043 83.2878 37.7305 82.3047 37.7305 80.9766V67.8711H34.7617V63.9062H37.7305V57.9688H43.2383V63.9062H46.6953V67.8711H43.2383V79.1211C43.2383 79.9935 43.349 80.5404 43.5703 80.7617C43.7917 80.9701 44.4688 81.0742 45.6016 81.0742C45.7708 81.0742 45.9466 81.0742 46.1289 81.0742C46.3242 81.0612 46.513 81.0482 46.6953 81.0352ZM49.6055 56.2109H54.9375L53.9609 68.1055H50.582L49.6055 56.2109ZM74.4688 64.6875C76.1354 65.7552 77.0924 67.5911 77.3398 70.1953H71.7734C71.6953 69.4792 71.4935 68.9128 71.168 68.4961C70.556 67.7409 69.5143 67.3633 68.043 67.3633C66.832 67.3633 65.9661 67.5521 65.4453 67.9297C64.9375 68.3073 64.6836 68.75 64.6836 69.2578C64.6836 69.8958 64.957 70.3581 65.5039 70.6445C66.0508 70.944 67.9844 71.4583 71.3047 72.1875C73.5182 72.7083 75.1784 73.4961 76.2852 74.5508C77.3789 75.6185 77.9258 76.9531 77.9258 78.5547C77.9258 80.6641 77.138 82.3893 75.5625 83.7305C74 85.0586 71.5781 85.7227 68.2969 85.7227C64.9505 85.7227 62.4766 85.0195 60.875 83.6133C59.2865 82.194 58.4922 80.3906 58.4922 78.2031H64.1367C64.2539 79.1927 64.5078 79.8958 64.8984 80.3125C65.5885 81.0547 66.8646 81.4258 68.7266 81.4258C69.8203 81.4258 70.6862 81.263 71.3242 80.9375C71.9753 80.612 72.3008 80.1237 72.3008 79.4727C72.3008 78.8477 72.0404 78.3724 71.5195 78.0469C70.9987 77.7214 69.0651 77.1615 65.7188 76.3672C63.3099 75.7682 61.6107 75.0195 60.6211 74.1211C59.6315 73.2357 59.1367 71.9596 59.1367 70.293C59.1367 68.3268 59.9049 66.6406 61.4414 65.2344C62.9909 63.8151 65.1654 63.1055 67.9648 63.1055C70.6211 63.1055 72.7891 63.6328 74.4688 64.6875ZM109.02 79.082H98.4141L96.4219 85H90.1328L100.406 56.2109H107.203L117.398 85H110.875L109.02 79.082ZM107.34 74.1211L103.746 62.793L100.035 74.1211H107.34ZM148.375 84.2969C146.786 85.2734 144.833 85.7617 142.516 85.7617C138.701 85.7617 135.576 84.4401 133.141 81.7969C130.602 79.1406 129.332 75.5078 129.332 70.8984C129.332 66.237 130.615 62.5 133.18 59.6875C135.745 56.875 139.137 55.4688 143.355 55.4688C147.014 55.4688 149.951 56.3997 152.164 58.2617C154.391 60.1107 155.667 62.4219 155.992 65.1953H150.074C149.618 63.2292 148.505 61.8555 146.734 61.0742C145.745 60.6445 144.645 60.4297 143.434 60.4297C141.116 60.4297 139.208 61.3086 137.711 63.0664C136.227 64.8112 135.484 67.4414 135.484 70.957C135.484 74.4987 136.292 77.0052 137.906 78.4766C139.521 79.9479 141.357 80.6836 143.414 80.6836C145.432 80.6836 147.086 80.1042 148.375 78.9453C149.664 77.7734 150.458 76.2435 150.758 74.3555H144.098V69.5508H156.09V85H152.105L151.5 81.4062C150.341 82.7734 149.299 83.737 148.375 84.2969ZM175.055 81.9922C175.003 82.0573 174.872 82.2526 174.664 82.5781C174.456 82.9036 174.208 83.1901 173.922 83.4375C173.049 84.2188 172.203 84.7526 171.383 85.0391C170.576 85.3255 169.625 85.4688 168.531 85.4688C165.38 85.4688 163.258 84.3359 162.164 82.0703C161.552 80.8203 161.246 78.9779 161.246 76.543V63.7109H166.949V76.543C166.949 77.7539 167.092 78.6654 167.379 79.2773C167.887 80.3581 168.883 80.8984 170.367 80.8984C172.268 80.8984 173.57 80.1302 174.273 78.5938C174.638 77.7604 174.82 76.6602 174.82 75.293V63.7109H180.465V85H175.055V81.9922ZM186.656 66.0156C188.128 64.1406 190.654 63.2031 194.234 63.2031C196.565 63.2031 198.635 63.6654 200.445 64.5898C202.255 65.5143 203.16 67.2591 203.16 69.8242V79.5898C203.16 80.2669 203.173 81.0872 203.199 82.0508C203.238 82.7799 203.349 83.2747 203.531 83.5352C203.714 83.7956 203.987 84.0104 204.352 84.1797V85H198.297C198.128 84.5703 198.01 84.1667 197.945 83.7891C197.88 83.4115 197.828 82.9818 197.789 82.5C197.021 83.3333 196.135 84.043 195.133 84.6289C193.935 85.319 192.581 85.6641 191.07 85.6641C189.143 85.6641 187.548 85.1172 186.285 84.0234C185.035 82.9167 184.41 81.3542 184.41 79.3359C184.41 76.7188 185.419 74.8242 187.438 73.6523C188.544 73.0143 190.172 72.5586 192.32 72.2852L194.215 72.0508C195.243 71.9206 195.979 71.7578 196.422 71.5625C197.216 71.224 197.613 70.6966 197.613 69.9805C197.613 69.1081 197.307 68.5091 196.695 68.1836C196.096 67.8451 195.211 67.6758 194.039 67.6758C192.724 67.6758 191.793 68.0013 191.246 68.6523C190.855 69.1341 190.595 69.7852 190.465 70.6055H185.094C185.211 68.7435 185.732 67.2135 186.656 66.0156ZM190.797 80.9766C191.318 81.4062 191.956 81.6211 192.711 81.6211C193.909 81.6211 195.009 81.2695 196.012 80.5664C197.027 79.8633 197.555 78.5807 197.594 76.7188V74.6484C197.242 74.8698 196.884 75.0521 196.52 75.1953C196.168 75.3255 195.68 75.4492 195.055 75.5664L193.805 75.8008C192.633 76.0091 191.793 76.263 191.285 76.5625C190.426 77.0703 189.996 77.8581 189.996 78.9258C189.996 79.8763 190.263 80.5599 190.797 80.9766ZM218.824 68.8477C216.585 68.8477 215.081 69.5768 214.312 71.0352C213.883 71.8555 213.668 73.1185 213.668 74.8242V85H208.062V63.7109H213.375V67.4219C214.234 66.0026 214.983 65.0326 215.621 64.5117C216.663 63.6393 218.017 63.2031 219.684 63.2031C219.788 63.2031 219.872 63.2096 219.938 63.2227C220.016 63.2227 220.178 63.2292 220.426 63.2422V68.9453C220.074 68.9062 219.762 68.8802 219.488 68.8672C219.215 68.8542 218.993 68.8477 218.824 68.8477ZM224.508 66.0156C225.979 64.1406 228.505 63.2031 232.086 63.2031C234.417 63.2031 236.487 63.6654 238.297 64.5898C240.107 65.5143 241.012 67.2591 241.012 69.8242V79.5898C241.012 80.2669 241.025 81.0872 241.051 82.0508C241.09 82.7799 241.201 83.2747 241.383 83.5352C241.565 83.7956 241.839 84.0104 242.203 84.1797V85H236.148C235.979 84.5703 235.862 84.1667 235.797 83.7891C235.732 83.4115 235.68 82.9818 235.641 82.5C234.872 83.3333 233.987 84.043 232.984 84.6289C231.786 85.319 230.432 85.6641 228.922 85.6641C226.995 85.6641 225.4 85.1172 224.137 84.0234C222.887 82.9167 222.262 81.3542 222.262 79.3359C222.262 76.7188 223.271 74.8242 225.289 73.6523C226.396 73.0143 228.023 72.5586 230.172 72.2852L232.066 72.0508C233.095 71.9206 233.831 71.7578 234.273 71.5625C235.068 71.224 235.465 70.6966 235.465 69.9805C235.465 69.1081 235.159 68.5091 234.547 68.1836C233.948 67.8451 233.062 67.6758 231.891 67.6758C230.576 67.6758 229.645 68.0013 229.098 68.6523C228.707 69.1341 228.447 69.7852 228.316 70.6055H222.945C223.062 68.7435 223.583 67.2135 224.508 66.0156ZM228.648 80.9766C229.169 81.4062 229.807 81.6211 230.562 81.6211C231.76 81.6211 232.861 81.2695 233.863 80.5664C234.879 79.8633 235.406 78.5807 235.445 76.7188V74.6484C235.094 74.8698 234.736 75.0521 234.371 75.1953C234.02 75.3255 233.531 75.4492 232.906 75.5664L231.656 75.8008C230.484 76.0091 229.645 76.263 229.137 76.5625C228.277 77.0703 227.848 77.8581 227.848 78.9258C227.848 79.8763 228.115 80.5599 228.648 80.9766ZM255.992 67.832C254.104 67.832 252.809 68.6328 252.105 70.2344C251.741 71.0807 251.559 72.1615 251.559 73.4766V85H246.012V63.75H251.383V66.8555C252.099 65.7617 252.776 64.974 253.414 64.4922C254.56 63.6328 256.012 63.2031 257.77 63.2031C259.97 63.2031 261.767 63.7826 263.16 64.9414C264.566 66.0872 265.27 67.9948 265.27 70.6641V85H259.566V72.0508C259.566 70.931 259.417 70.0716 259.117 69.4727C258.57 68.3789 257.529 67.832 255.992 67.832ZM280.172 81.0352V85.1953L277.535 85.293C274.905 85.3841 273.108 84.9284 272.145 83.9258C271.52 83.2878 271.207 82.3047 271.207 80.9766V67.8711H268.238V63.9062H271.207V57.9688H276.715V63.9062H280.172V67.8711H276.715V79.1211C276.715 79.9935 276.826 80.5404 277.047 80.7617C277.268 80.9701 277.945 81.0742 279.078 81.0742C279.247 81.0742 279.423 81.0742 279.605 81.0742C279.801 81.0612 279.99 81.0482 280.172 81.0352ZM301.969 78.75C301.826 80.013 301.168 81.2956 299.996 82.5977C298.173 84.668 295.621 85.7031 292.34 85.7031C289.632 85.7031 287.242 84.8307 285.172 83.0859C283.102 81.3411 282.066 78.5026 282.066 74.5703C282.066 70.8854 282.997 68.0599 284.859 66.0938C286.734 64.1276 289.163 63.1445 292.145 63.1445C293.915 63.1445 295.51 63.4766 296.93 64.1406C298.349 64.8047 299.521 65.8529 300.445 67.2852C301.279 68.5482 301.819 70.013 302.066 71.6797C302.21 72.6562 302.268 74.0625 302.242 75.8984H287.672C287.75 78.0339 288.421 79.5312 289.684 80.3906C290.452 80.9245 291.376 81.1914 292.457 81.1914C293.603 81.1914 294.534 80.8659 295.25 80.2148C295.641 79.8633 295.986 79.375 296.285 78.75H301.969ZM296.461 72.2266C296.37 70.7552 295.921 69.6419 295.113 68.8867C294.319 68.1185 293.329 67.7344 292.145 67.7344C290.855 67.7344 289.853 68.138 289.137 68.9453C288.434 69.7526 287.991 70.8464 287.809 72.2266H296.461ZM324.234 78.75C324.091 80.013 323.434 81.2956 322.262 82.5977C320.439 84.668 317.887 85.7031 314.605 85.7031C311.897 85.7031 309.508 84.8307 307.438 83.0859C305.367 81.3411 304.332 78.5026 304.332 74.5703C304.332 70.8854 305.263 68.0599 307.125 66.0938C309 64.1276 311.428 63.1445 314.41 63.1445C316.181 63.1445 317.776 63.4766 319.195 64.1406C320.615 64.8047 321.786 65.8529 322.711 67.2852C323.544 68.5482 324.085 70.013 324.332 71.6797C324.475 72.6562 324.534 74.0625 324.508 75.8984H309.938C310.016 78.0339 310.686 79.5312 311.949 80.3906C312.717 80.9245 313.642 81.1914 314.723 81.1914C315.868 81.1914 316.799 80.8659 317.516 80.2148C317.906 79.8633 318.251 79.375 318.551 78.75H324.234ZM318.727 72.2266C318.635 70.7552 318.186 69.6419 317.379 68.8867C316.585 68.1185 315.595 67.7344 314.41 67.7344C313.121 67.7344 312.118 68.138 311.402 68.9453C310.699 69.7526 310.257 70.8464 310.074 72.2266H318.727ZM336.188 63.6133L334.605 77.0508H331.695L330.074 63.6133V56.3086H336.188V63.6133ZM336.031 79.3555V85H330.211V79.3555H336.031Z" fill="#EEEEEE"></path>
</svg>
