<svg width="124" height="36" viewBox="0 0 124 36" fill="none" xmlns="http://www.w3.org/2000/svg">
<path d="M7.51542 7.82584C8.39003 7.82584 9.16746 7.9354 9.86391 8.10758V7.19975C9.86391 6.47975 10.4632 5.90062 11.2082 5.90062H32.7657C33.5107 5.90062 34.11 6.47975 34.11 7.19975V8.20149H38.3211V6.38584C38.3211 3.86584 36.2155 1.83105 33.6079 1.83105H10.366C7.75837 1.83105 5.65283 3.86584 5.65283 6.38584V7.98236C6.2359 7.87279 6.86757 7.82584 7.51542 7.82584Z" fill="url(#paint0_linear_2922_9242)"/>
<path d="M34.11 24.8242V30.1147H12.099C10.8681 30.1147 9.86391 29.1442 9.86391 27.9547V26.8277C9.0055 27.0781 8.04991 27.219 7.01333 27.219C6.54364 27.219 6.09014 27.1877 5.65283 27.1251V28.8155C5.65283 31.7738 8.14708 34.1842 11.2082 34.1842H38.3211V27.172C36.2317 26.9529 34.936 26.0138 34.11 24.8242Z" fill="url(#paint1_linear_2922_9242)"/>
<path d="M1.11768 22.8835L3.14223 20.9896C3.57954 20.5827 4.24359 20.5201 4.74568 20.8487C5.44213 21.287 6.30054 21.5844 7.41809 21.5844C8.37368 21.5844 8.82719 21.287 8.82719 20.7392C8.82719 19.0018 1.63596 19.7531 1.63596 14.2279C1.63596 11.3009 4.27598 9.53223 7.69343 9.53223C10.6898 9.53223 12.3904 10.9253 13.3298 12.1305L10.0905 14.5879C9.60462 14.1183 8.71381 13.3983 7.48288 13.3983C6.77024 13.3983 6.34913 13.6801 6.34913 14.1496C6.34913 16.0592 13.6051 14.9635 13.6051 20.4574C13.6051 23.5566 10.787 25.4661 7.19134 25.4661C4.1788 25.4974 2.05707 24.1044 1.11768 22.8835Z" fill="white" fill-opacity="0.9"/>
<path d="M26.6269 9.9235H31.3076V28.6592H30.0119C27.9712 28.6592 26.3029 27.0626 26.3029 25.0748V23.9635C25.979 24.3392 24.5051 25.4974 22.1081 25.4974C17.5569 25.4974 14.6739 22.2261 14.6739 17.4992C14.6577 12.8348 17.8484 9.54785 22.3672 9.54785C24.6671 9.54785 26.1734 10.6122 26.6269 11.1131V9.9235ZM23.0475 13.7739C21.0391 13.7739 19.6624 15.2139 19.6624 17.4835C19.6624 19.7061 21.0067 21.24 23.0475 21.24C25.0234 21.24 26.4325 19.8783 26.4325 17.4835C26.4325 15.4487 25.2178 13.7739 23.0475 13.7739Z" fill="white" fill-opacity="0.9"/>
<path d="M39.0496 18.9855C39.0496 20.4098 39.9242 21.1611 41.1228 21.1611C42.4995 21.1611 43.2769 20.2063 43.2769 18.9855V9.92285H48.2816V25.4968H43.3903V23.5559C42.791 24.4481 41.4143 25.4968 39.4383 25.4968C34.5308 25.4968 34.0449 21.4428 34.0449 18.3437V9.92285H37.7539C38.4666 9.92285 39.0496 10.4863 39.0496 11.175V18.9855Z" fill="white" fill-opacity="0.9"/>
<path d="M56.3151 15.3548C57.6918 15.3548 58.777 15.6679 59.3439 15.9026V15.3548C59.3439 14.4313 58.5664 13.7113 56.9468 13.7113C55.9426 13.7113 54.9546 13.9148 54.0152 14.2435C53.416 14.4626 52.7357 14.2279 52.428 13.68L51.1323 11.4261C52.8167 10.3618 54.9384 9.54785 57.5461 9.54785C62.9719 9.54785 64.3486 12.24 64.3486 15.7148V25.4974H61.1741C60.429 25.4974 59.7812 24.9965 59.6192 24.2765C58.8094 25.0592 57.6756 25.4974 56.056 25.4974C52.9625 25.4974 50.2091 23.6974 50.2091 20.3948C50.1929 17.3583 52.5899 15.3548 56.3151 15.3548ZM57.3355 21.7879C58.534 21.7879 59.4248 21.24 59.4248 20.2226C59.4248 19.1739 58.5016 18.5948 57.3031 18.5948C56.1046 18.5948 55.2138 19.2365 55.2138 20.2226C55.1976 21.24 56.1694 21.7879 57.3355 21.7879Z" fill="white" fill-opacity="0.9"/>
<path d="M72.0418 25.4968H67.0371V11.175C67.0371 10.4863 67.6202 9.92285 68.3328 9.92285H72.0418V25.4968Z" fill="white" fill-opacity="0.9"/>
<path d="M83.9625 14.4001H83.1527C80.7232 14.4001 79.9134 16.1061 79.9134 18.3914V25.4818H74.9087V9.92353H78.4881C79.2008 9.92353 79.7838 10.487 79.7838 11.1757V11.9427C80.5289 10.4714 82.0027 9.53223 83.9463 9.53223L83.9625 14.4001Z" fill="white" fill-opacity="0.9"/>
<path d="M97.4866 21.6626L98.3127 24.1357C97.2599 24.8244 95.6726 25.4974 93.6967 25.4974C88.692 25.4974 85.1611 22.1948 85.1611 17.5305C85.1611 12.8661 88.8215 9.54785 93.6805 9.54785C95.7212 9.54785 97.2437 10.1896 98.3612 10.9409L97.0169 15.0261C96.1423 14.3374 95.041 13.8992 93.8748 13.8992C91.5101 13.8992 90.182 15.4957 90.182 17.5148C90.182 19.7374 91.7369 21.2557 94.053 21.2557C94.6523 21.2557 95.2515 21.1148 95.7698 20.9113C96.4501 20.5983 97.2599 20.9583 97.4866 21.6626Z" fill="white" fill-opacity="0.9"/>
<path d="M101.617 4.17871H105.325V25.1057H100.321V5.43089C100.321 4.74219 100.904 4.17871 101.617 4.17871Z" fill="white" fill-opacity="0.9"/>
<path d="M112.549 18.7826C112.663 20.1444 114.023 21.3026 115.87 21.3026C117.036 21.3026 117.91 20.8487 118.477 20.3948C118.947 20.0192 119.611 20.0035 120.097 20.3635L122.462 22.1322C122.008 23.0244 119.854 25.4974 115.772 25.4974C110.59 25.4974 107.415 22.0539 107.415 17.5618C107.415 13.1009 110.525 9.54785 115.141 9.54785C120.145 9.54785 122.866 12.647 122.866 17.8279C122.866 18.1096 122.866 18.4383 122.834 18.7826H112.549ZM112.695 15.7148H117.781C117.716 14.4939 116.793 13.4609 115.238 13.4609C113.602 13.4452 112.825 14.6348 112.695 15.7148Z" fill="white" fill-opacity="0.9"/>
<path d="M69.5314 9.01521C70.9089 9.01521 72.0256 7.93602 72.0256 6.60477C72.0256 5.27352 70.9089 4.19434 69.5314 4.19434C68.1538 4.19434 67.0371 5.27352 67.0371 6.60477C67.0371 7.93602 68.1538 9.01521 69.5314 9.01521Z" fill="white" fill-opacity="0.9"/>
<defs>
<linearGradient id="paint0_linear_2922_9242" x1="5.65283" y1="5.01627" x2="38.3211" y2="5.01627" gradientUnits="userSpaceOnUse">
<stop stop-color="#2990E6"/>
<stop offset="0.9833" stop-color="#15D378"/>
</linearGradient>
<linearGradient id="paint1_linear_2922_9242" x1="5.65283" y1="29.5042" x2="38.3211" y2="29.5042" gradientUnits="userSpaceOnUse">
<stop stop-color="#E7CC29"/>
<stop offset="0.9833" stop-color="#FF5D58"/>
</linearGradient>
</defs>
</svg>
