<?xml version="1.0" encoding="UTF-8"?>
<svg xmlns="http://www.w3.org/2000/svg" width="267" height="288" viewBox="0 0 267 288" fill="none">
  <path fill-rule="evenodd" clip-rule="evenodd" d="M168.061 157.651L160.34 157.308L165.582 163.449L228.775 237.492L212.01 254.197L148.8 180.145L143.558 174.004L143.248 182.348L139.354 285.92L116.86 284.935L120.763 181.38L121.073 173.037L115.387 178.702L46.8509 246.946L31.3918 228.823L99.9442 160.563L105.63 154.897L97.9093 154.563L2.07324 150.358L2.98605 126.086L98.8137 130.291L106.552 130.633L101.301 124.492L38.0997 50.4412L54.8735 33.7369L118.058 107.763L123.3 113.912L123.619 105.56L127.513 2.08057L149.998 3.06513L146.095 106.578L145.785 114.914L151.472 109.257L220.032 40.9877L235.5 59.1104L166.931 127.371L161.253 133.036L168.974 133.37L264.877 137.584L263.956 161.856L168.061 157.651Z" fill="#F5C651"></path>
  <path fill-rule="evenodd" clip-rule="evenodd" d="M125.589 0L152.071 1.15957L147.973 109.92L150.058 107.845L220.152 38.0502L238.22 59.2204L168.345 128.781L168.344 128.782L165.881 131.24L169.061 131.378L266.951 135.678L265.878 163.936L167.973 159.643L164.841 159.504L167.106 162.157L231.495 237.602L211.891 257.134L147.277 181.438L145.366 179.2L145.247 182.422L141.277 288L114.787 286.841L118.764 181.306L118.886 178.035L46.7311 249.884L28.672 228.713L98.5304 159.152L100.998 156.693L97.8226 156.556L0 152.263L1.0627 124.005L98.9016 128.299L102.046 128.438L99.7788 125.786L99.7776 125.785L35.3795 50.3313L54.9927 30.7994L119.581 106.47L121.497 108.717L121.62 105.485L125.589 0ZM129.436 4.16094L125.617 105.635L125.104 119.107L116.535 109.055L54.7543 36.6743L40.8198 50.5509L111.057 132.829L98.7257 132.284L4.90939 128.167L4.14648 148.453L97.9959 152.571L110.263 153.101L101.358 161.973L34.1117 228.933L46.9707 244.008L123.26 168.038L122.762 181.454L118.934 283.03L137.431 283.839L141.249 182.274L141.749 168.809L150.323 178.853L212.129 251.259L226.055 237.383L164.059 164.742L155.839 155.113L168.149 155.658L262.033 159.775L262.803 139.489L168.887 135.362L156.625 134.832L232.779 59.0002L219.913 43.925L152.885 110.668L143.598 119.907L144.096 106.504L147.924 4.9705L129.436 4.16094Z" fill="#2C2C2C"></path>
</svg>
