<?xml version="1.0" encoding="UTF-8"?>
<svg xmlns="http://www.w3.org/2000/svg" width="564" height="564" viewBox="0 0 564 564" fill="none">
  <circle cx="280.468" cy="280.468" r="206.902" fill="#F5C651"></circle>
  <path fill-rule="evenodd" clip-rule="evenodd" d="M105.548 282.015C105.548 379.325 184.704 458.481 282.015 458.481C379.325 458.481 458.481 379.325 458.481 282.015C458.481 184.704 379.325 105.548 282.015 105.548C184.704 105.548 105.548 184.704 105.548 282.015ZM285.724 450.667V357.066C302.078 357.417 318.19 360.096 333.666 365.035C323.656 414.754 305.503 447.045 285.724 450.667ZM278.305 450.667C258.527 447.045 240.395 414.754 230.363 365.035C245.839 360.096 261.951 357.417 278.305 357.066V450.667ZM258.878 447.791C231.044 439.889 205.69 417.674 188.085 385.471C199.148 378.052 211.024 371.971 223.426 367.405C231.241 404.92 243.863 433.369 258.878 447.791ZM305.129 447.791C320.166 433.369 332.788 404.942 340.581 367.405C352.983 371.971 364.859 378.03 375.922 385.471C358.317 417.674 332.964 439.889 305.129 447.791ZM230.253 442.962C205.975 435.147 183.738 421.91 165.08 403.998V403.976C170.392 398.905 176.056 394.142 182.004 389.752C194.736 412.779 211.419 431.086 230.253 442.962ZM333.732 442.962C352.566 431.086 369.249 412.779 381.981 389.774C387.93 394.142 393.593 398.927 398.905 403.998C380.247 421.91 358.01 435.147 333.732 442.962ZM159.877 398.708C130.507 368.02 113.955 328.047 113.033 285.702V285.68H155.772C156.277 320.781 164.136 354.366 178.558 383.079C171.995 387.864 165.716 393.11 159.877 398.708ZM385.495 383.118C392.072 387.899 398.342 393.139 404.174 398.73C433.545 368.042 450.096 328.069 451.018 285.724H408.279C407.752 320.801 399.894 354.385 385.495 383.118ZM379.347 378.82C367.669 371.071 355.134 364.771 342.03 360.03H342.008C346.332 336.761 348.615 311.781 348.813 285.702H400.837C400.332 319.244 392.913 351.337 379.347 378.82ZM184.682 378.82C171.116 351.337 163.697 319.244 163.192 285.702H215.195C215.392 311.781 217.675 336.761 222 360.03C208.895 364.749 196.361 371.071 184.682 378.82ZM335.049 357.703C319.112 352.698 302.539 349.998 285.724 349.647V285.724H341.437C341.239 310.968 339.088 335.159 335.049 357.703ZM229.002 357.681C224.941 335.159 222.812 310.968 222.614 285.702V285.68H278.327V349.625C261.49 349.976 244.939 352.676 229.002 357.681ZM450.996 278.283H408.257H408.235C407.73 244.149 400.244 211.353 386.547 183.124C393.286 178.163 399.674 172.697 405.623 166.858C434.05 197.348 450.096 236.751 450.996 278.283ZM400.859 278.283H348.856C348.659 253.28 346.552 229.266 342.578 206.809C355.925 201.958 368.678 195.461 380.488 187.47C393.33 214.426 400.354 245.729 400.859 278.283ZM341.437 278.283H285.746V217.368C302.759 217.039 319.508 214.273 335.576 209.18C339.286 230.89 341.261 254.114 341.437 278.283ZM278.305 278.283H222.614C222.79 254.114 224.766 230.89 228.475 209.18C244.544 214.273 261.293 217.017 278.305 217.368V278.283ZM215.217 278.283H163.214C163.697 245.729 170.721 214.426 183.585 187.47C195.395 195.439 208.126 201.936 221.495 206.809C217.522 229.266 215.414 253.28 215.217 278.283ZM155.772 278.283H113.033H113.011C113.911 236.751 129.958 197.348 158.385 166.858C164.334 172.697 170.743 178.163 177.46 183.124C163.763 211.331 156.277 244.149 155.772 278.283ZM285.702 209.97V113.341C305.92 117.006 324.293 150.416 334.193 201.826C318.564 206.875 302.276 209.619 285.702 209.97ZM278.305 209.97C261.732 209.619 245.444 206.875 229.814 201.826C239.714 150.416 258.088 117.006 278.305 113.341V209.97ZM222.878 199.434C210.212 194.714 198.139 188.458 186.921 180.775C204.592 147.321 230.363 124.316 258.878 116.216C243.468 130.989 230.648 160.448 222.878 199.434ZM341.152 199.434C333.403 160.448 320.561 131.011 305.151 116.216C333.666 124.294 359.437 147.321 377.108 180.775C365.891 188.458 353.817 194.714 341.152 199.434ZM180.885 176.451C174.76 171.863 168.943 166.858 163.543 161.546C182.531 142.865 205.295 129.102 230.297 121.067C210.87 133.316 193.77 152.392 180.885 176.451ZM383.144 176.451C370.259 152.37 353.159 133.316 333.732 121.067C358.735 129.102 381.498 142.865 400.486 161.546C395.064 166.88 389.247 171.863 383.144 176.451Z" fill="#2C2C2C"></path>
</svg>
